<svg width="78" height="60" viewBox="0 0 78 60" fill="none" xmlns="http://www.w3.org/2000/svg">
<g clip-path="url(#clip0_2612_1995)">
<path d="M42.8759 29.8513C42.7426 30.1743 42.5807 30.3675 42.3332 30.4973C42.0476 30.6556 41.4954 30.6588 41.1971 30.5036C40.6799 30.2503 40.5593 29.8196 40.5117 29.4745C40.4768 29.161 40.4863 28.5783 40.9623 28.1698C41.2574 27.9196 41.7461 27.8689 42.0571 27.9481C42.5363 28.0684 42.6759 28.2458 42.8283 28.6828C42.8346 28.6986 42.8505 28.7081 42.8663 28.7049C42.8822 28.7018 42.8949 28.6859 42.8949 28.6701L42.8663 28.0019C42.8663 28.0019 42.8568 27.9766 42.8473 27.9734C42.0793 27.6029 41.3431 27.5871 40.7751 27.9291C40.0992 28.3281 39.9627 28.9139 39.9659 29.3383C39.9659 29.864 40.2673 30.3358 40.7909 30.6367C41.0639 30.795 41.3653 30.8742 41.689 30.8742C42.0698 30.8742 42.4792 30.7633 42.8885 30.5416C42.8981 30.5353 42.9076 30.5258 42.9076 30.5131L42.9361 29.864C42.9361 29.8481 42.9266 29.8323 42.9076 29.8291C42.8917 29.8291 42.8727 29.8355 42.8663 29.8513H42.8759Z" fill="white"/>
<path d="M47.3853 27.8087L47.3948 27.7992C47.3948 27.7992 47.4043 27.7739 47.3979 27.7612C47.3916 27.7485 47.3789 27.7422 47.3662 27.7422H46.7411C46.7411 27.7422 46.7157 27.7517 46.7093 27.7612C46.703 27.7707 46.7062 27.7865 46.7157 27.7992C46.814 27.9132 46.8204 27.9227 46.8204 28.0335V29.0025H45.1449V28.0304C45.1449 27.9259 45.148 27.9227 45.2527 27.7992C45.2623 27.7897 45.2623 27.7739 45.2591 27.7612C45.2527 27.7485 45.2401 27.7422 45.2274 27.7422H44.599C44.599 27.7422 44.5736 27.7517 44.5673 27.7612C44.561 27.7739 44.5641 27.7865 44.5736 27.7992L44.58 27.8087C44.672 27.9164 44.6815 27.929 44.6815 28.0367V30.5321C44.6815 30.6397 44.672 30.6492 44.58 30.7569L44.5705 30.7664C44.5705 30.7664 44.561 30.7917 44.5641 30.8044C44.5673 30.8171 44.5832 30.8234 44.5959 30.8234H45.2242C45.2242 30.8234 45.2496 30.8139 45.2527 30.8012C45.2559 30.7886 45.2527 30.7727 45.2464 30.7632C45.1449 30.6461 45.1417 30.6397 45.1417 30.5352V29.2527H46.8172V30.5321C46.8172 30.6429 46.8109 30.6492 46.7125 30.7664C46.703 30.7759 46.703 30.7917 46.7061 30.8044C46.7093 30.8171 46.7252 30.8234 46.7379 30.8234H47.363C47.363 30.8234 47.3884 30.8171 47.3948 30.8044C47.4011 30.7917 47.3979 30.7791 47.3916 30.7664L47.3821 30.7569C47.29 30.6461 47.2837 30.6366 47.2837 30.5352V28.0304C47.2837 27.9259 47.29 27.9195 47.3821 27.8087H47.3853Z" fill="white"/>
<path d="M49.8095 27.4619C49.8095 27.4619 49.8254 27.4587 49.8317 27.4524L50.3141 27.0249L50.7965 27.4524C50.7965 27.4524 50.8123 27.4619 50.8187 27.4619H50.9615C50.9615 27.4619 50.9869 27.4555 50.9932 27.4429C50.9995 27.4302 50.9964 27.4175 50.99 27.4049L50.4632 26.6924C50.4632 26.6924 50.4474 26.6797 50.4347 26.6797H50.1967C50.1967 26.6797 50.1745 26.686 50.1681 26.6924L49.6382 27.4049C49.6382 27.4049 49.6286 27.4302 49.635 27.4397C49.6413 27.4524 49.654 27.4587 49.6667 27.4587H49.8095V27.4619Z" fill="white"/>
<path d="M51.7896 30.7514C51.669 30.6596 51.6309 30.6311 51.5706 30.4981L50.352 27.7019C50.352 27.7019 50.333 27.6797 50.3203 27.6797C50.3076 27.6797 50.2949 27.6892 50.2886 27.7019L49.0414 30.5202C48.997 30.6121 48.9431 30.6912 48.8701 30.7641C48.8606 30.7736 48.8574 30.7894 48.8606 30.8021C48.8669 30.8147 48.8796 30.8242 48.8923 30.8242H49.381C49.381 30.8242 49.4064 30.8147 49.4127 30.8021C49.4191 30.7894 49.4127 30.7736 49.4032 30.7641C49.3017 30.6627 49.2953 30.6564 49.3334 30.5487L49.4445 30.2891L49.6317 29.8837H50.8185L50.9645 30.2099C50.9772 30.2352 51.0724 30.4569 51.0914 30.5107C51.1295 30.6406 51.1105 30.6722 51.0026 30.7609C50.9899 30.7704 50.9867 30.7862 50.9931 30.7989C50.9994 30.8116 51.0121 30.8211 51.0248 30.8211H51.7801C51.7801 30.8211 51.8086 30.8116 51.8118 30.7989C51.815 30.7831 51.8118 30.7704 51.7991 30.7609L51.7864 30.7514H51.7896ZM50.6979 29.6177H49.7396L50.2188 28.4777L50.6979 29.6177Z" fill="white"/>
<path d="M53.0398 27.7422C53.0207 27.7422 53.0049 27.758 53.0049 27.777V28.1254C53.0049 28.1254 53.0144 28.1539 53.0271 28.157C53.0398 28.1634 53.0557 28.157 53.0652 28.1475C53.208 27.9765 53.4206 27.9734 53.6237 27.9797H53.9791V30.5321C53.9791 30.6429 53.9728 30.6492 53.8744 30.7664C53.8649 30.7759 53.8649 30.7917 53.868 30.8044C53.8744 30.8171 53.8871 30.8234 53.8998 30.8234H54.5249C54.5249 30.8234 54.5503 30.8171 54.5567 30.8044C54.563 30.7917 54.5598 30.7791 54.5535 30.7664L54.544 30.7569C54.4519 30.6461 54.4456 30.6366 54.4456 30.5352V27.9797H54.801C55.0041 27.9734 55.2135 27.9734 55.3595 28.1475C55.369 28.1602 55.3849 28.1634 55.3976 28.157C55.4103 28.1507 55.4198 28.138 55.4198 28.1254V27.777C55.4198 27.758 55.404 27.7422 55.3849 27.7422H53.0366H53.0398Z" fill="white"/>
<path d="M58.8246 30.3246C58.6754 30.5621 58.5866 30.5716 58.3517 30.5906C58.2724 30.6001 57.7266 30.6064 57.479 30.5557V29.232H58.1264C58.2343 29.232 58.2883 29.2479 58.3866 29.3365C58.3962 29.346 58.412 29.3492 58.4247 29.3429C58.4374 29.3365 58.4469 29.3239 58.4469 29.3112V28.9185C58.4469 28.9185 58.4374 28.89 58.4215 28.8869C58.4057 28.8805 58.393 28.8869 58.3835 28.8995C58.3517 28.9439 58.2343 29.0072 58.1264 29.0072H57.479V27.9748C57.479 27.9748 57.5108 27.9748 57.533 27.9748C57.6409 27.9748 57.8313 27.9685 58.009 27.9685C58.2692 27.9685 58.5453 28.035 58.6342 28.1237C58.6437 28.1332 58.6595 28.1363 58.6722 28.13C58.6849 28.1237 58.6945 28.111 58.6945 28.0983V27.7848C58.6945 27.7658 58.6786 27.75 58.6595 27.75H56.9364C56.9364 27.75 56.911 27.7595 56.9047 27.769C56.8983 27.7817 56.9015 27.7975 56.911 27.807C57.0126 27.921 57.0189 27.9305 57.0189 28.0413V30.5367C57.0189 30.6476 57.0094 30.6571 56.911 30.7711C56.9015 30.7806 56.9015 30.7964 56.9047 30.8091C56.911 30.8217 56.9237 30.8281 56.9364 30.8281H58.7865C58.8023 30.8281 58.8182 30.8154 58.8214 30.7996L58.8944 30.3499C58.8944 30.334 58.888 30.3182 58.8722 30.3119C58.8563 30.3056 58.8404 30.3119 58.8309 30.3277L58.8246 30.3246Z" fill="white"/>
<path d="M63.1372 30.7514C63.0197 30.6596 62.9848 30.6311 62.9245 30.4981L61.706 27.7019C61.706 27.7019 61.6869 27.6797 61.6742 27.6797C61.6615 27.6797 61.6488 27.6892 61.6425 27.7019L60.3954 30.5202C60.3541 30.6089 60.297 30.6881 60.2177 30.7641C60.2081 30.7736 60.205 30.7894 60.2113 30.8021C60.2177 30.8147 60.2303 30.8242 60.243 30.8242H60.7381C60.7381 30.8242 60.7635 30.8147 60.7698 30.8021C60.7762 30.7894 60.7698 30.7736 60.7635 30.7641L60.754 30.7577C60.6588 30.6627 60.6492 30.6564 60.6905 30.5487L60.8016 30.2891L60.9856 29.8837H62.1725L62.3216 30.2099C62.3343 30.2352 62.4295 30.4569 62.4454 30.5139C62.4866 30.6406 62.4676 30.6722 62.3597 30.7641C62.347 30.7736 62.3438 30.7894 62.3502 30.8021C62.3565 30.8147 62.3692 30.8242 62.3819 30.8242H63.1308C63.1308 30.8242 63.1594 30.8147 63.1625 30.8021C63.1657 30.7894 63.1625 30.7736 63.1498 30.7641L63.134 30.7514H63.1372ZM61.0903 29.6177L61.5727 28.4777L62.0519 29.6177H61.0903Z" fill="white"/>
<path d="M66.8818 27.7446H66.4503C66.4503 27.7446 66.4249 27.7541 66.4185 27.7636C66.4122 27.7763 66.4154 27.7921 66.4249 27.8016C66.5264 27.9156 66.5328 27.9251 66.5328 28.036V29.765C66.5328 29.9993 66.5359 30.3508 66.2123 30.5282C65.9996 30.6422 65.4983 30.6675 65.2761 30.5377C64.9334 30.335 64.9366 30.0627 64.9366 29.7745V28.0328C64.9366 27.9283 64.9429 27.922 65.0413 27.8016C65.0508 27.7921 65.0508 27.7763 65.0445 27.7636C65.0381 27.7509 65.0254 27.7446 65.0127 27.7446H64.3876C64.3876 27.7446 64.3622 27.7541 64.3558 27.7636C64.3495 27.7763 64.3527 27.789 64.3622 27.8016C64.4606 27.9156 64.4669 27.9251 64.4669 28.036V29.7365C64.4669 30.0753 64.4669 30.4585 64.9334 30.7213C65.127 30.829 65.384 30.8797 65.6442 30.8797C65.9044 30.8797 66.1678 30.8258 66.3646 30.715C66.8057 30.4553 66.8057 29.9708 66.8057 29.6827V28.0296C66.8057 27.9283 66.812 27.922 66.9009 27.8079L66.9104 27.7953C66.9104 27.7953 66.9199 27.77 66.9136 27.7573C66.9072 27.7446 66.8945 27.7383 66.8818 27.7383V27.7446Z" fill="white"/>
<path d="M77.4591 41.329L77.3893 41.2784L77.3544 41.2689C77.2782 41.2689 77.1735 41.3195 77.1227 41.4177C77.0085 41.6046 76.4849 42.1967 75.8344 42.7762C75.3583 43.1974 74.6475 43.7611 73.9525 44.0556C73.4131 44.2836 72.9244 44.2931 72.6039 44.0904C72.2167 43.8403 72.1437 43.3368 72.4198 42.8396C72.5975 42.5134 73.1084 41.8484 73.6987 41.0757C74.5936 39.904 75.609 38.574 75.8978 37.8836C76.2469 37.0413 76.2627 36.2496 75.9422 35.7714C75.7741 35.5244 75.5265 35.3883 75.2409 35.3883C74.6888 35.3883 73.4734 35.7303 71.5281 38.0167C71.4646 38.0927 71.3662 38.1497 71.3186 38.1528C71.3186 38.1528 71.2933 38.1085 71.3599 37.9343C71.5471 37.4498 71.5979 36.9526 71.5027 36.4998C71.398 35.9994 70.9315 35.4611 70.1635 35.4611C69.3956 35.4611 68.7546 36.2338 68.3547 36.6961L68.2595 36.807C68.1992 36.8766 68.0152 37.0888 67.7518 37.4055C66.438 38.9508 62.9505 43.0549 62.1762 43.6629C61.7477 44.0018 61.4653 44.1221 61.0686 44.1348C60.8846 44.1348 60.7481 44.0873 60.6625 43.9986C60.5768 43.9099 60.5323 43.7706 60.5387 43.5901C60.5546 43.1373 61.5097 41.8547 62.2777 40.8224C62.595 40.398 62.8965 39.9927 63.1218 39.6602C63.9786 38.4125 65.8509 36.0406 66.0286 35.8379C66.1175 35.7366 66.1968 35.6321 66.1556 35.5403C66.1016 35.4199 65.9366 35.4294 65.743 35.4421C65.6256 35.4484 65.4955 35.4611 65.3717 35.4706C65.0703 35.4959 64.7783 35.5054 64.7307 35.4896C64.5276 35.4326 64.3848 35.5023 64.3214 35.6701C64.2357 35.9076 63.455 37.0603 63.3408 37.1996C63.2424 37.32 63.1821 37.2408 63.1821 37.1775C63.1821 36.9875 63.1218 36.0248 61.9159 35.5593C61.7287 35.4864 61.5097 35.4516 61.2654 35.4516C60.1198 35.4516 58.4062 36.2908 57.0988 37.491C56.5593 37.985 56.0103 38.2573 54.7632 38.156C54.5378 38.137 54.4902 38.099 54.4871 38.099C54.4871 38.0483 54.6077 37.8615 54.706 37.7095C54.8044 37.5543 54.9155 37.3833 55.0012 37.2155C55.2899 36.655 55.5851 35.8379 55.6009 35.2679C55.6073 34.9861 55.5533 34.7803 55.4359 34.6599C55.2106 34.4287 54.7219 34.6124 54.4458 34.7929C53.992 35.0906 53.2685 35.8791 53.1511 36.6201C53.0337 37.3548 53.1003 37.5511 53.6652 38.1212C53.7159 38.175 53.7382 38.2225 53.7382 38.2795C53.7382 38.346 53.6525 38.5265 53.4779 38.7545C53.1543 39.1725 52.1737 40.4424 50.5743 41.9402C49.4827 42.9599 48.5656 43.6249 48.2197 43.8624C47.6136 44.2804 47.2581 44.3469 46.8488 44.1126C46.7218 44.0429 46.6488 43.9353 46.6203 43.7801C46.5156 43.2133 47.1026 42.2062 47.5501 41.6711C47.731 41.4557 48.591 40.322 49.5017 39.1218C50.495 37.814 51.5231 36.4586 51.6533 36.3161C51.7453 36.2148 51.8405 36.1324 51.9262 36.0564C52.088 35.9171 52.2118 35.8063 52.2118 35.6733C52.2118 35.4896 52.0468 35.4896 51.9865 35.4896H51.8754C51.8468 35.4896 51.8151 35.4896 51.7865 35.4896C51.7294 35.4833 51.6628 35.4801 51.5961 35.4769C51.4248 35.4674 51.2312 35.4611 51.117 35.3851L51.0503 35.3408C50.8916 35.2331 50.7425 35.1824 50.5711 35.3756C50.5108 35.4421 50.3839 35.6448 50.1872 35.9488C49.7619 36.6106 49.0511 37.7221 48.2895 38.6373C48.1118 38.8495 47.9055 39.1092 47.6738 39.3973C46.4489 40.9269 44.5925 43.2386 42.9233 43.9986C42.2569 44.3026 41.8317 44.3248 41.7111 44.0556C41.5492 43.7041 41.8824 42.9821 42.1078 42.7256C42.6028 42.1651 45.443 38.7957 45.7952 38.2003C46.1475 37.6081 46.4362 36.3826 45.7159 35.6258C45.5286 35.4294 45.2684 35.3281 44.9511 35.3281C44.3386 35.3281 43.5326 35.7208 42.9487 36.3098C42.5838 36.6708 41.362 38.0515 37.6079 42.5704L37.4683 42.7382C36.9669 43.3431 35.8816 44.3026 35.1073 44.3026C34.9835 44.3026 34.8693 44.2773 34.7709 44.2266C34.6218 44.1538 34.5361 44.0493 34.5012 43.9131C34.3965 43.4793 34.8883 42.8142 35.0978 42.5292L35.1612 42.4437C35.2152 42.3677 35.3992 42.1302 35.6531 41.8009C36.4496 40.7717 37.9348 38.859 38.1252 38.3935C38.3346 37.8805 38.6361 36.9178 38.2934 36.2275C38.1157 35.8728 37.792 35.6321 37.3318 35.5118C36.7194 35.3534 36.0783 35.3534 36.0371 35.3534C36.0307 35.3534 35.8372 35.3598 35.815 35.3186C35.8086 35.3059 35.7927 35.2521 35.8879 35.1033C36.1767 34.6568 36.383 33.9062 36.0244 33.6561C35.6944 33.4249 34.7138 34.2071 34.6662 34.8056C34.6281 35.2616 34.7233 35.4199 34.8979 35.5244C35.0057 35.5878 35.1263 35.6574 34.9232 36.0311C34.6916 36.4523 31.0263 41.5127 29.7189 42.7826C28.3639 44.1063 27.5991 44.5338 27.0977 44.2519C26.9581 44.1728 26.8724 44.0651 26.8407 43.9258C26.7582 43.5806 27.012 43.1341 27.1707 42.8997C27.4309 42.5134 31.8895 36.4016 32.1973 36.0691C32.3941 35.8538 32.4797 35.7334 32.4353 35.6321C32.3972 35.5434 32.2766 35.5308 32.1688 35.5308H32.0736C31.6705 35.5561 31.3119 35.5561 31.1755 35.5561H31.0708C30.966 35.5529 30.874 35.5878 30.7312 35.7651C30.6995 35.8063 30.5757 35.9709 30.3885 36.218C29.5761 37.2883 27.4182 40.1384 26.7201 40.9617L26.536 41.1802C26.2631 41.5064 25.8506 42.0036 25.3206 42.5387C25.1588 42.7034 24.9874 42.8712 24.8034 43.0391C24.7685 43.0708 24.7335 43.1024 24.6986 43.1309C24.5019 43.3083 24.2988 43.4824 24.083 43.6534C22.9025 44.5813 22.1472 44.8283 21.5538 44.4546C21.3539 44.3311 21.2333 44.1411 21.1889 43.8846C21.0715 43.1848 21.5475 42.1017 22.4963 40.9174C23.2484 39.9769 24.9938 37.5955 24.9271 35.7841C24.889 34.6948 24.2575 33.7701 24.064 33.5104C24.4575 33.3046 26.2092 32.3799 27.1072 31.6737C27.6435 31.2525 28.2052 30.8218 28.7637 30.3943C30.1568 29.3272 31.5975 28.222 32.6194 27.2719C33.9331 26.0464 37.4302 23.2914 39.2581 23.0729C40.8035 22.8892 41.6698 23.1552 42.0919 23.9469C42.3045 24.3459 42.6472 24.6024 42.9646 24.6024C43.101 24.6024 43.2153 24.5549 43.2978 24.4631C43.3803 24.3712 43.412 24.2414 43.3866 24.0894C43.32 23.6999 42.9043 23.2249 42.3775 22.9367C41.9554 22.7055 41.2859 22.5789 40.4925 22.5789C39.6135 22.5789 38.6837 22.7404 37.9348 23.0222C36.5893 23.5352 34.2219 25.1819 32.045 27.1199C29.8173 29.1055 26.5455 31.8922 23.8006 33.2539C23.7308 33.1304 23.5657 32.8707 23.2833 32.7219C23.2643 32.6522 23.4547 32.3609 23.5467 32.2184L23.8672 31.7054C24.4162 30.8123 25.5586 28.9598 26.9644 27.0788C28.9351 24.4441 30.4583 23.1679 31.093 23.0729C31.3119 23.0349 31.3119 22.848 31.3119 22.7689C31.3119 22.6105 31.2167 22.5504 30.9407 22.6549C30.7566 22.7214 29.5856 23.1774 28.8113 23.57C28.4559 23.7505 27.9545 24.0482 27.4246 24.3681C26.8089 24.7354 26.1108 25.1534 25.5428 25.4416C25.0191 25.7044 23.1976 26.5721 21.7823 26.6196H21.722C21.392 26.6196 21.1508 26.5214 21.0048 26.3283C20.7129 25.9419 20.8176 25.2579 20.9572 24.7544C20.9858 24.6467 21.0334 24.5232 21.0842 24.3807C21.3126 23.7664 21.6585 22.8417 21.227 21.765C20.9096 20.9797 19.6149 20.5078 17.7616 20.5078C16.8985 20.5078 15.9814 20.6123 15.1817 20.8055C12.9159 21.347 8.46684 23.4655 7.83534 27.5918C7.65763 28.7413 7.86707 29.6723 8.46049 30.3595C9.45693 31.5185 11.2784 31.6927 12.2781 31.6927C12.5795 31.6927 12.8842 31.6769 13.1571 31.6452C14.9088 31.452 16.7684 30.3405 17.3396 29.4697C17.3999 29.3778 17.4633 29.2068 17.4126 29.1086L17.3491 29.0453H17.3047C17.2666 29.0453 17.2222 29.0611 17.1714 29.096C17.1365 29.1213 17.0952 29.1656 17.0286 29.2448C16.6732 29.6533 15.7307 30.7427 13.4776 31.1829L12.0432 31.3285C10.2439 31.3285 8.89207 30.5843 8.59695 29.4348C8.05747 27.3226 8.8413 26.0401 10.0091 24.4599C11.3736 22.62 13.9853 21.4863 15.3118 21.2045C15.9782 21.0652 16.9746 20.8973 17.9362 20.8973C18.6248 20.8973 19.177 20.9828 19.58 21.157C20.4558 21.5307 19.8592 22.9272 19.5387 23.6777L19.4721 23.8392C19.1452 24.6277 19.1357 25.7741 19.9005 26.4328C20.1829 26.6829 20.8684 27.1199 22.033 26.9964C23.2421 26.8698 24.8859 26.1953 25.7554 25.8057C26.3171 25.5524 27.0469 25.0964 27.7546 24.6562C28.3797 24.2667 28.97 23.8962 29.3445 23.7347C29.4301 23.6967 29.5095 23.6745 29.5507 23.6429C29.5507 23.6429 29.5349 23.7125 29.2905 23.9025C28.805 24.2762 25.0985 28.3866 24.2448 29.4317C23.4959 30.3532 22.3599 31.813 22.1377 32.098C21.9029 31.9777 20.9826 31.5502 19.9862 31.5502H19.8561C18.9548 31.5882 18.2472 32.0189 18.2472 32.5382C18.2472 33.3489 18.958 33.8777 20.5479 34.2514C20.5479 34.2514 13.4395 46.5288 4.75082 46.5288C-0.177427 46.5288 -0.110786 41.4969 2.70717 41.3544C2.14548 41.4811 1.87892 42.4754 2.94834 42.4754C3.96065 42.4754 4.23991 40.949 2.82458 40.949C-0.507458 40.949 -2.09414 46.9437 5.1697 46.9437C15.2134 46.9437 22.198 34.3591 22.198 34.3591C22.325 34.1501 22.4202 34.0836 22.6201 34.0519C22.9311 34.0044 23.4102 33.8682 23.7244 33.7036C23.864 33.8397 24.3432 34.3527 24.248 34.9924C24.0608 36.2623 23.2294 37.3041 22.4265 38.3143C21.8807 39.0015 21.3634 39.6475 21.0461 40.3537C20.4654 41.6457 20.3575 43.1436 20.7763 44.0873C20.9826 44.5528 21.3031 44.86 21.722 44.993C21.8236 45.0246 21.9378 45.0436 22.0552 45.0436C23.2262 45.0436 25.035 43.4824 25.6506 42.8617C25.6919 42.8174 25.822 42.6812 25.8918 42.6812C25.9236 42.6812 25.9553 42.7636 25.9553 42.9377C25.9553 43.5363 26.352 44.5243 26.9708 44.7111C27.7419 44.936 28.9636 44.2456 30.3028 42.8079C31.6896 41.3195 34.352 37.8361 35.3707 36.0438C35.504 35.8063 35.6087 35.7841 35.7102 35.7841H35.7959C35.8975 35.7746 36.0752 35.7651 36.2814 35.7651C37.0875 35.7651 37.573 35.9076 37.646 36.1641C37.8174 36.75 36.8241 37.947 35.8657 39.0997C35.1263 39.9927 34.3584 40.9142 34.0823 41.6077C33.7205 42.5197 33.7459 43.4698 34.1489 44.1538C34.3489 44.4926 34.6186 44.7079 34.8883 44.7428C35.7293 44.8568 36.8876 44.0524 38.4742 42.1176L38.8074 41.7122C40.5242 39.6222 42.1458 37.6493 43.1835 36.6455C43.8563 35.9931 44.4846 35.7619 44.8718 35.7619C45.0241 35.7651 45.2113 35.8316 45.2938 35.9646C45.3573 36.0723 45.3446 36.2116 45.2589 36.3826C45.0463 36.7943 44.5639 37.434 44.0054 38.175L43.6627 38.631C43.485 38.8685 43.2787 39.125 43.0629 39.3942C41.8031 40.9649 40.2323 42.9187 41.5239 44.3818C42.1236 45.0563 43.4628 44.4419 45.7127 42.4247C45.8016 42.3456 45.8936 42.2632 45.9539 42.2189C45.9412 42.3012 45.9063 42.4374 45.8872 42.5134C45.6778 43.3273 45.9634 44.1189 46.6171 44.5306C46.7504 44.6161 46.9376 44.7111 47.2137 44.7111C47.677 44.7111 48.2768 44.4356 49.0479 43.8656C50.4664 42.8237 53.259 39.9009 53.9444 38.8527C54.1094 38.6025 54.2173 38.4822 54.2935 38.4822C54.3189 38.4822 54.3443 38.4917 54.3792 38.5043C54.4173 38.5202 54.468 38.536 54.5283 38.5423C54.6553 38.555 54.944 38.574 55.2455 38.574C55.547 38.574 55.785 38.555 55.95 38.517C56.0293 38.498 56.1436 38.4758 56.2483 38.4663C56.2483 38.4758 56.242 38.536 56.0547 38.7608C55.493 39.4417 53.5255 42.5482 54.9282 44.2361C55.1503 44.5053 55.4708 44.6414 55.8707 44.6414C57.2257 44.6414 59.1329 43.1088 59.4407 42.7794C59.5423 42.6717 59.7295 42.4691 59.7644 42.4532C59.7707 42.4659 59.7961 42.5229 59.7644 42.8111C59.6978 43.4191 59.958 44.1854 60.5133 44.4134C60.6434 44.4673 60.8465 44.5401 61.1004 44.5401C61.7985 44.5401 62.595 44.0144 63.5312 42.9377C65.2289 40.9775 68.2373 37.491 68.7228 36.8671C69.3353 36.0786 70.0588 35.6923 70.6015 35.8886C70.7157 35.9298 70.7855 35.9963 70.8141 36.0913C70.941 36.4966 70.3349 37.3548 69.9319 37.9216C69.7319 38.2067 69.1449 39.03 68.4658 39.98C67.2504 41.6869 65.7367 43.8118 65.6193 43.9859C65.5494 44.0968 65.3908 44.3659 65.4765 44.5274C65.4955 44.5623 65.5463 44.6256 65.6605 44.6256C65.8668 44.6256 66.9553 44.4958 67.0029 44.4894H67.0441L67.0631 44.4483C67.0631 44.4451 67.2313 44.1158 68.0025 43.0898L68.5166 42.4026C69.3829 41.2372 70.5697 39.6412 71.4329 38.6943C72.1913 37.8615 74.0541 35.9234 75.0061 35.9234C75.0473 35.9234 75.0886 35.9266 75.1267 35.9361C75.2282 35.9583 75.2917 36.0058 75.3171 36.0786C75.4758 36.4903 74.6316 37.6588 73.8859 38.688C73.6669 38.992 73.448 39.296 73.2512 39.581C73.1465 39.7362 73.0354 39.8914 72.9275 40.0497C72.2929 40.9522 71.6392 41.8864 71.5916 42.7889C71.563 43.3621 71.7788 43.8593 72.2484 44.3089C72.5436 44.5908 72.9942 44.6098 73.3083 44.5844C73.87 44.5433 74.3651 44.2741 74.73 44.0429C76.066 43.2038 77.0466 42.2031 77.3956 41.6236C77.475 41.4906 77.4972 41.4051 77.4718 41.3449M21.7284 32.6807C21.6966 32.7314 21.5602 32.9151 21.4078 33.1177C21.2238 33.3647 21.0175 33.6402 20.9445 33.7511C20.9223 33.7859 20.8715 33.8144 20.7287 33.8239C20.532 33.8176 20.2337 33.7416 19.672 33.5611C19.0342 33.3584 18.5518 32.8549 18.6375 32.4875C18.6851 32.2754 18.9929 32.0727 19.4181 31.9745C19.5768 31.9365 19.7482 31.9175 19.9354 31.9175C20.8208 31.9175 21.7061 32.3482 21.7157 32.3545C21.7696 32.3799 21.8013 32.4084 21.8109 32.4432C21.8299 32.5097 21.7728 32.6047 21.7284 32.6807ZM23.4515 33.3584C23.4229 33.4439 23.0993 33.5484 22.9406 33.6022C22.8454 33.6339 22.7407 33.6687 22.7121 33.7004C22.7121 33.6877 22.7248 33.6371 22.8676 33.4439C22.9406 33.3394 23.1024 33.1019 23.0993 33.0956C23.223 33.0101 23.3309 33.1716 23.4198 33.3014L23.4515 33.3584ZM35.4627 35.0969C35.4056 35.1856 35.358 35.2173 35.2945 35.1919C35.2469 35.1318 35.212 34.9798 35.2469 34.8278C35.304 34.5713 35.6912 34.0582 35.8054 34.0519C35.8879 34.1342 35.6499 34.8214 35.4659 35.0969H35.4627ZM54.2713 37.6683C54.1602 37.8393 54.0872 37.8583 54.0587 37.8583C54.0301 37.8583 54.0079 37.8425 53.9825 37.8108C53.827 37.6145 53.7033 36.9716 53.8651 36.4143C54.0841 35.6479 54.5569 35.3376 54.8393 35.1508L54.9123 35.1033C54.9885 35.0526 55.0646 35.0241 55.1249 35.0241C55.1789 35.0241 55.2011 35.0463 55.2169 35.0653C55.2519 35.1096 55.2963 35.2363 55.2074 35.5688C55.0329 36.2401 54.4649 37.3706 54.2713 37.6683ZM59.2916 42.3519C58.1047 43.4761 56.8163 44.2044 56.0103 44.2044C55.7437 44.2044 55.5279 44.1253 55.3756 43.9733C54.8139 43.4064 56.0833 41.2372 57.4605 39.3973C58.1555 38.4663 59.9992 35.9931 61.5351 35.9931C61.6906 35.9931 61.8398 36.0184 61.9794 36.0691C62.3507 36.2021 62.5982 36.4333 62.7156 36.7563C62.8902 37.2376 62.7347 37.7823 62.5474 38.1022C62.5316 38.1275 60.9734 40.7527 59.2884 42.3519H59.2916Z" fill="white"/>
<path d="M33.019 31.7162C32.762 32.0741 32.5779 32.6156 32.7207 32.9607C32.7906 33.1349 32.9365 33.2426 33.146 33.2774C33.1841 33.2837 33.2221 33.2869 33.2602 33.2869C33.787 33.2869 34.409 32.7359 34.6565 32.3401C34.9929 31.7954 35.0151 31.3964 34.7231 31.1525C34.6184 31.0639 34.4629 31.0195 34.2789 31.0195C33.9266 31.0195 33.384 31.2 33.0222 31.7162" fill="white"/>
<path d="M40.6131 0.8966C40.6321 0.997935 40.648 1.0486 40.648 1.18794C40.648 1.32728 40.6987 1.19427 40.6987 1.06127C40.6987 0.928267 40.5877 0.763597 40.6131 0.8966ZM40.7463 0.928267C40.759 1.21011 40.8003 1.00744 40.7876 0.874433C40.7749 0.74143 40.74 0.842766 40.7463 0.928267ZM41.1621 2.35013C41.1621 2.35013 41.2224 2.33746 41.1874 2.23296C41.1525 2.12846 41.1462 2.10946 41.1462 2.10946C41.1462 2.10946 41.0986 1.87829 41.0986 1.99229C41.0986 2.09679 41.1049 2.18863 41.1367 2.26779L41.1684 2.34696L41.1621 2.35013ZM40.6861 0.19992C40.6607 0.193586 40.6385 0.19042 40.6194 0.19042C40.5686 0.19042 40.6162 0.193586 40.6861 0.19992ZM42.4028 3.65165C42.3616 3.66115 42.2918 3.61682 42.0982 3.61682C41.9046 3.61682 41.6127 3.57249 41.5016 3.54715C41.1494 3.46798 41.4667 3.61999 41.5683 3.65799C41.6698 3.69599 41.9046 3.68015 42.0696 3.69599C42.2347 3.71182 42.4473 3.63899 42.406 3.64849L42.4028 3.65165ZM41.1874 1.81178C41.2065 1.93845 41.2414 1.79278 41.2192 1.70728C41.1938 1.62178 41.1589 1.55528 41.1589 1.43811C41.1589 1.32094 41.1398 1.02327 41.1335 1.22594C41.1271 1.37161 41.1081 1.43811 41.1462 1.58695C41.1811 1.73262 41.1716 1.68512 41.1874 1.81178ZM40.9431 1.15944C40.9114 1.30511 40.9304 1.29244 40.9304 1.41594C40.9304 1.53945 40.9241 1.53945 40.9241 1.53945C40.9241 1.53945 40.9304 1.55845 40.9621 1.60595C40.9939 1.65345 41.0288 1.64711 41.0002 1.52045C40.9685 1.39378 41.0193 1.29561 41.0256 1.21011C41.0542 0.795265 40.9748 1.01377 40.9463 1.16261L40.9431 1.15944ZM44.7258 5.98237C44.7258 5.98237 44.7353 5.9602 44.7384 5.9507C44.7829 5.8557 44.8051 5.83986 44.8876 5.85886C44.9828 5.87786 45.0748 5.90636 45.17 5.92536C45.1922 5.9317 45.2208 5.9317 45.243 5.92536C45.2557 5.9222 45.2811 5.89686 45.2779 5.8842C45.2779 5.86203 45.2621 5.83036 45.2462 5.82086C45.2208 5.8082 45.1891 5.81136 45.1637 5.8082C45.2049 5.78603 45.2525 5.78603 45.2906 5.77336C45.316 5.76386 45.3509 5.72903 45.3287 5.69419C45.3097 5.66253 45.3192 5.58653 45.2589 5.60236C45.1637 5.62453 45.0717 5.64986 44.9764 5.67203C44.9511 5.67836 44.9225 5.67203 44.8908 5.66886C44.913 5.62136 44.9289 5.58653 44.9479 5.55169C44.9733 5.50736 45.0018 5.46936 45.0209 5.42186C45.0304 5.39652 45.0336 5.34585 45.0209 5.33002C44.9923 5.29835 44.9574 5.31735 44.932 5.35535C44.9257 5.36485 44.9225 5.37435 44.9162 5.38385C44.8876 5.44402 44.8559 5.50419 44.8273 5.56119C44.8019 5.61186 44.7829 5.68469 44.748 5.70053C44.6972 5.72269 44.6306 5.71003 44.5734 5.70053C44.4846 5.68469 44.3926 5.65936 44.3037 5.64036C44.2624 5.63086 44.2212 5.61503 44.1768 5.60869C44.1387 5.60236 44.1006 5.60236 44.0625 5.59919C44.1863 5.54852 44.3069 5.52319 44.4306 5.48836C44.5385 5.45986 44.6432 5.42186 44.7511 5.39652C44.7892 5.38702 44.7987 5.36802 44.7956 5.32685C44.7892 5.27302 44.7543 5.28569 44.7289 5.28569C44.7099 5.28569 44.694 5.30152 44.675 5.30469C44.5354 5.33319 44.4052 5.39335 44.2624 5.39019L44.2529 5.41552C44.2529 5.41552 44.2466 5.40602 44.2402 5.40285C44.2466 5.39969 44.2529 5.39652 44.2624 5.39019C44.2688 5.36485 44.2751 5.33319 44.2878 5.31102C44.31 5.27302 44.3418 5.24452 44.3672 5.20652C44.3735 5.19385 44.3735 5.17485 44.3767 5.15902C44.3608 5.15902 44.3354 5.14318 44.3259 5.15268C44.2561 5.21918 44.1895 5.28569 44.1228 5.35535C44.0308 5.45669 43.8277 5.53586 43.6817 5.51052C43.7071 5.48836 43.7261 5.47569 43.7388 5.45986C43.7706 5.42185 43.8023 5.38385 43.8309 5.34269C43.8372 5.33319 43.8372 5.30785 43.8309 5.29835C43.8245 5.28569 43.8023 5.27935 43.7928 5.28252C43.7706 5.29202 43.7484 5.30469 43.7293 5.32369C43.6785 5.37119 43.6341 5.42502 43.5802 5.46619C43.5548 5.48836 43.5135 5.50102 43.485 5.49469C43.3485 5.45352 43.2121 5.42185 43.0566 5.42502C43.0883 5.33319 43.1169 5.26035 43.1581 5.15268C43.1105 5.18118 43.0788 5.19068 43.0661 5.20968C43.0439 5.24452 43.0248 5.28885 43.0121 5.33319C42.9994 5.36802 42.9899 5.39652 42.9518 5.39019C42.9138 5.38385 42.9201 5.35535 42.9169 5.32685C42.9169 5.28569 42.8884 5.26985 42.8693 5.29519C42.7963 5.38702 42.7297 5.36485 42.6535 5.30152C42.6758 5.26985 42.698 5.24452 42.717 5.21918C42.7583 5.16535 42.7234 5.14002 42.6916 5.11468C42.6567 5.17802 42.6218 5.24135 42.5837 5.30152C42.5774 5.31102 42.5552 5.31735 42.5457 5.31419C42.4568 5.26669 42.3616 5.28252 42.2696 5.26035C42.2378 5.22235 42.1871 5.21602 42.1299 5.22552C42.0696 5.21285 42.0062 5.20335 41.9459 5.18752C41.9237 5.18118 41.8983 5.17485 41.8729 5.17168C41.9173 5.08935 41.9681 4.98485 41.9998 4.94051C42.0601 4.86134 42.2854 4.58901 42.2854 4.58901L42.3013 4.54467C42.3172 4.50034 42.3489 4.55417 42.3489 4.55417L42.3648 4.475C42.3775 4.39583 42.4219 4.4275 42.4282 4.36417C42.4346 4.30083 42.4473 4.2565 42.4663 4.27233C42.46 4.2185 42.5044 4.29133 42.4854 4.13616C42.5203 4.13616 42.6758 4.12033 42.7392 4.09183C42.8027 4.06333 42.9138 4.02849 42.9804 3.93983C43.0343 3.89549 43.1264 3.83849 43.1264 3.83849C43.1264 3.83849 43.1613 3.83849 43.1295 3.80049C43.1549 3.75299 43.3707 3.66749 43.4818 3.63899C43.5929 3.61049 43.7325 3.61365 43.7769 3.55982C43.8055 3.52498 43.9768 3.53132 44.0816 3.50598C44.1831 3.48065 44.3418 3.45215 44.4433 3.43632C44.5449 3.42048 44.6782 3.44582 44.786 3.44582C44.8939 3.44582 45.1669 3.49015 45.2716 3.48065C45.3097 3.50915 45.5953 3.51865 45.7571 3.54082C45.9189 3.55982 46.0617 3.54082 46.1601 3.47748C46.1125 3.45848 46.1347 3.40465 45.9792 3.36031C45.8237 3.31598 45.4366 3.23365 45.1922 3.18298C45.3795 3.18298 45.7761 3.19881 45.8682 3.16398C45.9602 3.12914 45.8491 3.06581 45.7158 3.03097C45.5826 2.99614 45.4747 2.96131 45.3192 2.94231C45.1637 2.92331 44.6179 2.85047 44.4973 2.8283C44.3767 2.80614 44.4782 2.78397 44.5449 2.78397C44.4751 2.73964 44.1482 2.70164 44.0498 2.6763C43.9515 2.65097 43.98 2.64147 44.0117 2.63197C43.9737 2.56863 43.65 2.47996 43.5326 2.45146C43.4151 2.42296 43.4437 2.41346 43.4945 2.40396C43.4056 2.40396 43.3326 2.36913 43.0185 2.28679C42.955 2.24246 42.7678 2.20446 42.552 2.13162C42.552 2.13162 42.5615 2.11262 42.571 2.07779C42.4727 2.06829 42.3711 1.93529 42.1902 1.89095C42.1902 1.89095 42.2537 1.88145 42.2442 1.85612C42.1109 1.84029 41.9205 1.69145 41.7936 1.53945C41.6666 1.38744 41.5936 0.754097 41.5524 0.624262C41.5143 0.497592 41.3429 0.212587 41.1557 0.139752C41.1557 0.139752 41.1398 0.114418 41.1938 0.120752C40.9304 -0.0597518 40.4798 -0.00275069 40.3402 0.101751C40.2672 0.120752 40.1688 0.171419 40.0895 0.317089C40.026 0.345589 39.88 0.396257 39.7912 0.478592C39.7816 0.503926 39.6135 0.54826 39.5373 0.589428C39.458 0.633762 39.3564 0.716097 39.331 0.788931C39.3469 0.779431 39.5373 0.807932 39.5817 0.807932C39.6261 0.807932 39.8356 0.788931 39.88 0.782598C39.9244 0.776264 39.972 0.766764 40.0704 0.807932C40.1148 0.842766 40.1942 0.858599 40.2069 0.871266C40.2227 0.8871 40.2672 0.925101 40.2894 0.953601C40.3148 0.982102 40.3084 0.982102 40.3275 1.06444C40.3465 1.14677 40.3528 1.09294 40.3751 1.14677C40.4004 1.20061 40.4036 1.21961 40.3909 1.26394C40.3751 1.30827 40.3814 1.37161 40.3719 1.46344C40.3624 1.55528 40.356 1.89729 40.3433 2.02396C40.3592 2.05246 40.3592 2.06829 40.3497 2.12529C40.3655 2.17913 40.3687 2.26779 40.3782 2.30263C40.3878 2.33746 40.3687 2.44513 40.3655 2.4768C40.3592 2.51163 40.4036 2.6003 40.4195 2.63197C40.4354 2.6668 40.448 2.76497 40.448 2.7998C40.448 2.83464 40.4861 2.86947 40.502 2.93597C40.5147 3.00564 40.5496 3.08164 40.5496 3.04681C40.5496 3.01197 40.594 3.08164 40.6131 3.11648C40.6321 3.15131 40.6829 3.21781 40.7019 3.27165C40.721 3.32548 40.8035 3.35081 40.813 3.39515C40.8225 3.43948 40.9018 3.46482 40.9241 3.48698C40.9494 3.51232 41.0415 3.59782 41.07 3.61365C41.0986 3.62949 41.2319 3.74982 41.2509 3.76566C41.27 3.78149 41.2795 3.84482 41.3049 3.83532C41.3302 3.82582 41.4286 3.92399 41.4413 3.94616C41.4572 3.97149 41.4953 3.99999 41.5397 4.01583C41.5841 4.03166 41.6285 4.095 41.6508 4.1045C41.673 4.114 41.6984 4.14883 41.7142 4.15833C41.7301 4.16783 41.7587 4.19316 41.7936 4.2185C41.8285 4.24383 41.8285 4.30083 41.8285 4.33567C41.8285 4.3705 41.857 4.38317 41.8665 4.45284C41.8665 4.47184 41.8665 4.50034 41.8475 4.56367C41.8189 4.59851 41.784 4.66184 41.7682 4.73467C41.7587 4.75367 41.7333 4.78851 41.6952 4.92468C41.6508 4.96268 41.6412 5.00385 41.6032 5.11468C41.5651 5.22552 41.5587 5.13368 41.5238 5.21602C41.4953 5.25085 41.4159 5.31419 41.3683 5.32369C41.3207 5.33319 41.2795 5.33319 41.1906 5.34269C41.1684 5.33319 41.1748 5.31735 41.1049 5.34269C41.0922 5.32685 41.0796 5.31419 41.0669 5.30152C41.0542 5.28885 41.0319 5.28885 41.0161 5.28252C41.0097 5.30469 41.0002 5.32685 41.0034 5.34585C41.0034 5.35219 41.0034 5.35852 41.0066 5.36802C40.997 5.37752 40.9875 5.38702 40.978 5.40285C40.9653 5.39335 40.9558 5.38702 40.9431 5.38702C40.7908 5.38069 40.6448 5.34902 40.4957 5.31102C40.4385 5.29835 40.3814 5.28569 40.3243 5.27619C40.3116 5.27619 40.2862 5.30152 40.2862 5.31102C40.2862 5.33635 40.2989 5.37119 40.3148 5.37752C40.356 5.39335 40.4004 5.39652 40.4417 5.40602C40.575 5.44086 40.7083 5.47569 40.8479 5.51052C40.7368 5.50102 40.6607 5.50419 40.5877 5.61819C40.5559 5.59919 40.5242 5.57386 40.4893 5.56119C40.448 5.54536 40.4195 5.58019 40.4068 5.61819C40.4004 5.63403 40.4227 5.66886 40.4354 5.68786C40.448 5.70369 40.4671 5.71003 40.4893 5.72269C40.4734 5.73219 40.4576 5.73219 40.4449 5.74169C40.3751 5.80186 40.3211 5.77336 40.264 5.70369C40.1593 5.58019 40.0482 5.46302 40.026 5.27619C40.026 5.26985 40.0196 5.26669 40.0165 5.26035C40.0101 5.20968 39.9847 5.18752 39.9435 5.20335C39.9054 5.21918 39.9086 5.26352 39.9244 5.29202C39.9593 5.35219 39.9403 5.41552 39.9467 5.47886C39.8197 5.44402 39.7023 5.41235 39.5849 5.38385C39.5785 5.38385 39.5627 5.40285 39.5595 5.41552C39.5563 5.43136 39.5563 5.45352 39.5627 5.46619C39.569 5.47886 39.5881 5.48202 39.6008 5.48836C39.6801 5.52319 39.7626 5.57386 39.8451 5.58969C39.972 5.61503 40.0323 5.72903 40.1148 5.82086C40.1212 5.83036 40.1212 5.85886 40.1148 5.8652C40.1053 5.8747 40.0831 5.8842 40.0768 5.87786C40.0165 5.83986 39.953 5.85253 39.8895 5.84303C39.8039 5.83036 39.7182 5.80503 39.6357 5.7797C39.5785 5.76386 39.5627 5.77336 39.5595 5.83986C39.5595 5.8747 39.5595 5.90953 39.5595 5.94437C39.6261 5.95387 39.6833 5.9602 39.7563 5.9697C39.7563 5.9697 39.7563 5.9697 39.7563 5.97287H37.4111V6.1787C38.2108 6.56504 38.2521 6.94822 38.2521 7.67657V13.725C38.2521 14.922 39.7309 15.2134 40.429 15.3179C41.0827 15.4192 42.2632 15.6124 42.46 16.2742C42.479 16.3376 42.498 16.3407 42.5139 16.2806C42.7075 15.6124 43.8912 15.4192 44.548 15.3179C45.2462 15.2102 46.725 14.9189 46.725 13.725V7.67657C46.725 6.94822 46.7662 6.56188 47.5659 6.1787V5.97287H44.7067L44.7258 5.98237ZM44.6718 5.8747C44.6464 5.91586 44.6401 5.92536 44.6337 5.93486C44.6242 5.9507 44.6147 5.96653 44.6083 5.98237H44.2053C44.3608 5.9412 44.51 5.9412 44.6718 5.8747ZM43.6087 5.69419C43.7166 5.64353 43.8245 5.65303 43.9324 5.67836C44.0784 5.71636 44.2275 5.73853 44.3799 5.7702C44.2593 5.79553 44.1387 5.83353 44.0181 5.84936C43.907 5.86203 43.7991 5.8842 43.6912 5.91586C43.6627 5.92536 43.6341 5.9222 43.6056 5.91586C43.5548 5.9032 43.504 5.88736 43.4342 5.8652C43.4754 5.77336 43.5326 5.72586 43.6119 5.69103L43.6087 5.69419ZM43.1105 5.52636C43.2184 5.56436 43.339 5.56436 43.4596 5.59603C43.3866 5.62136 43.3168 5.64986 43.2438 5.67203C43.2152 5.68153 43.1994 5.65936 43.1994 5.62136C43.1994 5.55486 43.1613 5.56119 43.1264 5.57069C43.0851 5.58019 43.047 5.59602 43.0058 5.60869C43.0248 5.53902 43.0407 5.50102 43.1105 5.52319V5.52636ZM43.339 5.7702C43.339 5.7702 43.3263 5.77653 43.3199 5.78286C43.3073 5.8272 43.285 5.85886 43.247 5.84936C43.2216 5.8462 43.1962 5.82086 43.1771 5.78286H43.3199C43.3199 5.77336 43.3263 5.76703 43.3295 5.75753C43.3326 5.76069 43.3358 5.76703 43.339 5.7702ZM43.0153 5.9412C43.0534 5.95387 43.0883 5.9602 43.1264 5.97287C43.1264 5.97287 43.1327 5.9792 43.1327 5.98237H42.8566C42.8947 5.91586 42.9265 5.9127 43.0153 5.9412ZM42.8249 5.53269C42.8566 5.43135 42.9011 5.48519 42.9518 5.51052C42.9233 5.66253 42.8249 5.65619 42.7107 5.68153C42.7583 5.62136 42.8059 5.58336 42.8217 5.53269H42.8249ZM42.6091 5.44086C42.6282 5.44086 42.6504 5.42502 42.6726 5.43136C42.698 5.43769 42.7329 5.45352 42.7424 5.47886C42.7487 5.49786 42.7265 5.53586 42.7107 5.56436C42.6853 5.61186 42.6535 5.65936 42.6091 5.72903V5.44086ZM42.6091 5.86836C42.6345 5.87786 42.6567 5.88103 42.6758 5.8937C42.7107 5.9127 42.7773 5.84936 42.7805 5.94437C42.7805 5.9602 42.7805 5.97287 42.7773 5.98553H42.6091V5.86836ZM42.3933 5.57702C42.3933 5.67519 42.3711 5.70369 42.3013 5.67203C42.2442 5.64353 42.1871 5.64669 42.1299 5.64036C42.0982 5.63719 42.0696 5.61819 42.0379 5.60869C42.0379 5.60236 42.0443 5.59286 42.0474 5.58652C42.1585 5.56119 42.2696 5.53586 42.3902 5.50736V5.58019L42.3933 5.57702ZM42.3648 5.9792C42.3648 5.9792 42.3648 5.9792 42.3648 5.98237H42.1109C42.1902 5.9602 42.2727 5.9412 42.3521 5.91903C42.3584 5.94437 42.3679 5.96337 42.3648 5.97603V5.9792ZM42.1363 5.33002C42.1998 5.34269 42.2664 5.35852 42.3394 5.37752C42.314 5.39969 42.2981 5.42185 42.2823 5.42502C42.2632 5.42502 42.241 5.43136 42.222 5.43452C42.2029 5.41235 42.168 5.39335 42.1141 5.38385C42.1236 5.38069 42.1395 5.36485 42.1363 5.33319V5.33002ZM42.1268 5.45352C42.095 5.46302 42.0633 5.47252 42.0347 5.47886C42.0347 5.47886 42.0347 5.47569 42.0347 5.47252C42.0665 5.44719 42.0982 5.44402 42.1299 5.45352H42.1268ZM42.0633 5.39019C42.0347 5.41869 41.9998 5.40602 41.9935 5.43136C41.9935 5.47569 41.9554 5.48836 41.9173 5.46619C41.8792 5.44402 41.8792 5.51686 41.838 5.47569C41.7999 5.43452 41.8063 5.45036 41.8507 5.44086C41.8761 5.43769 41.9015 5.42502 41.9395 5.40919C41.9776 5.39335 42.0125 5.37752 42.0633 5.39019ZM41.9586 5.29519C41.8983 5.31735 41.9173 5.26669 41.8031 5.28569C41.8094 5.28569 41.8158 5.27619 41.8221 5.26985C41.8665 5.27619 41.911 5.28569 41.9586 5.29519ZM41.527 3.78149C41.3334 3.70865 41.1589 3.57565 40.9843 3.40465C40.8066 3.23365 40.9018 3.15131 40.8606 2.91064C40.8193 2.67313 40.721 2.72697 40.6385 2.6858C40.5559 2.64463 40.5623 2.60347 40.5083 2.21396C40.4544 1.82445 40.5242 1.47928 40.5655 1.24177C40.6067 1.00427 40.521 0.934601 40.4322 0.826932C40.3465 0.719263 40.2513 0.747764 40.1307 0.719263C40.0101 0.690763 39.6452 0.750931 39.5024 0.757264C39.6737 0.678096 40.0958 0.665429 40.1656 0.630595C40.0546 0.605261 39.5944 0.700263 39.4453 0.744597C39.5246 0.684429 39.6896 0.592594 39.7975 0.55776C39.7943 0.560927 39.7912 0.564094 39.7912 0.564094C39.9022 0.56726 40.0165 0.614761 40.0895 0.573594C40.0196 0.54826 39.9149 0.526093 39.88 0.507093C39.9308 0.450091 40.0196 0.402591 40.1053 0.38359C40.2069 0.361423 40.1878 0.320256 40.2037 0.244254C40.2196 0.165086 40.3719 0.120752 40.3719 0.120752C40.3719 0.120752 40.3846 0.117585 40.4417 0.111252C40.4988 0.108085 40.5972 0.0985846 40.7463 0.0384168C40.8955 -0.0217511 41.0891 0.104918 40.959 0.0922512C40.8542 0.082751 40.9812 0.155586 41.0986 0.22842C41.2128 0.282255 41.3334 0.320256 41.3747 0.481759C41.3398 0.450091 41.2922 0.402591 41.2382 0.358256C41.289 0.465925 41.2953 0.630595 41.3366 0.788931C41.3905 0.997935 41.3398 1.08027 41.3461 1.27661C41.3493 1.47294 41.4286 1.70728 41.4572 1.80545C41.4857 1.90362 41.5556 1.86562 41.5492 1.81495C41.5492 1.79595 41.5492 1.78328 41.5587 1.77062C41.4794 1.58378 41.4032 1.30827 41.4254 1.12144C41.454 0.871266 41.4794 0.855433 41.4254 0.697096C41.5143 0.826932 41.5048 1.46344 41.6254 1.76112C41.6317 1.76428 41.6412 1.77062 41.6476 1.77695C41.692 1.81812 41.7206 1.78962 41.7237 1.74845C41.6698 1.62178 41.6222 1.42544 41.6285 1.29244C41.6603 1.45078 41.7079 1.57745 41.7999 1.67245C41.8031 1.67245 41.8063 1.67245 41.8094 1.67245C41.838 1.68195 41.9744 1.79912 42.0157 1.82128C42.0569 1.84029 42.2918 2.01762 42.3457 2.05879C42.3997 2.09996 42.6504 2.22346 42.7519 2.24879C42.8535 2.27413 43.1549 2.42296 43.4152 2.45463C43.6754 2.4863 43.9705 2.6478 43.8626 2.66047C43.7547 2.67313 44.4211 2.77447 44.3513 2.78714C44.2815 2.7998 44.3957 2.84414 44.4814 2.86631C44.5671 2.88847 45.5445 3.07214 45.5223 3.09114C45.5032 3.11331 45.2018 3.11964 45.1066 3.13231C45.0114 3.14498 44.31 3.21148 44.1609 3.21781C44.0117 3.22731 43.3263 3.27798 43.0502 3.24315C43.1295 3.18614 43.0756 3.12281 43.047 3.15764C42.7297 3.50282 42.1141 3.26848 41.9078 3.20198C42.2823 3.55665 42.8566 3.40465 42.9867 3.32231C43.1454 3.36665 43.504 3.31915 43.6278 3.28431C43.7515 3.25265 44.1419 3.28115 44.3608 3.23365C44.5798 3.18931 44.694 3.24315 44.913 3.21465C45.1319 3.18614 45.2081 3.24631 45.316 3.25581C45.4207 3.26531 45.7063 3.39832 45.5572 3.39515C45.408 3.39198 45.0558 3.35715 44.8908 3.33815C44.7258 3.31915 44.6179 3.32231 44.4497 3.31281C44.2815 3.30331 44.0498 3.36348 43.7864 3.35398C43.523 3.34448 43.0756 3.44265 42.9645 3.44898C42.8535 3.45215 42.8566 3.56932 42.7138 3.60099C42.5679 3.63265 42.4885 3.89549 42.4695 3.90816C42.4536 3.92083 42.3838 4.05383 42.3203 4.19633C42.26 4.33883 42.241 4.42117 42.1363 4.43067C42.0284 4.44017 42.0347 4.3515 42.0125 4.209C41.9935 4.06649 41.9713 4.04433 41.9015 3.97149C41.8316 3.89866 41.7174 3.85116 41.5238 3.77832L41.527 3.78149ZM41.9015 4.82334C41.9205 4.77901 42.0062 4.62701 42.0284 4.54467C42.0284 4.54467 42.0665 4.5225 42.0792 4.5605C42.0919 4.59534 42.0347 4.64917 42.0189 4.68401C42.003 4.71567 41.9998 4.71884 41.9681 4.78218C41.9364 4.84551 41.8856 4.92151 41.8126 4.99751C41.8285 4.96901 41.8856 4.86768 41.9015 4.82334ZM41.7587 5.07668C41.8031 5.02601 41.8221 5.08302 41.8221 5.12102C41.8221 5.14002 41.8094 5.14635 41.7936 5.15268C41.765 5.14952 41.7396 5.14635 41.7142 5.14318C41.7237 5.12418 41.7364 5.10202 41.7587 5.07668ZM41.6285 5.27935C41.6381 5.25085 41.6476 5.23818 41.6603 5.22868C41.6666 5.23818 41.6793 5.24768 41.6984 5.25085C41.7015 5.25085 41.7047 5.25085 41.7079 5.25085C41.6984 5.26669 41.7079 5.26669 41.7206 5.28885C41.7269 5.30152 41.7174 5.30785 41.7047 5.31419C41.692 5.31419 41.6793 5.31735 41.6666 5.32369C41.6412 5.33319 41.619 5.34269 41.5936 5.35219C41.6063 5.33635 41.619 5.31102 41.6285 5.27935ZM41.5968 5.47252C41.5968 5.47252 41.5905 5.49786 41.5841 5.48202C41.5905 5.48202 41.5936 5.47569 41.6 5.47252H41.5968ZM41.6412 5.68469C41.6698 5.68153 41.7047 5.70686 41.7364 5.71319C41.8919 5.74169 42.0506 5.76703 42.2061 5.79236C42.2061 5.7987 42.2061 5.80503 42.2061 5.81453C42.022 5.8557 41.8412 5.90003 41.6571 5.9412C41.6444 5.9412 41.6317 5.9507 41.6222 5.94437C41.5968 5.9317 41.5016 5.7892 41.4762 5.73536C41.5302 5.71953 41.5873 5.69419 41.6412 5.68786V5.68469ZM41.3683 5.82086C41.4032 5.86836 41.4413 5.9127 41.4826 5.96653C41.473 5.97287 41.4635 5.9792 41.454 5.98553H41.1716C41.1081 5.9507 41.0415 5.9032 40.9717 5.8652C41.0859 5.8367 41.1779 5.81136 41.2731 5.7892C41.308 5.7797 41.3398 5.78603 41.3652 5.82403L41.3683 5.82086ZM41.3176 5.45986C41.2953 5.46619 41.2763 5.46619 41.2573 5.46619C41.2763 5.46619 41.2985 5.46302 41.3176 5.45986ZM41.197 5.64986C41.216 5.63086 41.2255 5.64986 41.235 5.67203C41.2097 5.67836 41.1843 5.68786 41.1589 5.69419C41.1652 5.68153 41.1811 5.66569 41.197 5.64986ZM41.051 5.42819C41.051 5.42819 41.0542 5.43769 41.0573 5.44402C41.0478 5.44086 41.0415 5.43452 41.0351 5.43136C41.0383 5.43136 41.0446 5.43136 41.051 5.43136V5.42819ZM41.1113 5.65619C41.1113 5.65619 41.1303 5.65619 41.143 5.65303C41.1335 5.67519 41.1303 5.69103 41.1367 5.70369C41.0351 5.73219 40.9367 5.7607 40.8384 5.7892C40.9241 5.73853 41.0129 5.68786 41.1113 5.65619ZM40.8796 5.98553H40.6162C40.6575 5.89686 40.7273 5.9412 40.7844 5.92853C40.8257 5.91903 40.8542 5.9507 40.8796 5.98553ZM40.7527 5.58652C40.7908 5.56119 40.7876 5.59602 40.7813 5.64036C40.7813 5.64036 40.7813 5.64669 40.7813 5.64986C40.7527 5.65936 40.7273 5.66569 40.6987 5.67519C40.6765 5.68153 40.6448 5.64986 40.6194 5.63719C40.6194 5.63719 40.6162 5.63719 40.6131 5.63403C40.6448 5.60553 40.7495 5.58969 40.7495 5.58969L40.7527 5.58652ZM40.5052 5.8652C40.5179 5.8937 40.5306 5.9222 40.5433 5.9507C40.5337 5.95387 40.5274 5.95703 40.5083 5.96653C40.4957 5.94437 40.483 5.9222 40.4734 5.89686C40.4734 5.8937 40.4925 5.8747 40.5052 5.8652ZM38.3822 6.97672H38.9978C38.9978 6.97672 38.9946 6.97672 38.9915 6.97672C38.9534 6.99889 38.9058 7.03689 38.8931 7.07172C38.8994 7.06855 38.9915 7.08122 39.0137 7.08122C39.0359 7.08122 39.1343 7.07172 39.1565 7.06855C39.1787 7.06855 39.2009 7.06222 39.2485 7.08122C39.2707 7.09705 39.3056 7.10339 39.3152 7.11289C39.3215 7.11922 39.3437 7.13822 39.3532 7.15406C39.3659 7.16672 39.3628 7.16672 39.3723 7.20789C39.3818 7.24906 39.385 7.22056 39.3945 7.24906C39.4072 7.27439 39.4072 7.28389 39.4008 7.30606C39.3945 7.32823 39.3945 7.35673 39.3913 7.40106C39.3881 7.44539 39.385 7.61006 39.3786 7.67023C39.3786 7.67023 39.3786 7.67023 39.3786 7.67657H38.4361C38.4361 7.41373 38.4298 7.18572 38.379 6.97989L38.3822 6.97672ZM43.1422 7.08439C43.1645 7.08439 43.2628 7.07489 43.285 7.07172C43.3041 7.07172 43.3295 7.06539 43.3771 7.08439C43.3993 7.10022 43.4342 7.10655 43.4437 7.11605C43.4501 7.12239 43.4723 7.14139 43.4818 7.15722C43.4945 7.16989 43.4913 7.16989 43.5008 7.21106C43.5104 7.25222 43.5135 7.22372 43.523 7.25222C43.5357 7.27756 43.5389 7.28706 43.5294 7.30923C43.523 7.33139 43.5262 7.35989 43.5199 7.40423C43.5167 7.44856 43.5135 7.61323 43.5072 7.6734C43.5072 7.6734 43.5072 7.6734 43.5072 7.67973H40.3973C40.3592 7.65757 40.3179 7.62273 40.2545 7.6069C40.2545 7.6069 40.2862 7.60056 40.2799 7.59106C40.2164 7.58473 40.1244 7.5119 40.0641 7.43906C40.0038 7.36623 39.9689 7.06222 39.9498 7.00205C39.9498 6.99572 39.9467 6.98939 39.9435 6.98305H43.1232C43.1232 6.98305 43.12 6.98305 43.1169 6.98305C43.0788 7.00522 43.0312 7.04322 43.0185 7.07805C43.0248 7.07489 43.1169 7.08755 43.1391 7.08755L43.1422 7.08439ZM44.2275 8.88309C44.2148 8.89892 44.1958 8.93059 44.1895 8.96542C44.1831 8.97492 44.1736 8.99076 44.1545 9.05726C44.1323 9.07626 44.1292 9.09526 44.1101 9.14909C44.0911 9.20293 44.0879 9.15859 44.072 9.19976C44.0593 9.2156 44.0213 9.24726 43.9991 9.25043C43.9768 9.25676 43.9578 9.25676 43.9134 9.25993C43.9039 9.25676 43.907 9.24726 43.8658 9.25993C43.8436 9.25993 43.8182 9.25993 43.7991 9.3106C43.8055 9.3011 43.8213 9.28843 43.8467 9.29476V9.31376C43.8467 9.31376 43.834 9.31376 43.815 9.3201C43.7991 9.3201 43.7801 9.3201 43.7642 9.33276H43.285L42.5171 8.78175L41.7491 9.33276H40.2735C40.2767 9.3106 40.2672 9.2821 40.2132 9.2726C40.2196 9.2726 40.2323 9.25993 40.2164 9.22826C40.2354 9.21243 40.2926 9.2251 40.3084 9.2536C40.3021 9.17126 40.2227 9.1871 40.1593 9.21876C40.099 9.25043 40.1275 9.21243 40.0609 9.2251C40.0863 9.2156 40.1371 9.09526 40.1624 9.05726C40.191 9.01926 40.2989 8.88942 40.2989 8.88942L40.3052 8.86726C40.3116 8.84509 40.3275 8.87359 40.3275 8.87359L40.3338 8.83559C40.3402 8.79759 40.3624 8.81342 40.3655 8.78175C40.3655 8.75009 40.3751 8.73109 40.3846 8.73742C40.3846 8.71209 40.4036 8.74692 40.3941 8.67408C40.41 8.67408 40.4861 8.66775 40.5179 8.65192C40.5274 8.64875 40.5401 8.64242 40.5559 8.63608H44.0974C44.0974 8.63608 44.1228 8.66142 44.1292 8.66459C44.1419 8.66775 44.1514 8.68675 44.1577 8.68992C44.1672 8.69309 44.1799 8.70575 44.1958 8.71842C44.2117 8.73109 44.2117 8.75959 44.2117 8.77542C44.2117 8.79125 44.2244 8.79759 44.2307 8.83242C44.2307 8.84192 44.2307 8.85459 44.2212 8.88626L44.2275 8.88309ZM44.2402 9.00342C44.2497 8.98126 44.291 8.90842 44.3005 8.87042C44.3005 8.87042 44.3196 8.86092 44.3259 8.87676C44.3323 8.89259 44.3037 8.91792 44.2973 8.93376C44.291 8.94959 44.2878 8.94959 44.272 8.98126C44.2561 9.01293 44.2307 9.04776 44.199 9.08576C44.2053 9.06993 44.2339 9.02243 44.2402 9.00342ZM38.4361 10.9921V10.2923H40.4131L39.4453 10.9921H38.4393H38.4361ZM39.2612 11.122L38.4361 11.7173V11.122H39.2612ZM38.4361 10.1593V9.4626H41.5651L40.594 10.1593H38.433H38.4361ZM40.172 9.3106C40.2037 9.28843 40.2354 9.30426 40.2576 9.3296H40.1751C40.1751 9.3296 40.1751 9.31693 40.1751 9.3106H40.172ZM40.0641 9.08259C40.0641 9.08259 40.099 9.01926 40.1085 9.00026C40.118 8.97809 40.1593 8.90526 40.1688 8.86726C40.1688 8.86726 40.1878 8.85776 40.1942 8.87359C40.2005 8.88942 40.172 8.91476 40.1656 8.93059C40.1593 8.94642 40.1561 8.94642 40.1434 8.97809C40.1275 9.00976 40.1022 9.04459 40.0704 9.08259H40.0641ZM40.7114 8.49675C40.74 8.47458 40.8257 8.43975 40.8733 8.42708C40.9272 8.41441 40.9939 8.41441 41.0129 8.38908C41.0256 8.37325 41.1081 8.37641 41.1589 8.36375C41.2097 8.35108 41.2826 8.33841 41.3334 8.33208C41.3842 8.32574 41.4445 8.33525 41.4984 8.33525C41.5524 8.33525 41.6825 8.35741 41.7301 8.35108C41.7491 8.36691 41.8856 8.37008 41.9617 8.37958C42.0379 8.38908 42.1077 8.37958 42.1553 8.34791C42.1331 8.33841 42.1426 8.31308 42.0696 8.29091C41.9935 8.26874 41.8094 8.23074 41.692 8.20541C41.7809 8.20541 41.9713 8.21174 42.0157 8.19591C42.0601 8.18008 42.0062 8.14841 41.9427 8.13258C41.8792 8.11674 41.8285 8.10091 41.7523 8.09141C41.6761 8.08191 41.4159 8.04707 41.3588 8.03757C41.3017 8.02807 41.3493 8.01541 41.381 8.01541C41.3493 7.99324 41.1906 7.97424 41.143 7.96474C41.0954 7.95207 41.1113 7.9489 41.124 7.94257C41.1049 7.9109 40.9494 7.86974 40.8955 7.85707C40.8384 7.8444 40.8542 7.83807 40.8765 7.8349C40.8415 7.8349 40.8098 7.82224 40.7083 7.79374H43.5199C43.5199 7.81274 43.5135 7.85707 43.5135 7.8729C43.5135 7.88874 43.5326 7.9299 43.5389 7.9489C43.5453 7.96474 43.5548 8.01224 43.5548 8.02807C43.5548 8.04391 43.5738 8.05974 43.5802 8.09457C43.5865 8.12624 43.6024 8.16424 43.6024 8.14841C43.6024 8.13257 43.6246 8.16424 43.6341 8.18008C43.6436 8.19591 43.6658 8.22758 43.6754 8.25608C43.6849 8.28141 43.723 8.29408 43.7293 8.31308C43.7325 8.33525 43.7706 8.34475 43.7833 8.35741C43.796 8.37008 43.8404 8.41125 43.8531 8.41758C43.8658 8.42391 43.9292 8.48408 43.9388 8.49041H40.7114V8.49675ZM39.9657 8.62975C39.9657 8.62975 39.9911 8.65508 39.9974 8.65825C40.0101 8.66142 40.0196 8.68042 40.0292 8.68359C40.0355 8.68675 40.0514 8.69942 40.0672 8.71209C40.0831 8.72475 40.0831 8.75325 40.0831 8.76909C40.0831 8.78492 40.099 8.79125 40.1022 8.82609C40.1022 8.83559 40.1022 8.84826 40.0926 8.87992C40.0799 8.89576 40.0609 8.92742 40.0546 8.96226C40.0514 8.97176 40.0387 8.98759 40.0196 9.05409C39.9974 9.07309 39.9943 9.09209 39.9752 9.14593C39.9562 9.19976 39.953 9.15543 39.9371 9.1966C39.9244 9.21243 39.8864 9.2441 39.861 9.24726C39.8388 9.2536 39.8197 9.2536 39.7753 9.25676C39.7626 9.2536 39.7689 9.2441 39.7277 9.25676C39.7055 9.25676 39.6801 9.25676 39.6611 9.30743C39.6674 9.29793 39.6833 9.28526 39.7087 9.2916V9.3106C39.7087 9.3106 39.696 9.3106 39.6769 9.31693C39.6611 9.31693 39.642 9.31693 39.623 9.3296H38.4266V8.63292H39.9593L39.9657 8.62975ZM38.433 8.49675V7.80007H39.3881C39.3913 7.81907 39.3818 7.8634 39.3818 7.87924C39.3818 7.89507 39.4008 7.93624 39.4072 7.95524C39.4135 7.97107 39.4199 8.01857 39.4199 8.03441C39.4199 8.05024 39.4389 8.06607 39.4453 8.10091C39.4516 8.13258 39.4675 8.17058 39.4675 8.15474C39.4675 8.13891 39.4897 8.17058 39.496 8.18641C39.5056 8.20224 39.5278 8.23391 39.5373 8.26241C39.5468 8.28774 39.5849 8.30041 39.5912 8.31941C39.5976 8.34158 39.6325 8.35108 39.6452 8.36375C39.6579 8.37641 39.7023 8.41758 39.715 8.42391C39.7277 8.43025 39.7912 8.49041 39.8007 8.49675H38.4266H38.433ZM43.4215 11.1188L44.3926 11.8155H42.2854C42.2664 11.7996 42.2474 11.787 42.2283 11.7775C42.2283 11.7775 42.222 11.7648 42.2474 11.768C42.1204 11.6825 41.9046 11.7078 41.8412 11.7585C41.8158 11.7648 41.784 11.7806 41.7523 11.8155H40.6353L41.6063 11.1188H43.4247H43.4215ZM41.784 10.989L42.5107 10.4665L43.2374 10.989H41.784ZM42.5298 12.4488C42.4695 12.376 42.4346 12.072 42.4155 12.0118C42.4092 11.996 42.3997 11.9738 42.387 11.9516H44.5734L45.5413 12.6483H42.79C42.7678 12.6357 42.7456 12.623 42.717 12.6167C42.717 12.6167 42.7487 12.6103 42.7424 12.6008C42.6789 12.5945 42.5869 12.5217 42.5266 12.4488H42.5298ZM42.6567 13.896C42.6631 13.9119 42.6345 13.9404 42.6282 13.953C42.6218 13.9689 42.6186 13.9689 42.6028 14.0005C42.5869 14.0322 42.5615 14.067 42.5298 14.105C42.5361 14.0892 42.5647 14.0449 42.5742 14.0227C42.5837 14.0005 42.625 13.9277 42.6345 13.8897C42.6345 13.8897 42.6535 13.8802 42.6599 13.896H42.6567ZM41.9459 11.9485C41.9205 11.9833 41.8189 11.9833 41.784 11.9485H41.9459ZM41.5587 11.9485C41.5365 11.9611 41.4794 11.977 41.4477 11.9928C41.4096 12.015 41.362 12.053 41.3493 12.0878C41.3556 12.0815 41.4477 12.0973 41.4699 12.0973C41.4921 12.0973 41.5905 12.0878 41.6127 12.0847C41.6349 12.0847 41.6571 12.0783 41.7047 12.0973C41.7269 12.1132 41.765 12.1227 41.7713 12.129C41.7777 12.1353 41.7999 12.1543 41.8126 12.1702C41.8253 12.1828 41.8221 12.1828 41.8316 12.224C41.8412 12.2652 41.8443 12.2398 41.8539 12.2652C41.8665 12.2905 41.8665 12.3 41.8602 12.3222C41.8539 12.3443 41.857 12.3728 41.8507 12.4172C41.8475 12.4552 41.8443 12.5755 41.838 12.6483H39.477L40.448 11.9516H41.5619L41.5587 11.9485ZM41.8443 12.7782C41.8443 12.7782 41.8475 12.8067 41.8507 12.8162C41.8539 12.832 41.8443 12.8827 41.8443 12.9017C41.8443 12.9175 41.8634 12.9587 41.8697 12.9745C41.8761 12.9903 41.8824 13.0378 41.8824 13.0537C41.8824 13.0695 41.9015 13.0853 41.9078 13.1202C41.9141 13.1518 41.93 13.1898 41.93 13.174C41.93 13.1582 41.9522 13.1898 41.9617 13.2057C41.9713 13.2215 41.9935 13.2563 42.003 13.2817C42.0125 13.307 42.0506 13.3197 42.0569 13.3387C42.0601 13.3608 42.0982 13.3703 42.1109 13.383C42.1236 13.3957 42.168 13.4368 42.1807 13.4432C42.1871 13.4432 42.2029 13.459 42.2188 13.4748H38.4234V13.3988L39.2866 12.7782H41.838H41.8443ZM38.5916 14.3045C38.4837 14.1335 38.4266 13.9435 38.4266 13.7282V13.6078H42.3648C42.3648 13.6078 42.3902 13.63 42.406 13.6363C42.4282 13.6427 42.4473 13.6743 42.46 13.6775C42.4727 13.6807 42.4822 13.6997 42.4917 13.7029C42.498 13.706 42.5139 13.7187 42.5298 13.7314C42.5456 13.744 42.5457 13.7725 42.5457 13.7884C42.5457 13.8042 42.5583 13.8105 42.5647 13.8454C42.5647 13.8549 42.5647 13.8675 42.5552 13.8992C42.5393 13.915 42.5234 13.9467 42.5171 13.9815C42.5139 13.991 42.5012 14.0069 42.4822 14.0734C42.46 14.0924 42.4568 14.1114 42.4378 14.1652C42.4187 14.219 42.4155 14.1747 42.3997 14.2127C42.387 14.2285 42.3489 14.2602 42.3235 14.2634C42.3013 14.2697 42.2823 14.2697 42.2378 14.2729C42.2251 14.2665 42.2315 14.257 42.1902 14.2729C42.1712 14.2729 42.149 14.2729 42.1331 14.3045H38.5885H38.5916ZM42.5076 15.9829C42.2188 15.5744 41.5809 15.378 41.032 15.264H43.98C43.431 15.3749 42.7932 15.5744 42.5044 15.9829H42.5076ZM44.7448 15.1342H40.2672C39.4992 14.9949 38.9756 14.7637 38.69 14.4344H42.2029C42.2029 14.4344 42.2093 14.4439 42.2124 14.4502C42.2124 14.4439 42.2124 14.4407 42.2124 14.4344H42.2569C42.26 14.4375 42.2791 14.4344 42.2981 14.4344H46.3188C46.0332 14.7605 45.5096 14.9917 44.7416 15.1342H44.7448ZM46.5854 13.7282C46.5854 13.9435 46.5282 14.1335 46.4203 14.3045H42.717C42.717 14.3045 42.6948 14.2887 42.6726 14.2855C42.6789 14.2855 42.6884 14.2729 42.6758 14.2444C42.6948 14.2285 42.7519 14.2412 42.7678 14.2697C42.7614 14.1874 42.6821 14.2032 42.6186 14.2349C42.5583 14.2665 42.5869 14.2317 42.5203 14.2412C42.5457 14.2317 42.5964 14.1114 42.6218 14.0734C42.6504 14.0354 42.7583 13.9055 42.7583 13.9055L42.7646 13.8834C42.771 13.8644 42.7868 13.8897 42.7868 13.8897L42.7932 13.8517C42.7995 13.8137 42.8217 13.8264 42.8217 13.7979C42.8217 13.7662 42.8313 13.7472 42.8408 13.7535C42.8408 13.7282 42.8598 13.763 42.8503 13.687C42.8662 13.687 42.9423 13.6807 42.9709 13.6648C42.9963 13.6522 43.0407 13.6363 43.0724 13.6078H46.579V13.7282H46.5854ZM46.5854 13.4748H43.2533C43.2819 13.4622 43.3104 13.4527 43.3326 13.4495C43.3866 13.4368 43.4532 13.4368 43.4723 13.4115C43.485 13.3957 43.5675 13.3988 43.6182 13.3862C43.6658 13.3735 43.742 13.3608 43.7928 13.3545C43.8404 13.3482 43.9039 13.3577 43.9578 13.3577C44.0117 13.3577 44.1387 13.3798 44.1895 13.3735C44.2085 13.3862 44.3449 13.3925 44.4211 13.402C44.5004 13.4115 44.5671 13.402 44.6147 13.3703C44.5925 13.3608 44.602 13.3355 44.529 13.3133C44.4528 13.2912 44.2688 13.2532 44.1514 13.2278C44.2402 13.2278 44.4306 13.2342 44.4751 13.2183C44.5195 13.2025 44.4655 13.1708 44.4021 13.155C44.3386 13.1392 44.2878 13.1233 44.2117 13.1138C44.1355 13.1043 43.8753 13.0695 43.8182 13.06C43.7611 13.0505 43.8086 13.0378 43.8404 13.0378C43.8086 13.0157 43.65 12.9967 43.6024 12.9872C43.5548 12.9745 43.5706 12.9713 43.5833 12.965C43.5643 12.9333 43.4088 12.8922 43.3549 12.8795C43.2977 12.8668 43.3136 12.8605 43.3358 12.8573C43.2946 12.8573 43.2597 12.8415 43.1073 12.8003C43.0946 12.7908 43.0724 12.7845 43.0407 12.775H45.719L46.5854 13.3957V13.4717V13.4748ZM46.5854 12.4647L46.5663 13.2247L42.5425 10.3271L42.5044 10.2986L38.4234 13.2342V11.8693L42.5044 8.93376L46.5854 11.8725V12.4615V12.4647ZM46.5854 11.711L45.7603 11.1156H46.5854V11.711ZM46.5854 10.9858H45.5794L44.6115 10.2859H46.5885V10.9858H46.5854ZM46.5854 10.1561H44.4243L43.4532 9.45943H46.5822V10.1561H46.5854ZM44.291 9.30743C44.3227 9.28526 44.3545 9.3011 44.3767 9.32643H44.2942C44.2942 9.32643 44.2942 9.31376 44.2942 9.30743H44.291ZM46.5854 9.32643H44.3926C44.3957 9.30426 44.3862 9.27576 44.3323 9.26626C44.3386 9.26626 44.3481 9.2536 44.3354 9.22193C44.3545 9.2061 44.4116 9.21876 44.4275 9.24726C44.4211 9.16493 44.3418 9.18076 44.2783 9.21243C44.218 9.2441 44.2466 9.2061 44.1799 9.21876C44.2053 9.20926 44.2529 9.08893 44.2815 9.05093C44.31 9.01293 44.4179 8.88309 44.4179 8.88309L44.4243 8.86092C44.4306 8.83875 44.4465 8.86726 44.4465 8.86726L44.4528 8.82925C44.4592 8.79125 44.4814 8.80709 44.4846 8.77542C44.4846 8.74375 44.4941 8.72475 44.5036 8.73109C44.5036 8.70575 44.5227 8.74059 44.5131 8.66775C44.529 8.66775 44.6052 8.66142 44.6337 8.64558C44.6432 8.64242 44.6559 8.63608 44.6718 8.62975H46.579V9.32643H46.5854ZM46.5854 8.49675H44.8336C44.859 8.47458 44.9447 8.43975 44.9955 8.42708C45.0494 8.41441 45.1161 8.41441 45.1351 8.38908C45.151 8.37325 45.2303 8.37641 45.2811 8.36375C45.3287 8.35108 45.4049 8.33841 45.4556 8.33208C45.5064 8.32574 45.5667 8.33525 45.6206 8.33525C45.6746 8.33525 45.8015 8.35741 45.8523 8.35108C45.8713 8.36691 46.0078 8.37008 46.084 8.37958C46.1601 8.38908 46.2299 8.37958 46.2744 8.34791C46.2521 8.33841 46.2617 8.31308 46.1887 8.29091C46.1125 8.26874 45.9285 8.23074 45.811 8.20541C45.8999 8.20541 46.0903 8.21174 46.1347 8.19591C46.1792 8.18008 46.1252 8.14841 46.0617 8.13258C45.9983 8.11674 45.9475 8.10091 45.8713 8.09141C45.7952 8.08191 45.5381 8.04707 45.4778 8.03757C45.4207 8.02807 45.4683 8.01541 45.5001 8.01541C45.4683 7.99324 45.3097 7.97424 45.2621 7.96474C45.2145 7.95207 45.2303 7.9489 45.243 7.94257C45.224 7.9109 45.0685 7.86974 45.0145 7.85707C44.9574 7.8444 44.9733 7.83807 44.9955 7.8349C44.9606 7.8349 44.9288 7.82224 44.8273 7.79374H46.5854V8.49041V8.49675ZM46.5854 7.66707H44.5163C44.4782 7.6449 44.437 7.61006 44.3735 7.59423C44.3735 7.59423 44.4052 7.5879 44.3989 7.5784C44.3354 7.57206 44.2434 7.49923 44.1831 7.42639C44.1228 7.35356 44.0879 7.04955 44.0689 6.98939C44.0689 6.98305 44.0657 6.97672 44.0625 6.97039H46.6425C46.5949 7.17622 46.5854 7.40423 46.5854 7.66707ZM46.6806 6.83738H43.98C43.9515 6.80255 43.9165 6.77088 43.8816 6.75821C43.8816 6.75821 43.8753 6.74555 43.9007 6.74871C43.7737 6.66321 43.558 6.69171 43.4945 6.73921C43.4596 6.74871 43.4152 6.77088 43.3771 6.83738H39.8515C39.8229 6.80255 39.788 6.77088 39.7531 6.75821C39.7531 6.75821 39.7467 6.74555 39.7721 6.74871C39.6452 6.66321 39.4294 6.69171 39.3628 6.73921C39.3278 6.74871 39.2834 6.77088 39.2453 6.83738H38.3282C38.233 6.57138 38.0458 6.34337 37.6682 6.1312H47.3406C46.963 6.34337 46.7758 6.57138 46.6806 6.83738ZM41.0827 0.348756C41.0383 0.323422 41.0034 0.269588 40.9304 0.237921C40.8923 0.222087 40.7717 0.20942 40.6861 0.19992C40.759 0.21892 40.8415 0.260088 40.886 0.275921C40.9463 0.294922 41.124 0.37409 41.0827 0.348756ZM40.3719 0.370923C40.3719 0.370923 40.3116 0.389924 40.3275 0.443758C40.3465 0.494426 40.5083 0.494426 40.4988 0.434258C40.4798 0.336089 40.3719 0.370923 40.3719 0.370923ZM42.8122 2.96447C42.6758 3.00881 42.3108 3.09114 42.1204 3.03731C42.0601 3.04364 41.7967 3.04364 41.4286 2.7808C41.5333 2.94864 41.6984 3.04998 41.8507 3.09114C42.003 3.13231 42.0474 3.09748 42.1934 3.09114C42.3394 3.08481 42.5044 3.16398 42.7329 3.06581C42.9582 2.96764 43.2755 3.15131 43.5326 3.12598C43.7896 3.10064 43.9356 3.07848 43.7166 3.07214C43.4977 3.06581 42.9455 2.92014 42.8122 2.96131V2.96447ZM41.9491 3.37932C41.8602 3.47748 41.7364 3.37615 41.6063 3.36665C41.4794 3.36031 41.4413 3.29381 41.3556 3.22731C41.27 3.16081 41.1716 3.13864 41.051 3.04364C40.9653 2.97397 41.2255 3.23998 41.3525 3.32231C41.4794 3.40465 41.8665 3.58199 41.9491 3.37932ZM41.1874 2.7998C41.3271 2.85364 41.2477 2.75864 41.1621 2.64147C41.0764 2.5243 41.0637 2.51163 41.0034 2.34696C40.9431 2.18229 40.9494 2.24246 40.959 2.09046C40.9717 1.93845 40.9336 1.76112 40.9177 1.92579C40.905 2.05246 40.8257 2.19496 40.9304 2.37863L41.0351 2.5623C41.0351 2.5623 41.0478 2.74597 41.1874 2.7998ZM41.3652 2.30579L41.5683 2.5053C41.692 2.59713 41.8063 2.71747 41.8983 2.73647C41.9903 2.75547 42.003 2.68897 41.8983 2.61297C41.7936 2.54013 41.8126 2.48946 41.8126 2.46096C41.8126 2.43246 41.8316 2.39446 41.93 2.46096C42.0284 2.52747 41.9237 2.35013 42.0157 2.43563C42.1077 2.52113 42.0347 2.5148 42.168 2.5813C42.3013 2.6478 42.4314 2.67947 42.3679 2.63513C42.3076 2.5908 42.1902 2.55597 42.168 2.48313C42.1426 2.4103 42.0823 2.29313 42.2061 2.37863C42.3299 2.46413 42.3457 2.42613 42.4441 2.44513C42.5425 2.46413 42.5234 2.4388 42.4251 2.3723C42.3267 2.30579 42.1363 2.16646 42.2854 2.22663C42.4314 2.28679 42.076 2.09046 42.022 2.03029C41.9681 1.97012 41.8507 1.98912 41.9364 2.08412C42.022 2.18229 42.0538 2.14429 42.1395 2.23613C42.2251 2.32796 42.1458 2.31529 42.0792 2.28996C42.0125 2.26463 41.9998 2.25196 41.9998 2.25196C41.9998 2.25196 41.9205 2.21396 41.8602 2.17279L41.7999 2.12846C41.7999 2.12846 41.7015 2.14746 41.8126 2.22029L41.9237 2.29313C41.9237 2.29313 41.9776 2.39763 41.8761 2.3533C41.7713 2.31213 41.6127 2.30579 41.5905 2.23613L41.5651 2.16962C41.5651 2.16962 41.4984 2.20129 41.5841 2.29629C41.6698 2.39446 41.6888 2.4483 41.7555 2.52113C41.7745 2.5433 41.7904 2.55913 41.8031 2.56863C41.7237 2.5148 41.5429 2.38496 41.4857 2.29946C41.4128 2.18863 41.4064 2.16962 41.4064 2.16962C41.4064 2.16962 41.2795 2.05246 41.3207 2.15696C41.362 2.26146 41.3747 2.28363 41.3747 2.28363L41.3652 2.30579ZM41.6222 2.7998C41.4762 2.70164 41.3969 2.59397 41.3652 2.5433C41.3334 2.4958 41.3049 2.6478 41.3778 2.7143C41.4508 2.7808 41.5619 2.87264 41.6888 2.90431C41.8158 2.93597 41.7745 2.90431 41.6222 2.7998ZM41.1938 1.0011C41.1938 1.11827 41.2319 1.17844 41.2319 1.05494C41.2319 0.921934 41.2382 0.750931 41.2001 0.700263C41.1621 0.652762 41.1208 0.633762 41.1525 0.747764C41.1843 0.864933 41.1938 0.880767 41.1938 0.997935V1.0011ZM43.0661 2.6668C43.2628 2.7143 43.358 2.71114 43.5833 2.7238C43.8086 2.73647 44.3005 2.87897 44.1799 2.8283C44.0562 2.77764 43.8499 2.73014 43.6563 2.68897C43.4628 2.65097 42.863 2.53063 42.7614 2.51163C42.5076 2.47046 42.8693 2.6193 43.0693 2.6668H43.0661Z" fill="#DEA46E"/>
<path d="M23.9302 59.9045C23.5272 59.8791 23.1559 59.8791 22.7656 59.8855C22.7275 59.8855 22.718 59.8791 22.7053 59.8538C22.6926 59.8221 22.6736 59.6955 22.6926 59.6733C22.937 59.6416 23.0576 59.5878 23.0956 59.3281C23.1432 58.9228 23.1559 58.3876 23.1813 57.7701L23.2289 56.4496C23.2353 56.2311 23.1242 56.1899 22.7244 56.1487C22.7307 56.1171 22.7561 56.0411 22.7783 55.9904C22.791 55.9714 22.8037 55.9556 22.8449 55.9556C22.937 55.9556 23.2956 55.9682 23.4796 55.9682C23.6192 55.9682 23.7589 55.9619 23.8446 55.9619C23.8573 56.0886 23.8985 56.1962 23.9302 56.2627C24.2032 56.8549 24.8696 58.0139 25.2789 58.7011C25.298 58.7359 25.3265 58.7423 25.3519 58.6948C25.7549 57.9348 26.2785 56.9214 26.5832 56.2564C26.6086 56.2026 26.6308 56.0822 26.6435 55.9682C27.1131 55.9682 27.5701 55.9492 27.7542 55.9492C27.7668 55.9809 27.7668 56.1171 27.7605 56.1614C27.4146 56.1962 27.3384 56.2342 27.3353 56.4084C27.3226 56.6491 27.3226 57.0069 27.3416 57.7891C27.348 58.3876 27.3416 58.9734 27.3543 59.1476C27.386 59.5593 27.386 59.5815 27.7637 59.648C27.7827 59.648 27.7954 59.7493 27.7954 59.8063C27.7954 59.8411 27.7827 59.8538 27.7573 59.8538H27.1829C27.0179 59.8538 26.5673 59.8665 26.3039 59.895V59.7556C26.3103 59.7081 26.3166 59.6828 26.3452 59.6765C26.5959 59.61 26.6086 59.5973 26.6371 59.3883C26.6562 59.2268 26.6498 58.9069 26.6974 56.7156C26.6974 56.6554 26.6562 56.6807 26.6435 56.7156C26.5705 56.8296 25.9549 58.1406 25.6756 58.7359C25.3773 59.3566 25.2726 59.61 25.244 59.667C25.171 59.819 25.152 59.8665 25.079 59.8665C25.0536 59.8665 25.0251 59.8475 24.9997 59.8C24.9679 59.7525 24.822 59.4548 24.676 59.154C24.1143 57.9696 23.6954 57.1494 23.4701 56.6807C23.4638 57.2222 23.4574 58.0583 23.4701 58.7138C23.4764 59.1476 23.4828 59.3883 23.5018 59.4991C23.5399 59.6068 23.6129 59.6511 23.8192 59.686C23.8922 59.6986 23.9175 59.7113 23.9239 59.7398L23.9366 59.9013L23.9302 59.9045Z" fill="white"/>
<path d="M31.4263 55.8594C31.4802 55.8594 31.4866 55.8784 31.5183 55.9575C31.7024 56.5054 31.8293 56.8316 32.0419 57.3952C32.2418 57.9399 32.6829 58.9659 32.775 59.1686C32.9273 59.4821 33.013 59.6278 33.3652 59.7006C33.3716 59.688 33.3335 59.8811 33.2922 59.8938C32.702 59.8875 32.5846 59.8811 32.3846 59.8811C32.1847 59.8811 31.9531 59.9001 31.8896 59.9001C31.8642 59.9001 31.8515 59.8938 31.8483 59.8811C31.8356 59.8463 31.788 59.7228 31.8007 59.7133C32.0705 59.6405 32.1054 59.6056 32.0863 59.4473C32.0736 59.3079 31.861 58.7664 31.8134 58.6619C31.7753 58.5701 31.7277 58.5289 31.6928 58.5289C31.4072 58.5289 30.7916 58.5289 30.487 58.5479C30.3886 58.5543 30.36 58.5954 30.3156 58.6999C30.2553 58.8519 30.0966 59.2383 30.0966 59.4124C30.0966 59.5644 30.176 59.6183 30.4616 59.6848C30.4997 59.7101 30.4425 59.8653 30.414 59.878C30.0617 59.8716 29.7127 59.8716 29.5857 59.8716C29.481 59.8716 29.3858 59.878 29.3604 59.8716C29.3287 59.8716 29.3223 59.8653 29.3192 59.8463C29.3001 59.8146 29.2652 59.688 29.2874 59.6785C29.5857 59.5993 29.6587 59.3839 29.7983 59.0926C29.9443 58.7854 30.6647 57.1387 30.9947 56.3534C31.0486 56.2077 31.0994 56.0747 31.128 55.9987C31.1407 55.9639 31.1597 55.9385 31.1756 55.9259C31.2359 55.8942 31.3469 55.8657 31.4263 55.8657H31.4326L31.4263 55.8594ZM30.6583 58.2376C30.7186 58.2376 30.8297 58.2439 31.036 58.2439C31.2613 58.2439 31.3819 58.2439 31.5405 58.2376C31.5945 58.2376 31.6325 58.1838 31.6262 58.1584C31.4009 57.5061 31.274 57.1641 31.1438 56.8379C31.1248 56.8031 31.0899 56.8031 31.0772 56.8316C30.8456 57.3446 30.7662 57.5441 30.5219 58.1648C30.5092 58.1964 30.5631 58.2376 30.6488 58.2376H30.6551H30.6583Z" fill="white"/>
<path d="M34.7993 56.02C34.793 55.9884 34.8184 55.9789 34.8533 55.9725C35.1325 55.9662 35.4276 55.9599 35.6879 55.9535C36.0369 55.9282 36.1924 55.9219 36.4019 55.9219C36.8049 55.9219 37.1698 55.963 37.5284 56.2069C37.7918 56.3811 37.96 56.6882 37.96 56.9542C37.96 57.4672 37.5506 57.7079 37.3317 57.8409C37.2999 57.8599 37.2841 57.9137 37.2936 57.9549C37.3317 58.1069 37.4713 58.4553 37.7029 58.8194C37.96 59.2248 38.3186 59.5921 38.7279 59.7726C38.7946 59.8043 38.7946 59.8455 38.7819 59.9183C38.7755 59.9785 38.7343 60.0038 38.7153 60.0038C38.1536 59.969 37.7283 59.817 37.3507 59.4433C37.1 59.1963 36.9255 58.8638 36.7541 58.5028C36.643 58.2748 36.5605 58.1703 36.2432 58.1703C36.1226 58.1703 36.0528 58.1766 35.9925 58.1893C35.9608 58.1956 35.9386 58.2494 35.9386 58.2906C35.9386 58.7973 35.9449 59.1234 35.9576 59.3894C35.9639 59.4908 35.983 59.5224 36.0115 59.5478C36.0718 59.5953 36.3543 59.6333 36.4939 59.6681C36.5066 59.6998 36.4812 59.836 36.4622 59.8613C36.4558 59.874 36.4241 59.874 36.3638 59.874C36.3035 59.874 35.7069 59.8676 35.4118 59.8676C35.2055 59.8676 35.0817 59.8866 34.9612 59.8866C34.8945 59.8866 34.8691 59.8866 34.8628 59.8676C34.8437 59.8265 34.8247 59.722 34.8311 59.6808C34.958 59.6491 35.1167 59.6143 35.1738 59.5478C35.2404 59.4559 35.2595 59.0348 35.2595 58.2748V57.5337C35.2595 57.1822 35.2468 56.7484 35.2404 56.5267C35.2341 56.3082 35.215 56.3019 34.8247 56.1942L34.793 56.0264L34.7993 56.02ZM37.1762 57.0112C37.1762 56.5109 36.8176 56.1467 36.4019 56.1467C36.2495 56.1467 36.1766 56.1657 36.0782 56.2069C36.0179 56.2322 35.9862 56.267 35.9735 56.3272C35.9481 56.5077 35.9417 56.7801 35.9354 57.3057C35.929 57.9043 35.9354 57.9106 35.9766 57.9264C36.0179 57.9391 36.1099 57.9391 36.221 57.9391C36.551 57.9391 36.8017 57.8662 36.9636 57.6667C37.0841 57.5084 37.1698 57.2804 37.1698 57.0144V57.0081L37.1762 57.0112Z" fill="white"/>
<path d="M40.0132 57.8869C40.0132 57.2662 40.2512 56.807 40.6034 56.4809C40.889 56.2212 41.1873 56.0818 41.6094 55.9742C41.968 55.876 42.3234 55.8665 42.5424 55.8665C42.7613 55.8665 43.1453 55.9077 43.3516 55.9647C43.3928 55.9773 43.4182 55.99 43.4309 55.9647L43.4912 55.8792C43.4975 55.8538 43.5102 55.8475 43.5451 55.8538L43.6721 55.8792C43.6975 55.8855 43.7102 55.8918 43.7102 55.9267C43.7229 56.294 43.7768 56.6804 43.8085 56.807C43.8212 56.8862 43.8212 56.94 43.8085 56.9464C43.7958 56.959 43.7831 56.9654 43.7038 56.9654H43.6562C43.6181 56.9654 43.6023 56.9527 43.5705 56.8989C43.3389 56.4524 42.901 56.1009 42.2853 56.1009C41.9616 56.1009 41.6824 56.199 41.4253 56.4397C41.1397 56.7057 40.8287 57.1775 40.8287 57.9122C40.8287 58.3176 40.9462 58.8369 41.346 59.2232C41.7617 59.6159 42.2472 59.7109 42.5043 59.7109C42.6503 59.7109 42.8407 59.6508 42.9486 59.5716C43.066 59.4861 43.1199 59.2327 43.1199 58.7862C43.1199 58.2479 43.1072 58.1466 42.8883 58.0991C42.828 58.0864 42.5836 58.0516 42.5297 58.0326C42.4916 58.0199 42.4503 58.0009 42.4376 57.9851C42.4186 57.9534 42.4123 57.9249 42.4059 57.8647C42.4059 57.8457 42.4186 57.8236 42.4599 57.8236C42.8756 57.8236 43.2151 57.8489 43.5134 57.8489C43.8117 57.8489 44.0085 57.8299 44.1164 57.8236C44.1354 57.8584 44.1227 58.0104 44.1164 58.0769C44.0497 58.0896 43.9386 58.1022 43.872 58.1117C43.853 58.1782 43.8339 58.6247 43.8307 59.5969C43.8307 59.7363 43.7927 59.7774 43.7324 59.8313C43.6848 59.8788 43.5927 59.8851 43.5674 59.8851C43.4341 59.8851 43.3421 59.8851 43.085 59.9041C42.8724 59.9231 42.682 59.9389 42.444 59.9389C41.657 59.9389 41.0287 59.7394 40.6034 59.3341C40.2575 59.0142 40.0068 58.5266 40.0068 57.8932V57.8869H40.0132Z" fill="white"/>
<path d="M47.813 55.8594C47.8669 55.8594 47.8733 55.8784 47.905 55.9575C48.0891 56.5054 48.216 56.8316 48.4286 57.3952C48.6286 57.9399 49.0697 58.9659 49.1617 59.1686C49.314 59.4821 49.3997 59.6278 49.7519 59.7006C49.7583 59.688 49.7202 59.8811 49.6789 59.8938C49.0887 59.8875 48.9713 59.8811 48.7714 59.8811C48.5714 59.8811 48.3398 59.9001 48.2763 59.9001C48.2509 59.9001 48.2382 59.8938 48.2351 59.8811C48.2224 59.8463 48.1748 59.7228 48.1875 59.7133C48.4572 59.6405 48.4921 59.6056 48.4731 59.4473C48.4604 59.3079 48.2478 58.7664 48.2001 58.6619C48.1621 58.5701 48.1145 58.5289 48.0796 58.5289C47.794 58.5289 47.1783 58.5289 46.8737 58.5479C46.7753 58.5543 46.7467 58.5954 46.7023 58.6999C46.642 58.8519 46.4834 59.2383 46.4834 59.4124C46.4834 59.5644 46.5627 59.6183 46.8483 59.6848C46.8864 59.7101 46.8293 59.8653 46.8007 59.878C46.4484 59.8716 46.0994 59.8716 45.9724 59.8716C45.8677 59.8716 45.7725 59.878 45.7471 59.8716C45.7154 59.8716 45.7091 59.8653 45.7059 59.8463C45.6868 59.8146 45.6519 59.688 45.6741 59.6785C45.9724 59.5993 46.0454 59.3839 46.1851 59.0926C46.331 58.7854 47.0514 57.1387 47.3814 56.3534C47.4354 56.2077 47.4861 56.0747 47.5147 55.9987C47.5274 55.9639 47.5464 55.9385 47.5623 55.9259C47.6226 55.8942 47.7337 55.8657 47.813 55.8657H47.8193L47.813 55.8594ZM47.045 58.2376C47.1053 58.2376 47.2164 58.2439 47.4227 58.2439C47.648 58.2439 47.7717 58.2439 47.9272 58.2376C47.9812 58.2376 48.0193 58.1838 48.0129 58.1584C47.7876 57.5061 47.6607 57.1641 47.5306 56.8379C47.5115 56.8031 47.4766 56.8031 47.4639 56.8316C47.2323 57.3446 47.1529 57.5441 46.9086 58.1648C46.8959 58.1964 46.9498 58.2376 47.0355 58.2376H47.0419H47.045Z" fill="white"/>
<path d="M55.0392 56.1504C54.9726 56.1757 54.9059 56.1852 54.8393 56.1979C54.7853 56.2106 54.7536 56.2391 54.7282 56.3436C54.6965 56.4639 54.6743 56.8503 54.6362 57.9079C54.6171 58.573 54.5442 58.9466 54.2998 59.2886C53.9888 59.7162 53.4715 59.9758 52.9289 59.9758C52.2593 59.9758 51.8563 59.7352 51.6786 59.5578C51.3327 59.2253 51.2534 58.858 51.247 58.3925C51.2407 58.0441 51.2407 57.7116 51.2597 57.2049C51.2851 56.4259 51.2787 56.3467 51.228 56.2739C51.174 56.2074 51.0883 56.1821 50.8789 56.1409L50.8853 56.0142C50.8916 55.9541 50.917 55.9477 50.9963 55.9477C51.1296 55.9477 51.5199 55.9731 51.65 55.9667C51.942 55.9604 52.2244 55.9414 52.5227 55.9414C52.5544 55.9414 52.564 55.9414 52.564 55.9604C52.564 55.9952 52.5703 56.1124 52.5449 56.1472C52.2276 56.2011 52.0562 56.2137 52.0213 56.3879C52.0023 56.4829 51.9832 56.6666 51.9801 56.9484C51.9737 57.2873 51.9547 57.8826 51.9547 58.326C51.9547 58.7693 52.0721 59.086 52.3577 59.3108C52.5576 59.4786 52.875 59.5578 53.205 59.5578C53.662 59.5578 53.9 59.371 54.0269 59.2031C54.2649 58.8896 54.3379 58.4431 54.3379 57.8826C54.3379 57.2619 54.3379 56.6888 54.2998 56.4164C54.2744 56.2042 54.1951 56.1884 53.7096 56.1884C53.6905 56.1884 53.662 56.1536 53.6683 56.1029C53.6937 56.0712 53.7286 56.0301 53.754 55.9952C53.7667 55.9762 53.8016 55.9699 53.8524 55.9699H54.4013C54.6267 55.9699 54.9503 55.9572 55.0836 55.9572C55.1154 55.9572 55.1154 55.9636 55.0963 56.0237L55.0424 56.1504H55.0392Z" fill="white"/>
<path d="M59.266 55.9604C59.3643 55.9604 59.8879 55.9731 60.0149 55.9731C60.1609 55.9731 60.3671 55.9604 60.5258 55.9604C60.6115 55.9604 60.6242 55.9952 60.6591 56.1219C60.6591 56.1472 60.6654 56.1757 60.6273 56.1821C60.2973 56.2169 60.2021 56.2549 59.9324 56.5368C59.358 57.1448 59.0375 57.5691 58.9455 57.6831C58.9137 57.7148 58.9201 57.7433 58.9455 57.7781C59.5135 58.592 59.9641 59.1715 60.1101 59.3425C60.329 59.5831 60.4211 59.6275 60.7257 59.675V59.8428C60.7257 59.8745 60.7194 59.884 60.6781 59.884C60.6178 59.884 60.2529 59.865 59.8054 59.865C59.3834 59.865 59.1708 59.884 59.0978 59.884C59.0438 59.884 59.0311 59.884 59.0184 59.8587C58.9867 59.8112 58.9804 59.732 58.9804 59.6971C58.9804 59.6718 58.9867 59.6655 59.0216 59.6655C59.0597 59.6592 59.1549 59.6465 59.266 59.618C59.3643 59.599 59.3929 59.5705 59.285 59.4121C59.1517 59.2316 58.5837 58.4051 58.4377 58.2183C58.1648 58.5698 57.876 58.9118 57.7237 59.1303C57.565 59.3583 57.4984 59.485 57.4984 59.5578C57.5047 59.6433 57.6983 59.656 57.8443 59.656C57.876 59.6623 57.8919 59.6686 57.8919 59.6876C57.8982 59.7351 57.8982 59.8618 57.8729 59.8998C57.4413 59.8682 57.0129 59.8682 56.9208 59.8682C56.8098 59.8682 56.6416 59.8745 56.5749 59.8808C56.5432 59.8872 56.5273 59.8872 56.521 59.8492C56.5083 59.7827 56.5147 59.6908 56.521 59.6686C56.778 59.6496 56.8796 59.5768 57.0319 59.4153C57.2985 59.1366 57.9966 58.3355 58.2505 58.0378C58.2886 58.0061 58.2695 57.9586 58.2441 57.9301C58.0791 57.6894 57.3842 56.7426 57.1176 56.3974C56.978 56.2391 56.9113 56.2042 56.667 56.1916C56.6416 56.1916 56.6289 56.1979 56.6289 56.1599C56.6289 56.0997 56.6416 55.9604 56.7019 55.9604C57.0065 55.9604 57.3302 55.9667 57.5365 55.9667C57.7491 55.9604 57.9617 55.9414 58.1521 55.9414C58.2061 55.9414 58.2188 55.9414 58.2251 55.9667L58.2568 56.1187C58.2695 56.1726 58.2505 56.1852 58.1902 56.1852H57.9649C57.8729 56.1852 57.8602 56.2264 57.9268 56.3372C58.0188 56.4829 58.1236 56.6634 58.7551 57.5089C58.9804 57.2429 59.2914 56.8344 59.4627 56.6033C59.5611 56.4639 59.615 56.3626 59.615 56.3087C59.6023 56.2549 59.5484 56.2296 59.3485 56.2074C59.2882 56.2011 59.2691 56.1947 59.2691 56.1599L59.2564 55.9604H59.266Z" fill="white"/>
<path d="M11.3824 51.86C11.3824 51.765 11.3729 51.7492 11.2904 51.6573H11.7791C11.6966 51.7555 11.6871 51.765 11.6871 51.8568V52.2685C11.6902 52.373 11.6934 52.3857 11.722 52.4268C11.2174 52.7214 10.5415 52.8417 10.0147 52.5472C9.58947 52.3033 9.3832 51.9392 9.37368 51.537C9.36099 51.157 9.53869 50.7295 9.97979 50.4476C10.4812 50.1341 11.046 50.207 11.5379 50.4413L11.5792 50.9353C11.3475 50.5363 11.1698 50.4096 10.7731 50.3748C10.5066 50.3526 10.2146 50.4001 9.97345 50.701C9.7164 51.0018 9.69419 51.5402 9.77352 51.8442C9.87507 52.2052 10.0528 52.411 10.4177 52.5377C10.643 52.6169 11.1032 52.5757 11.3158 52.4332C11.3666 52.3952 11.3666 52.3888 11.3824 52.3603V51.8568V51.86Z" fill="#DEA46E"/>
<path d="M13.0874 50.4949C13.0874 50.3968 13.0779 50.3841 12.9954 50.2891H13.4745C13.7506 50.2891 14.1854 50.2796 14.3916 50.6184C14.4868 50.7704 14.4868 50.9668 14.3948 51.1378C14.2996 51.3183 14.1441 51.4101 13.9632 51.4671C14.0965 51.5589 14.1283 51.6128 14.2679 51.8059L14.6677 52.414C14.7883 52.5945 14.7947 52.5913 14.9533 52.6831H14.8581C14.4583 52.6831 14.5027 52.7243 14.2584 52.3348L13.9759 51.882C13.7411 51.5083 13.7951 51.5494 13.3889 51.5558V52.4773C13.3889 52.5723 13.3984 52.5818 13.4809 52.68H12.9922C13.0747 52.585 13.0842 52.5723 13.0842 52.4741V50.4949H13.0874ZM13.392 51.4228C13.5031 51.4323 13.5444 51.4386 13.6491 51.4291C13.8395 51.4069 13.9981 51.3404 14.0997 51.1378C14.1727 50.9921 14.1695 50.7704 14.0775 50.6248C13.9252 50.3809 13.4904 50.4158 13.3952 50.4158V51.4228H13.392Z" fill="#DEA46E"/>
<path d="M16.9969 50.2383L17.9426 52.455C17.9933 52.5722 18.0283 52.5943 18.1266 52.6767H17.5427C17.6348 52.5975 17.6538 52.5627 17.6189 52.4487C17.6062 52.4043 17.53 52.2238 17.5205 52.2048L17.3968 51.9293H16.4416L16.2924 52.2682L16.2036 52.4772C16.1655 52.5817 16.1845 52.5975 16.2639 52.6798H15.8799C15.937 52.6228 15.9878 52.5563 16.0227 52.4772L16.9937 50.2415L16.9969 50.2383ZM16.5019 51.7741H17.3301L16.9176 50.7703L16.5019 51.7741Z" fill="#DEA46E"/>
<path d="M19.6176 50.2891L21.0583 52.0529V50.5266C21.0583 50.4252 21.0583 50.3967 20.96 50.2891H21.3154C21.2233 50.3904 21.2138 50.4221 21.2138 50.5297V52.7243L19.4716 50.6184V52.4424C19.4716 52.5501 19.4812 52.5786 19.5732 52.6799H19.2178C19.3161 52.5723 19.3161 52.5469 19.3161 52.4456V50.5266C19.3161 50.4252 19.3161 50.3967 19.2178 50.2891H19.6144H19.6176Z" fill="#DEA46E"/>
<path d="M22.5947 52.6799C22.6772 52.5849 22.6868 52.5723 22.6868 52.4741V50.4949C22.6868 50.3967 22.6772 50.3841 22.5947 50.2891H23.4325C23.8577 50.2891 24.3845 50.3397 24.6892 50.8686C24.9049 51.2327 24.9018 51.6508 24.6892 52.0181C24.321 52.6609 23.8323 52.6799 23.2992 52.6799H22.5979H22.5947ZM22.9914 52.4931C23.2611 52.5723 23.6166 52.5596 23.7943 52.5121C24.0767 52.4424 24.3115 52.2398 24.4162 51.9643C24.521 51.6761 24.5368 51.1124 24.3083 50.7926C24.0227 50.3904 23.4864 50.4189 23.2135 50.4221H22.9882V52.4931H22.9914Z" fill="#DEA46E"/>
<path d="M29.4966 50.4674L29.5188 50.9963C29.395 50.6353 29.2776 50.4928 28.9 50.3946C28.6524 50.3281 28.2589 50.3724 28.0241 50.5751C27.6719 50.8791 27.6274 51.3161 27.6624 51.6328C27.7036 51.9495 27.8147 52.2725 28.2082 52.472C28.4557 52.6018 28.8904 52.5923 29.1158 52.4656C29.3379 52.3453 29.4585 52.1648 29.5473 51.94L29.5251 52.4561C29.0079 52.738 28.4208 52.8298 27.9194 52.5322C27.4878 52.2788 27.2911 51.8925 27.2911 51.5251C27.2879 51.1451 27.4307 50.7176 27.9067 50.4294C28.3891 50.1349 28.9698 50.2078 29.4902 50.4643L29.4966 50.4674Z" fill="#DEA46E"/>
<path d="M30.9057 50.4949C30.9057 50.3968 30.8962 50.3841 30.8137 50.2891H31.2929C31.569 50.2891 32.0037 50.2796 32.21 50.6184C32.3052 50.7704 32.3052 50.9668 32.2132 51.1378C32.118 51.3183 31.9625 51.4101 31.7816 51.4671C31.9149 51.5589 31.9466 51.6128 32.0862 51.8059L32.4861 52.414C32.6067 52.5945 32.613 52.5913 32.7717 52.6831H32.6765C32.2766 52.6831 32.3211 52.7243 32.0767 52.3348L31.7943 51.882C31.5595 51.5083 31.6134 51.5494 31.2072 51.5558V52.4773C31.2072 52.5723 31.2167 52.5818 31.2992 52.68H30.8105C30.8931 52.585 30.9026 52.5723 30.9026 52.4741V50.4949H30.9057ZM31.2104 51.4228C31.3215 51.4323 31.3627 51.4386 31.4674 51.4291C31.6578 51.4069 31.8165 51.3404 31.9181 51.1378C31.991 50.9921 31.9879 50.7704 31.8958 50.6248C31.7435 50.3809 31.3088 50.4158 31.2136 50.4158V51.4228H31.2104Z" fill="#DEA46E"/>
<path d="M35.8208 50.2891C35.7414 50.3872 35.7319 50.3967 35.7319 50.4917V51.8028C35.7319 52.0529 35.7224 52.4076 35.4019 52.5976C35.1036 52.7686 34.6022 52.7591 34.3198 52.6008C33.958 52.3918 33.9707 52.0878 33.9707 51.8154V50.4949C33.9707 50.3967 33.9612 50.3841 33.8818 50.2891H34.3674C34.288 50.3872 34.2785 50.3967 34.2785 50.4917V51.8154C34.2785 52.0688 34.2531 52.3189 34.5546 52.4994C34.7355 52.6103 35.1353 52.5913 35.3099 52.4931C35.5923 52.3379 35.5732 52.0149 35.5732 51.8313V50.4949C35.5732 50.3967 35.5637 50.3841 35.4812 50.2891H35.8176H35.8208Z" fill="#DEA46E"/>
<path d="M40.5149 50.4674L40.5371 50.9963C40.4133 50.6353 40.2959 50.4928 39.9183 50.3946C39.6708 50.3281 39.2773 50.3724 39.0424 50.5751C38.6902 50.8791 38.6458 51.3161 38.6807 51.6328C38.7219 51.9495 38.833 52.2725 39.2265 52.472C39.474 52.6018 39.9088 52.5923 40.1341 52.4656C40.3562 52.3453 40.4768 52.1648 40.5656 51.94L40.5434 52.4561C40.0262 52.738 39.4391 52.8298 38.9409 52.5322C38.5093 52.2788 38.3126 51.8925 38.3126 51.5251C38.3094 51.1451 38.4522 50.7176 38.9282 50.4294C39.4105 50.1349 39.9913 50.2078 40.5117 50.4643L40.5149 50.4674Z" fill="#DEA46E"/>
<path d="M41.8342 52.6799C41.9167 52.5849 41.9263 52.5723 41.9263 52.4741V50.4949C41.9263 50.3967 41.9167 50.3841 41.8342 50.2891H42.3229C42.2436 50.3872 42.2309 50.3967 42.2309 50.4917V52.5343H42.7291C42.929 52.5343 43.1417 52.5564 43.2908 52.3189L43.2273 52.6799H41.8311H41.8342Z" fill="#DEA46E"/>
<path d="M45.4361 50.2383L46.3818 52.455C46.4326 52.5722 46.4675 52.5943 46.5658 52.6767H45.9851C46.0771 52.5975 46.0962 52.5627 46.0613 52.4487C46.0486 52.4043 45.9724 52.2238 45.9629 52.2048L45.8391 51.9293H44.884L44.7348 52.2682L44.646 52.4772C44.6079 52.5817 44.6269 52.5975 44.7062 52.6798H44.3223C44.3794 52.6228 44.4302 52.5563 44.4651 52.4772L45.4329 50.2415L45.4361 50.2383ZM44.9411 51.7741H45.7725L45.36 50.7703L44.9442 51.7741H44.9411Z" fill="#DEA46E"/>
<path d="M48.8982 50.4242L48.8824 50.8264C48.784 50.5825 48.7015 50.4463 48.4445 50.3893C48.3207 50.3608 48.1462 50.3672 48.0256 50.4748C47.924 50.5667 47.8923 50.7124 47.9018 50.8105C47.9272 51.0132 48.1113 51.124 48.327 51.2444L48.5048 51.3489C48.8665 51.5484 49.0284 51.6624 49.0284 52.0139C49.0315 52.2482 48.9363 52.4699 48.6602 52.6251C48.4127 52.7676 48.0414 52.7549 47.759 52.5902C47.7209 52.5712 47.686 52.5522 47.5781 52.4541L47.5972 52.017C47.6829 52.2894 47.8288 52.4921 48.1049 52.5649C48.2414 52.6061 48.4476 52.5871 48.5841 52.4699C48.7205 52.3559 48.7523 52.2197 48.7396 52.074C48.7174 51.8397 48.5524 51.7574 48.3175 51.6212L48.1525 51.5262C47.8003 51.3299 47.6416 51.2222 47.6352 50.8675C47.6352 50.668 47.6987 50.4875 47.9367 50.345C48.2065 50.1867 48.6126 50.2215 48.9014 50.4274L48.8982 50.4242Z" fill="#DEA46E"/>
<path d="M51.5037 50.4242L51.4878 50.8264C51.3895 50.5825 51.307 50.4463 51.0499 50.3893C50.9262 50.3608 50.7516 50.3672 50.631 50.4748C50.5295 50.5667 50.4978 50.7124 50.5073 50.8105C50.5327 51.0132 50.7167 51.124 50.9325 51.2444L51.1102 51.3489C51.472 51.5484 51.6338 51.6624 51.6338 52.0139C51.6338 52.2482 51.5418 52.4699 51.2657 52.6251C51.0182 52.7676 50.6469 52.7549 50.3645 52.5902C50.3264 52.5712 50.2947 52.5522 50.1836 52.4541L50.2026 52.017C50.2883 52.2894 50.4343 52.4921 50.7104 52.5649C50.8468 52.6061 51.0531 52.5871 51.1896 52.4699C51.326 52.3559 51.3577 52.2197 51.345 52.074C51.3228 51.8397 51.1578 51.7574 50.923 51.6212L50.758 51.5262C50.4057 51.3299 50.2471 51.2222 50.2407 50.8675C50.2407 50.668 50.301 50.4875 50.5422 50.345C50.8119 50.1867 51.2181 50.2215 51.5069 50.4274L51.5037 50.4242Z" fill="#DEA46E"/>
<path d="M52.8555 52.679C52.9348 52.584 52.9443 52.5713 52.9443 52.4731V50.4939C52.9443 50.3958 52.9348 50.3831 52.8555 50.2881H54.1946V50.5383C54.1153 50.4623 53.8963 50.4084 53.6901 50.4084C53.4838 50.4084 53.2807 50.4148 53.2521 50.4148V51.2888H53.7789C53.8773 51.2888 53.9757 51.2349 54.0011 51.1906V51.501C53.9185 51.4218 53.8709 51.4091 53.7789 51.4091H53.2521V52.5111C53.4362 52.5555 53.8963 52.5491 53.9598 52.5428C54.1502 52.527 54.2264 52.5175 54.347 52.318L54.293 52.6758H52.8586L52.8555 52.679ZM53.3791 49.7054C53.5727 49.5059 53.6552 49.4141 53.7377 49.4426C53.7821 49.4553 53.8202 49.4996 53.8233 49.5439C53.836 49.6421 53.7218 49.6928 53.5155 49.8131L53.1728 50.0126H53.0776L53.3791 49.7086V49.7054Z" fill="#DEA46E"/>
<path d="M56.8955 52.6799C56.978 52.5849 56.9875 52.5723 56.9875 52.4741V50.4949C56.9875 50.3967 56.978 50.3841 56.8955 50.2891H58.2347V50.5392C58.1585 50.4632 57.9395 50.4094 57.7301 50.4094C57.5334 50.4094 57.3239 50.4157 57.2922 50.4157V51.2897H57.8221C57.9173 51.2897 58.0157 51.2359 58.0443 51.1916V51.5019C57.9586 51.4228 57.911 51.4101 57.8221 51.4101H57.2922V52.5121C57.4826 52.5564 57.9395 52.5501 58.003 52.5438C58.1902 52.5279 58.2696 52.5184 58.3902 52.3189L58.3362 52.6768H56.8987L56.8955 52.6799Z" fill="#DEA46E"/>
<path d="M59.9799 50.2891L61.4206 52.0529V50.5266C61.4206 50.4252 61.4206 50.3967 61.3223 50.2891H61.6777C61.5856 50.3904 61.5761 50.4221 61.5761 50.5297V52.7243L59.8339 50.6184V52.4424C59.8339 52.5501 59.8435 52.5786 59.9355 52.6799H59.5801C59.6785 52.5723 59.6785 52.5469 59.6785 52.4456V50.5266C59.6785 50.4252 59.6785 50.3967 59.5801 50.2891H59.9767H59.9799Z" fill="#DEA46E"/>
<path d="M65.1586 50.2461V52.4375C65.1586 52.5673 65.1586 52.5768 65.2665 52.6781H64.7366C64.8508 52.5705 64.8508 52.5641 64.8508 52.4375V50.8921C64.8508 50.8066 64.8603 50.6578 64.7969 50.6166C64.7619 50.5944 64.6636 50.6008 64.6064 50.6008L65.1618 50.2461H65.1586Z" fill="#DEA46E"/>
<path d="M68.1161 51.2764C68.4112 51.4537 68.6048 51.6184 68.627 51.9478C68.6365 52.1314 68.5762 52.3848 68.3541 52.5589C68.1573 52.7141 67.8971 52.7616 67.6623 52.6888C67.437 52.6191 67.2656 52.4703 67.1863 52.2296C67.1355 52.0681 67.1387 51.8338 67.2783 51.6596C67.383 51.5266 67.5004 51.4601 67.6496 51.3967C67.3608 51.2194 67.2593 51.0421 67.2751 50.7887C67.2847 50.6146 67.3703 50.4246 67.5925 50.3106C67.7829 50.2156 68.0875 50.2156 68.2747 50.3359C68.462 50.4626 68.5254 50.6051 68.5159 50.7761C68.5032 51.0199 68.3985 51.1149 68.1193 51.2732L68.1161 51.2764ZM67.3989 52.1599C67.4338 52.3468 67.5227 52.4893 67.7226 52.5589C67.84 52.6064 68.0336 52.5779 68.1478 52.4893C68.3287 52.3436 68.3509 52.1504 68.3319 52.0079C68.2906 51.7039 68.005 51.5741 67.7226 51.4537C67.4052 51.6912 67.3513 51.8908 67.3957 52.1599H67.3989ZM68.2843 50.6969C68.2652 50.5607 68.2018 50.4562 68.0716 50.3992C67.9701 50.3517 67.8019 50.3644 67.7131 50.4214C67.583 50.5069 67.548 50.6336 67.5512 50.7444C67.5576 50.9819 67.8019 51.1212 68.0145 51.2416C68.2525 51.0326 68.3033 50.8869 68.2843 50.7001V50.6969Z" fill="#DEA46E"/>
<path d="M71.4171 50.2375L71.3759 50.5415H70.5444L70.4334 51.1749C70.6872 51.0926 70.9887 51.1052 71.2172 51.3174C71.4615 51.5391 71.5123 51.8304 71.4647 52.0616C71.4076 52.3561 71.2299 52.5714 70.9094 52.6854C70.738 52.7424 70.4492 52.7551 70.2525 52.5841C70.2176 52.5588 70.1795 52.5239 70.1605 52.4922C70.1414 52.4669 70.1319 52.4479 70.1255 52.4353C70.1129 52.4036 70.1255 52.4004 70.1319 52.4068C70.3509 52.5714 70.5508 52.6031 70.7539 52.5303C70.9348 52.4701 71.0744 52.3212 71.122 52.1344C71.1696 51.9634 71.1601 51.7227 71.0109 51.5454C70.8681 51.3839 70.6174 51.3332 70.4524 51.3491C70.3858 51.3554 70.3604 51.3649 70.2557 51.3997L70.4619 50.285H71.2458C71.3156 50.285 71.341 50.2787 71.4203 50.2344L71.4171 50.2375Z" fill="#DEA46E"/>
<path d="M74.3043 50.2375L74.263 50.5415H73.4348L73.3237 51.1749C73.5776 51.0926 73.879 51.1052 74.1075 51.3174C74.3519 51.5391 74.4027 51.8304 74.3551 52.0616C74.2979 52.3561 74.1202 52.5714 73.7997 52.6854C73.6283 52.7424 73.3396 52.7551 73.1428 52.5841C73.1079 52.5588 73.073 52.5239 73.0508 52.4922C73.0318 52.4669 73.0222 52.4479 73.0159 52.4353C73.0032 52.4036 73.0127 52.4004 73.0222 52.4068C73.2412 52.5714 73.4411 52.6031 73.6442 52.5303C73.8251 52.4701 73.9616 52.3212 74.0123 52.1344C74.0599 51.9634 74.0504 51.7227 73.9013 51.5454C73.7585 51.3839 73.5078 51.3332 73.3427 51.3491C73.2761 51.3554 73.2507 51.3649 73.1428 51.3997L73.3491 50.285H74.1329C74.2059 50.285 74.2281 50.2787 74.3075 50.2344L74.3043 50.2375Z" fill="#DEA46E"/>
<path d="M11.3824 51.86C11.3824 51.765 11.3729 51.7492 11.2904 51.6573H11.7791C11.6966 51.7555 11.6871 51.765 11.6871 51.8568V52.2685C11.6902 52.373 11.6934 52.3857 11.722 52.4268C11.2174 52.7214 10.5415 52.8417 10.0147 52.5472C9.58947 52.3033 9.3832 51.9392 9.37368 51.537C9.36099 51.157 9.53869 50.7295 9.97979 50.4476C10.4812 50.1341 11.046 50.207 11.5379 50.4413L11.5792 50.9353C11.3475 50.5363 11.1698 50.4096 10.7731 50.3748C10.5066 50.3526 10.2146 50.4001 9.97345 50.701C9.7164 51.0018 9.69419 51.5402 9.77352 51.8442C9.87507 52.2052 10.0528 52.411 10.4177 52.5377C10.643 52.6169 11.1032 52.5757 11.3158 52.4332C11.3666 52.3952 11.3666 52.3888 11.3824 52.3603V51.8568V51.86Z" fill="#DEA46E"/>
<path d="M13.0874 50.4949C13.0874 50.3968 13.0779 50.3841 12.9954 50.2891H13.4745C13.7506 50.2891 14.1854 50.2796 14.3916 50.6184C14.4868 50.7704 14.4868 50.9668 14.3948 51.1378C14.2996 51.3183 14.1441 51.4101 13.9632 51.4671C14.0965 51.5589 14.1283 51.6128 14.2679 51.8059L14.6677 52.414C14.7883 52.5945 14.7947 52.5913 14.9533 52.6831H14.8581C14.4583 52.6831 14.5027 52.7243 14.2584 52.3348L13.9759 51.882C13.7411 51.5083 13.7951 51.5494 13.3889 51.5558V52.4773C13.3889 52.5723 13.3984 52.5818 13.4809 52.68H12.9922C13.0747 52.585 13.0842 52.5723 13.0842 52.4741V50.4949H13.0874ZM13.392 51.4228C13.5031 51.4323 13.5444 51.4386 13.6491 51.4291C13.8395 51.4069 13.9981 51.3404 14.0997 51.1378C14.1727 50.9921 14.1695 50.7704 14.0775 50.6248C13.9252 50.3809 13.4904 50.4158 13.3952 50.4158V51.4228H13.392Z" fill="#DEA46E"/>
<path d="M16.9969 50.2383L17.9426 52.455C17.9933 52.5722 18.0283 52.5943 18.1266 52.6767H17.5427C17.6348 52.5975 17.6538 52.5627 17.6189 52.4487C17.6062 52.4043 17.53 52.2238 17.5205 52.2048L17.3968 51.9293H16.4416L16.2924 52.2682L16.2036 52.4772C16.1655 52.5817 16.1845 52.5975 16.2639 52.6798H15.8799C15.937 52.6228 15.9878 52.5563 16.0227 52.4772L16.9937 50.2415L16.9969 50.2383ZM16.5019 51.7741H17.3301L16.9176 50.7703L16.5019 51.7741Z" fill="#DEA46E"/>
<path d="M19.6176 50.2891L21.0583 52.0529V50.5266C21.0583 50.4252 21.0583 50.3967 20.96 50.2891H21.3154C21.2233 50.3904 21.2138 50.4221 21.2138 50.5297V52.7243L19.4716 50.6184V52.4424C19.4716 52.5501 19.4812 52.5786 19.5732 52.6799H19.2178C19.3161 52.5723 19.3161 52.5469 19.3161 52.4456V50.5266C19.3161 50.4252 19.3161 50.3967 19.2178 50.2891H19.6144H19.6176Z" fill="#DEA46E"/>
<path d="M22.5947 52.6799C22.6772 52.5849 22.6868 52.5723 22.6868 52.4741V50.4949C22.6868 50.3967 22.6772 50.3841 22.5947 50.2891H23.4325C23.8577 50.2891 24.3845 50.3397 24.6892 50.8686C24.9049 51.2327 24.9018 51.6508 24.6892 52.0181C24.321 52.6609 23.8323 52.6799 23.2992 52.6799H22.5979H22.5947ZM22.9914 52.4931C23.2611 52.5723 23.6166 52.5596 23.7943 52.5121C24.0767 52.4424 24.3115 52.2398 24.4162 51.9643C24.521 51.6761 24.5368 51.1124 24.3083 50.7926C24.0227 50.3904 23.4864 50.4189 23.2135 50.4221H22.9882V52.4931H22.9914Z" fill="#DEA46E"/>
<path d="M29.4966 50.4674L29.5188 50.9963C29.395 50.6353 29.2776 50.4928 28.9 50.3946C28.6524 50.3281 28.2589 50.3724 28.0241 50.5751C27.6719 50.8791 27.6274 51.3161 27.6624 51.6328C27.7036 51.9495 27.8147 52.2725 28.2082 52.472C28.4557 52.6018 28.8904 52.5923 29.1158 52.4656C29.3379 52.3453 29.4585 52.1648 29.5473 51.94L29.5251 52.4561C29.0079 52.738 28.4208 52.8298 27.9194 52.5322C27.4878 52.2788 27.2911 51.8925 27.2911 51.5251C27.2879 51.1451 27.4307 50.7176 27.9067 50.4294C28.3891 50.1349 28.9698 50.2078 29.4902 50.4643L29.4966 50.4674Z" fill="#DEA46E"/>
<path d="M30.9057 50.4949C30.9057 50.3968 30.8962 50.3841 30.8137 50.2891H31.2929C31.569 50.2891 32.0037 50.2796 32.21 50.6184C32.3052 50.7704 32.3052 50.9668 32.2132 51.1378C32.118 51.3183 31.9625 51.4101 31.7816 51.4671C31.9149 51.5589 31.9466 51.6128 32.0862 51.8059L32.4861 52.414C32.6067 52.5945 32.613 52.5913 32.7717 52.6831H32.6765C32.2766 52.6831 32.3211 52.7243 32.0767 52.3348L31.7943 51.882C31.5595 51.5083 31.6134 51.5494 31.2072 51.5558V52.4773C31.2072 52.5723 31.2167 52.5818 31.2992 52.68H30.8105C30.8931 52.585 30.9026 52.5723 30.9026 52.4741V50.4949H30.9057ZM31.2104 51.4228C31.3215 51.4323 31.3627 51.4386 31.4674 51.4291C31.6578 51.4069 31.8165 51.3404 31.9181 51.1378C31.991 50.9921 31.9879 50.7704 31.8958 50.6248C31.7435 50.3809 31.3088 50.4158 31.2136 50.4158V51.4228H31.2104Z" fill="#DEA46E"/>
<path d="M35.8208 50.2891C35.7414 50.3872 35.7319 50.3967 35.7319 50.4917V51.8028C35.7319 52.0529 35.7224 52.4076 35.4019 52.5976C35.1036 52.7686 34.6022 52.7591 34.3198 52.6008C33.958 52.3918 33.9707 52.0878 33.9707 51.8154V50.4949C33.9707 50.3967 33.9612 50.3841 33.8818 50.2891H34.3674C34.288 50.3872 34.2785 50.3967 34.2785 50.4917V51.8154C34.2785 52.0688 34.2531 52.3189 34.5546 52.4994C34.7355 52.6103 35.1353 52.5913 35.3099 52.4931C35.5923 52.3379 35.5732 52.0149 35.5732 51.8313V50.4949C35.5732 50.3967 35.5637 50.3841 35.4812 50.2891H35.8176H35.8208Z" fill="#DEA46E"/>
<path d="M40.5149 50.4674L40.5371 50.9963C40.4133 50.6353 40.2959 50.4928 39.9183 50.3946C39.6708 50.3281 39.2773 50.3724 39.0424 50.5751C38.6902 50.8791 38.6458 51.3161 38.6807 51.6328C38.7219 51.9495 38.833 52.2725 39.2265 52.472C39.474 52.6018 39.9088 52.5923 40.1341 52.4656C40.3562 52.3453 40.4768 52.1648 40.5656 51.94L40.5434 52.4561C40.0262 52.738 39.4391 52.8298 38.9409 52.5322C38.5093 52.2788 38.3126 51.8925 38.3126 51.5251C38.3094 51.1451 38.4522 50.7176 38.9282 50.4294C39.4105 50.1349 39.9913 50.2078 40.5117 50.4643L40.5149 50.4674Z" fill="#DEA46E"/>
<path d="M41.8342 52.6799C41.9167 52.5849 41.9263 52.5723 41.9263 52.4741V50.4949C41.9263 50.3967 41.9167 50.3841 41.8342 50.2891H42.3229C42.2436 50.3872 42.2309 50.3967 42.2309 50.4917V52.5343H42.7291C42.929 52.5343 43.1417 52.5564 43.2908 52.3189L43.2273 52.6799H41.8311H41.8342Z" fill="#DEA46E"/>
<path d="M45.4361 50.2383L46.3818 52.455C46.4326 52.5722 46.4675 52.5943 46.5658 52.6767H45.9851C46.0771 52.5975 46.0962 52.5627 46.0613 52.4487C46.0486 52.4043 45.9724 52.2238 45.9629 52.2048L45.8391 51.9293H44.884L44.7348 52.2682L44.646 52.4772C44.6079 52.5817 44.6269 52.5975 44.7062 52.6798H44.3223C44.3794 52.6228 44.4302 52.5563 44.4651 52.4772L45.4329 50.2415L45.4361 50.2383ZM44.9411 51.7741H45.7725L45.36 50.7703L44.9442 51.7741H44.9411Z" fill="#DEA46E"/>
<path d="M48.8982 50.4242L48.8824 50.8264C48.784 50.5825 48.7015 50.4463 48.4445 50.3893C48.3207 50.3608 48.1462 50.3672 48.0256 50.4748C47.924 50.5667 47.8923 50.7124 47.9018 50.8105C47.9272 51.0132 48.1113 51.124 48.327 51.2444L48.5048 51.3489C48.8665 51.5484 49.0284 51.6624 49.0284 52.0139C49.0315 52.2482 48.9363 52.4699 48.6602 52.6251C48.4127 52.7676 48.0414 52.7549 47.759 52.5902C47.7209 52.5712 47.686 52.5522 47.5781 52.4541L47.5972 52.017C47.6829 52.2894 47.8288 52.4921 48.1049 52.5649C48.2414 52.6061 48.4476 52.5871 48.5841 52.4699C48.7205 52.3559 48.7523 52.2197 48.7396 52.074C48.7174 51.8397 48.5524 51.7574 48.3175 51.6212L48.1525 51.5262C47.8003 51.3299 47.6416 51.2222 47.6352 50.8675C47.6352 50.668 47.6987 50.4875 47.9367 50.345C48.2065 50.1867 48.6126 50.2215 48.9014 50.4274L48.8982 50.4242Z" fill="#DEA46E"/>
<path d="M51.5037 50.4242L51.4878 50.8264C51.3895 50.5825 51.307 50.4463 51.0499 50.3893C50.9262 50.3608 50.7516 50.3672 50.631 50.4748C50.5295 50.5667 50.4978 50.7124 50.5073 50.8105C50.5327 51.0132 50.7167 51.124 50.9325 51.2444L51.1102 51.3489C51.472 51.5484 51.6338 51.6624 51.6338 52.0139C51.6338 52.2482 51.5418 52.4699 51.2657 52.6251C51.0182 52.7676 50.6469 52.7549 50.3645 52.5902C50.3264 52.5712 50.2947 52.5522 50.1836 52.4541L50.2026 52.017C50.2883 52.2894 50.4343 52.4921 50.7104 52.5649C50.8468 52.6061 51.0531 52.5871 51.1896 52.4699C51.326 52.3559 51.3577 52.2197 51.345 52.074C51.3228 51.8397 51.1578 51.7574 50.923 51.6212L50.758 51.5262C50.4057 51.3299 50.2471 51.2222 50.2407 50.8675C50.2407 50.668 50.301 50.4875 50.5422 50.345C50.8119 50.1867 51.2181 50.2215 51.5069 50.4274L51.5037 50.4242Z" fill="#DEA46E"/>
<path d="M52.8555 52.679C52.9348 52.584 52.9443 52.5713 52.9443 52.4731V50.4939C52.9443 50.3958 52.9348 50.3831 52.8555 50.2881H54.1946V50.5383C54.1153 50.4623 53.8963 50.4084 53.6901 50.4084C53.4838 50.4084 53.2807 50.4148 53.2521 50.4148V51.2888H53.7789C53.8773 51.2888 53.9757 51.2349 54.0011 51.1906V51.501C53.9185 51.4218 53.8709 51.4091 53.7789 51.4091H53.2521V52.5111C53.4362 52.5555 53.8963 52.5491 53.9598 52.5428C54.1502 52.527 54.2264 52.5175 54.347 52.318L54.293 52.6758H52.8586L52.8555 52.679ZM53.3791 49.7054C53.5727 49.5059 53.6552 49.4141 53.7377 49.4426C53.7821 49.4553 53.8202 49.4996 53.8233 49.5439C53.836 49.6421 53.7218 49.6928 53.5155 49.8131L53.1728 50.0126H53.0776L53.3791 49.7086V49.7054Z" fill="#DEA46E"/>
<path d="M56.8955 52.6799C56.978 52.5849 56.9875 52.5723 56.9875 52.4741V50.4949C56.9875 50.3967 56.978 50.3841 56.8955 50.2891H58.2347V50.5392C58.1585 50.4632 57.9395 50.4094 57.7301 50.4094C57.5334 50.4094 57.3239 50.4157 57.2922 50.4157V51.2897H57.8221C57.9173 51.2897 58.0157 51.2359 58.0443 51.1916V51.5019C57.9586 51.4228 57.911 51.4101 57.8221 51.4101H57.2922V52.5121C57.4826 52.5564 57.9395 52.5501 58.003 52.5438C58.1902 52.5279 58.2696 52.5184 58.3902 52.3189L58.3362 52.6768H56.8987L56.8955 52.6799Z" fill="#DEA46E"/>
<path d="M59.9799 50.2891L61.4206 52.0529V50.5266C61.4206 50.4252 61.4206 50.3967 61.3223 50.2891H61.6777C61.5856 50.3904 61.5761 50.4221 61.5761 50.5297V52.7243L59.8339 50.6184V52.4424C59.8339 52.5501 59.8435 52.5786 59.9355 52.6799H59.5801C59.6785 52.5723 59.6785 52.5469 59.6785 52.4456V50.5266C59.6785 50.4252 59.6785 50.3967 59.5801 50.2891H59.9767H59.9799Z" fill="#DEA46E"/>
<path d="M65.1586 50.2461V52.4375C65.1586 52.5673 65.1586 52.5768 65.2665 52.6781H64.7366C64.8508 52.5705 64.8508 52.5641 64.8508 52.4375V50.8921C64.8508 50.8066 64.8603 50.6578 64.7969 50.6166C64.7619 50.5944 64.6636 50.6008 64.6064 50.6008L65.1618 50.2461H65.1586Z" fill="#DEA46E"/>
<path d="M68.1161 51.2764C68.4112 51.4537 68.6048 51.6184 68.627 51.9478C68.6365 52.1314 68.5762 52.3848 68.3541 52.5589C68.1573 52.7141 67.8971 52.7616 67.6623 52.6888C67.437 52.6191 67.2656 52.4703 67.1863 52.2296C67.1355 52.0681 67.1387 51.8338 67.2783 51.6596C67.383 51.5266 67.5004 51.4601 67.6496 51.3967C67.3608 51.2194 67.2593 51.0421 67.2751 50.7887C67.2847 50.6146 67.3703 50.4246 67.5925 50.3106C67.7829 50.2156 68.0875 50.2156 68.2747 50.3359C68.462 50.4626 68.5254 50.6051 68.5159 50.7761C68.5032 51.0199 68.3985 51.1149 68.1193 51.2732L68.1161 51.2764ZM67.3989 52.1599C67.4338 52.3468 67.5227 52.4893 67.7226 52.5589C67.84 52.6064 68.0336 52.5779 68.1478 52.4893C68.3287 52.3436 68.3509 52.1504 68.3319 52.0079C68.2906 51.7039 68.005 51.5741 67.7226 51.4537C67.4052 51.6912 67.3513 51.8908 67.3957 52.1599H67.3989ZM68.2843 50.6969C68.2652 50.5607 68.2018 50.4562 68.0716 50.3992C67.9701 50.3517 67.8019 50.3644 67.7131 50.4214C67.583 50.5069 67.548 50.6336 67.5512 50.7444C67.5576 50.9819 67.8019 51.1212 68.0145 51.2416C68.2525 51.0326 68.3033 50.8869 68.2843 50.7001V50.6969Z" fill="#DEA46E"/>
<path d="M71.4171 50.2375L71.3759 50.5415H70.5444L70.4334 51.1749C70.6872 51.0926 70.9887 51.1052 71.2172 51.3174C71.4615 51.5391 71.5123 51.8304 71.4647 52.0616C71.4076 52.3561 71.2299 52.5714 70.9094 52.6854C70.738 52.7424 70.4492 52.7551 70.2525 52.5841C70.2176 52.5588 70.1795 52.5239 70.1605 52.4922C70.1414 52.4669 70.1319 52.4479 70.1255 52.4353C70.1129 52.4036 70.1255 52.4004 70.1319 52.4068C70.3509 52.5714 70.5508 52.6031 70.7539 52.5303C70.9348 52.4701 71.0744 52.3212 71.122 52.1344C71.1696 51.9634 71.1601 51.7227 71.0109 51.5454C70.8681 51.3839 70.6174 51.3332 70.4524 51.3491C70.3858 51.3554 70.3604 51.3649 70.2557 51.3997L70.4619 50.285H71.2458C71.3156 50.285 71.341 50.2787 71.4203 50.2344L71.4171 50.2375Z" fill="#DEA46E"/>
<path d="M74.3043 50.2375L74.263 50.5415H73.4348L73.3237 51.1749C73.5776 51.0926 73.879 51.1052 74.1075 51.3174C74.3519 51.5391 74.4027 51.8304 74.3551 52.0616C74.2979 52.3561 74.1202 52.5714 73.7997 52.6854C73.6283 52.7424 73.3396 52.7551 73.1428 52.5841C73.1079 52.5588 73.073 52.5239 73.0508 52.4922C73.0318 52.4669 73.0222 52.4479 73.0159 52.4353C73.0032 52.4036 73.0127 52.4004 73.0222 52.4068C73.2412 52.5714 73.4411 52.6031 73.6442 52.5303C73.8251 52.4701 73.9616 52.3212 74.0123 52.1344C74.0599 51.9634 74.0504 51.7227 73.9013 51.5454C73.7585 51.3839 73.5078 51.3332 73.3427 51.3491C73.2761 51.3554 73.2507 51.3649 73.1428 51.3997L73.3491 50.285H74.1329C74.2059 50.285 74.2281 50.2787 74.3075 50.2344L74.3043 50.2375Z" fill="#DEA46E"/>
</g>
<defs>
<clipPath id="clip0_2612_1995">
<rect width="77.4684" height="60" fill="white"/>
</clipPath>
</defs>
</svg>
