<svg width="196" height="151" viewBox="0 0 196 151" fill="none" xmlns="http://www.w3.org/2000/svg">
<g clip-path="url(#clip0_668_16806)">
<path d="M108.478 75.1312C108.141 75.9441 107.731 76.4302 107.105 76.757C106.382 77.1555 104.985 77.1634 104.231 76.7729C102.922 76.1354 102.617 75.0515 102.496 74.1828C102.408 73.3938 102.432 71.9274 103.636 70.8993C104.383 70.2697 105.62 70.1422 106.406 70.3414C107.619 70.6443 107.972 71.0906 108.357 72.1904C108.373 72.2302 108.414 72.2542 108.454 72.2462C108.494 72.2382 108.526 72.1984 108.526 72.1585L108.454 70.4769C108.454 70.4769 108.43 70.4132 108.406 70.4052C106.463 69.4728 104.6 69.4329 103.163 70.2936C101.453 71.2978 101.107 72.7722 101.115 73.8401C101.115 75.1631 101.878 76.3505 103.203 77.1076C103.893 77.5061 104.656 77.7054 105.475 77.7054C106.438 77.7054 107.474 77.4264 108.51 76.8685C108.534 76.8526 108.558 76.8287 108.558 76.7968L108.63 75.1631C108.63 75.1232 108.606 75.0834 108.558 75.0754C108.518 75.0754 108.47 75.0913 108.454 75.1312H108.478Z" fill="white"/>
<path d="M119.887 69.9877L119.911 69.9638C119.911 69.9638 119.936 69.9 119.919 69.8681C119.903 69.8362 119.871 69.8203 119.839 69.8203H118.257C118.257 69.8203 118.193 69.8442 118.177 69.8681C118.161 69.892 118.169 69.9319 118.193 69.9638C118.442 70.2507 118.458 70.2746 118.458 70.5535V72.9922H114.219V70.5455C114.219 70.2825 114.227 70.2746 114.492 69.9638C114.516 69.9399 114.516 69.9 114.508 69.8681C114.492 69.8362 114.46 69.8203 114.428 69.8203H112.838C112.838 69.8203 112.774 69.8442 112.758 69.8681C112.742 69.9 112.75 69.9319 112.774 69.9638L112.79 69.9877C113.023 70.2586 113.047 70.2905 113.047 70.5615V76.8415C113.047 77.1125 113.023 77.1364 112.79 77.4074L112.766 77.4313C112.766 77.4313 112.742 77.495 112.75 77.5269C112.758 77.5588 112.798 77.5747 112.83 77.5747H114.42C114.42 77.5747 114.484 77.5508 114.492 77.5189C114.5 77.4871 114.492 77.4472 114.476 77.4233C114.219 77.1284 114.211 77.1125 114.211 76.8495V73.6218H118.45V76.8415C118.45 77.1205 118.434 77.1364 118.185 77.4313C118.161 77.4552 118.161 77.495 118.169 77.5269C118.177 77.5588 118.217 77.5747 118.249 77.5747H119.831C119.831 77.5747 119.895 77.5588 119.911 77.5269C119.927 77.495 119.919 77.4632 119.903 77.4313L119.879 77.4074C119.646 77.1284 119.63 77.1045 119.63 76.8495V70.5455C119.63 70.2825 119.646 70.2666 119.879 69.9877H119.887Z" fill="white"/>
<path d="M126.021 69.113C126.021 69.113 126.061 69.1051 126.078 69.0891L127.298 68.0132L128.518 69.0891C128.518 69.0891 128.558 69.113 128.574 69.113H128.936C128.936 69.113 129 69.0971 129.016 69.0652C129.032 69.0333 129.024 69.0014 129.008 68.9696L127.675 67.1764C127.675 67.1764 127.635 67.1445 127.603 67.1445H127.001C127.001 67.1445 126.945 67.1605 126.929 67.1764L125.588 68.9696C125.588 68.9696 125.564 69.0333 125.58 69.0572C125.596 69.0891 125.628 69.1051 125.66 69.1051H126.021V69.113Z" fill="white"/>
<path d="M131.031 77.3946C130.726 77.1635 130.629 77.0917 130.477 76.757L127.394 69.7198C127.394 69.7198 127.346 69.6641 127.313 69.6641C127.281 69.6641 127.249 69.688 127.233 69.7198L124.078 76.8128C123.965 77.0439 123.829 77.2432 123.644 77.4265C123.62 77.4504 123.612 77.4902 123.62 77.5221C123.636 77.554 123.668 77.5779 123.7 77.5779H124.937C124.937 77.5779 125.001 77.554 125.017 77.5221C125.033 77.4902 125.017 77.4504 124.993 77.4265C124.736 77.1714 124.72 77.1555 124.816 76.8845L125.098 76.231L125.571 75.2109H128.574L128.943 76.0318C128.975 76.0955 129.216 76.6534 129.264 76.7889C129.361 77.1156 129.313 77.1953 129.04 77.4185C129.008 77.4424 129 77.4822 129.016 77.5141C129.032 77.546 129.064 77.5699 129.096 77.5699H131.007C131.007 77.5699 131.079 77.546 131.087 77.5141C131.095 77.4743 131.087 77.4424 131.055 77.4185L131.023 77.3946H131.031ZM128.269 74.5415H125.844L127.057 71.6724L128.269 74.5415Z" fill="white"/>
<path d="M134.194 69.8203C134.146 69.8203 134.105 69.8602 134.105 69.908V70.7846C134.105 70.7846 134.13 70.8564 134.162 70.8643C134.194 70.8803 134.234 70.8643 134.258 70.8404C134.619 70.4101 135.157 70.4021 135.671 70.418H136.57V76.8415C136.57 77.1205 136.554 77.1364 136.305 77.4313C136.281 77.4552 136.281 77.495 136.289 77.5269C136.305 77.5588 136.337 77.5747 136.37 77.5747H137.951C137.951 77.5747 138.016 77.5588 138.032 77.5269C138.048 77.495 138.04 77.4632 138.024 77.4313L137.999 77.4074C137.767 77.1284 137.751 77.1045 137.751 76.8495V70.418H138.65C139.164 70.4021 139.694 70.4021 140.063 70.8404C140.087 70.8723 140.127 70.8803 140.159 70.8643C140.191 70.8484 140.215 70.8165 140.215 70.7846V69.908C140.215 69.8602 140.175 69.8203 140.127 69.8203H134.186H134.194Z" fill="white"/>
<path d="M148.831 76.3152C148.453 76.9129 148.228 76.9368 147.634 76.9847C147.434 77.0086 146.053 77.0245 145.426 76.897V73.5657H147.064C147.337 73.5657 147.474 73.6056 147.723 73.8287C147.747 73.8526 147.787 73.8606 147.819 73.8446C147.851 73.8287 147.875 73.7968 147.875 73.7649V72.7767C147.875 72.7767 147.851 72.705 147.811 72.697C147.771 72.6811 147.739 72.697 147.715 72.7289C147.634 72.8405 147.337 72.9999 147.064 72.9999H145.426V70.4018C145.426 70.4018 145.507 70.4018 145.563 70.4018C145.836 70.4018 146.318 70.3858 146.767 70.3858C147.426 70.3858 148.124 70.5532 148.349 70.7763C148.373 70.8003 148.413 70.8082 148.445 70.7923C148.477 70.7764 148.501 70.7445 148.501 70.7126V69.9236C148.501 69.8758 148.461 69.8359 148.413 69.8359H144.053C144.053 69.8359 143.989 69.8599 143.973 69.8838C143.957 69.9156 143.965 69.9555 143.989 69.9794C144.246 70.2663 144.262 70.2902 144.262 70.5691V76.8492C144.262 77.1281 144.238 77.152 143.989 77.4389C143.965 77.4628 143.965 77.5027 143.973 77.5346C143.989 77.5664 144.021 77.5824 144.053 77.5824H148.734C148.774 77.5824 148.815 77.5505 148.823 77.5107L149.007 76.379C149.007 76.3391 148.991 76.2993 148.951 76.2833C148.911 76.2674 148.871 76.2833 148.847 76.3232L148.831 76.3152Z" fill="white"/>
<path d="M159.741 77.3946C159.444 77.1635 159.356 77.0917 159.203 76.757L156.12 69.7198C156.12 69.7198 156.072 69.6641 156.04 69.6641C156.008 69.6641 155.975 69.688 155.959 69.7198L152.804 76.8128C152.7 77.0359 152.555 77.2352 152.354 77.4265C152.33 77.4504 152.322 77.4902 152.338 77.5221C152.354 77.554 152.387 77.5779 152.419 77.5779H153.671C153.671 77.5779 153.735 77.554 153.752 77.5221C153.768 77.4902 153.752 77.4504 153.735 77.4265L153.711 77.4105C153.47 77.1714 153.446 77.1555 153.551 76.8845L153.832 76.231L154.297 75.2109H157.3L157.678 76.0318C157.71 76.0955 157.951 76.6534 157.991 76.7969C158.095 77.1156 158.047 77.1953 157.774 77.4265C157.742 77.4504 157.734 77.4902 157.75 77.5221C157.766 77.554 157.798 77.5779 157.83 77.5779H159.725C159.725 77.5779 159.797 77.554 159.805 77.5221C159.813 77.4902 159.805 77.4504 159.773 77.4265L159.733 77.3946H159.741ZM154.562 74.5415L155.783 71.6724L156.995 74.5415H154.562Z" fill="white"/>
<path d="M169.216 69.8206H168.124C168.124 69.8206 168.06 69.8445 168.043 69.8684C168.027 69.9003 168.035 69.9402 168.06 69.9641C168.316 70.251 168.333 70.2749 168.333 70.5538V74.9052C168.333 75.495 168.341 76.3796 167.522 76.8259C166.984 77.1128 165.715 77.1766 165.153 76.8498C164.286 76.3398 164.294 75.6544 164.294 74.9291V70.5459C164.294 70.2829 164.31 70.2669 164.559 69.9641C164.583 69.9402 164.583 69.9003 164.567 69.8684C164.551 69.8366 164.519 69.8206 164.487 69.8206H162.905C162.905 69.8206 162.841 69.8445 162.825 69.8684C162.809 69.9003 162.817 69.9322 162.841 69.9641C163.09 70.251 163.106 70.2749 163.106 70.5538V74.8335C163.106 75.6863 163.106 76.6506 164.286 77.3121C164.776 77.583 165.426 77.7105 166.084 77.7105C166.743 77.7105 167.409 77.575 167.907 77.2961C169.023 76.6426 169.023 75.4233 169.023 74.698V70.5379C169.023 70.2829 169.039 70.2669 169.264 69.98L169.288 69.9481C169.288 69.9481 169.312 69.8844 169.296 69.8525C169.28 69.8206 169.248 69.8047 169.216 69.8047V69.8206Z" fill="white"/>
<path d="M195.977 104.009L195.8 103.882L195.712 103.858C195.519 103.858 195.254 103.986 195.126 104.233C194.836 104.703 193.512 106.193 191.866 107.652C190.661 108.712 188.863 110.13 187.105 110.871C185.74 111.445 184.503 111.469 183.692 110.959C182.713 110.329 182.528 109.062 183.227 107.811C183.676 106.99 184.969 105.317 186.462 103.372C188.727 100.423 191.296 97.0759 192.026 95.3386C192.91 93.2186 192.95 91.2262 192.139 90.0228C191.713 89.4012 191.087 89.0585 190.364 89.0585C188.967 89.0585 185.892 89.9192 180.971 95.6733C180.81 95.8646 180.561 96.008 180.441 96.016C180.441 96.016 180.377 95.9044 180.545 95.4661C181.019 94.2467 181.147 92.9955 180.906 91.8559C180.641 90.5967 179.461 89.2418 177.518 89.2418C175.575 89.2418 173.953 91.1864 172.942 92.35L172.701 92.6289C172.548 92.8042 172.083 93.3382 171.416 94.1352C168.092 98.0243 159.269 108.353 157.31 109.883C156.226 110.736 155.511 111.039 154.508 111.071C154.042 111.071 153.697 110.951 153.48 110.728C153.263 110.505 153.151 110.154 153.167 109.7C153.207 108.56 155.624 105.332 157.567 102.734C158.369 101.666 159.132 100.646 159.702 99.8095C161.87 96.6695 166.607 90.7003 167.057 90.1902C167.281 89.9352 167.482 89.6722 167.378 89.4411C167.241 89.1382 166.824 89.1621 166.334 89.194C166.037 89.2099 165.708 89.2418 165.395 89.2657C164.632 89.3295 163.893 89.3534 163.773 89.3135C163.259 89.1701 162.898 89.3454 162.737 89.7678C162.52 90.3655 160.545 93.2665 160.256 93.6171C160.007 93.92 159.855 93.7207 159.855 93.5613C159.855 93.0832 159.702 90.6604 156.651 89.4889C156.178 89.3056 155.624 89.2179 155.005 89.2179C152.107 89.2179 147.771 91.3299 144.464 94.3503C143.099 95.5936 141.71 96.279 138.554 96.0239C137.984 95.9761 137.864 95.8805 137.856 95.8805C137.856 95.753 138.161 95.2828 138.41 94.9002C138.659 94.5097 138.94 94.0794 139.156 93.657C139.887 92.2464 140.634 90.1902 140.674 88.7557C140.69 88.0464 140.553 87.5284 140.256 87.2255C139.686 86.6437 138.45 87.106 137.751 87.5602C136.603 88.3094 134.773 90.2938 134.476 92.1587C134.179 94.0076 134.347 94.5018 135.776 95.9363C135.905 96.0718 135.961 96.1913 135.961 96.3348C135.961 96.5021 135.744 96.9564 135.303 97.5302C134.484 98.5822 132.003 101.778 127.956 105.548C125.194 108.114 122.874 109.787 121.999 110.385C120.465 111.437 119.566 111.605 118.53 111.015C118.209 110.839 118.025 110.568 117.952 110.178C117.687 108.751 119.173 106.217 120.305 104.87C120.762 104.328 122.938 101.475 125.243 98.4547C127.756 95.1632 130.357 91.7522 130.686 91.3936C130.919 91.1386 131.16 90.9314 131.377 90.7401C131.786 90.3894 132.099 90.1105 132.099 89.7758C132.099 89.3135 131.682 89.3135 131.529 89.3135H131.248C131.176 89.3135 131.096 89.3135 131.023 89.3135C130.879 89.2976 130.71 89.2896 130.542 89.2817C130.108 89.2578 129.618 89.2418 129.329 89.0505L129.161 88.939C128.759 88.668 128.382 88.5405 127.948 89.0266C127.796 89.194 127.475 89.7041 126.977 90.4691C125.901 92.1348 124.102 94.9321 122.175 97.2353C121.726 97.7693 121.204 98.4228 120.618 99.148C117.519 102.997 112.822 108.815 108.599 110.728C106.913 111.493 105.837 111.549 105.532 110.871C105.122 109.987 105.965 108.17 106.535 107.524C107.788 106.113 114.974 97.6338 115.865 96.1355C116.756 94.6452 117.487 91.561 115.664 89.6562C115.19 89.1621 114.532 88.9071 113.729 88.9071C112.18 88.9071 110.14 89.8953 108.663 91.3777C107.74 92.2862 104.649 95.7609 95.1504 107.134L94.7971 107.556C93.5286 109.078 90.7827 111.493 88.8237 111.493C88.5106 111.493 88.2215 111.429 87.9726 111.302C87.5953 111.118 87.3785 110.855 87.2902 110.513C87.0252 109.421 88.2697 107.747 88.7996 107.03L88.9602 106.815C89.0967 106.624 89.5623 106.026 90.2046 105.197C92.2199 102.607 95.9774 97.7932 96.4591 96.6217C96.989 95.3306 97.7518 92.9078 96.8846 91.1705C96.435 90.2779 95.6161 89.6722 94.4519 89.3693C92.9023 88.9709 91.2805 88.9709 91.1761 88.9709C91.1601 88.9709 90.6703 88.9868 90.6141 88.8832C90.5981 88.8513 90.5579 88.7158 90.7988 88.3413C91.5294 87.2175 92.0513 85.3287 91.144 84.6991C90.309 84.1174 87.8281 86.0859 87.7077 87.5921C87.6113 88.7397 87.8522 89.1382 88.2938 89.4012C88.5668 89.5606 88.8719 89.7359 88.358 90.6763C87.7719 91.7363 78.4986 104.472 75.1907 107.668C71.7624 110.999 69.8275 112.075 68.5589 111.365C68.2056 111.166 67.9889 110.895 67.9086 110.545C67.6998 109.676 68.3421 108.552 68.7436 107.962C69.4019 106.99 80.6824 91.6088 81.4612 90.772C81.959 90.23 82.1758 89.9272 82.0634 89.6722C81.9671 89.449 81.662 89.4171 81.389 89.4171H81.1481C80.1285 89.4809 79.2212 89.4809 78.876 89.4809H78.611C78.3461 89.4729 78.1132 89.5606 77.7519 90.0069C77.6716 90.1105 77.3585 90.5249 76.8848 91.1466C74.8294 93.8403 69.3698 101.013 67.6035 103.085L67.1378 103.635C66.4473 104.456 65.4036 105.707 64.0628 107.054C63.6533 107.468 63.2197 107.891 62.7541 108.313C62.6657 108.393 62.5774 108.472 62.4891 108.544C61.9913 108.99 61.4775 109.429 60.9315 109.859C57.9448 112.194 56.0339 112.816 54.5325 111.875C54.0267 111.565 53.7216 111.086 53.6092 110.441C53.3121 108.68 54.5165 105.954 56.9171 102.973C58.8199 100.606 63.2358 94.6133 63.0672 90.0547C62.9708 87.3132 61.3731 84.9861 60.8833 84.3325C61.8789 83.8145 66.3108 81.4874 68.583 79.7102C69.9399 78.6502 71.361 77.5664 72.774 76.4905C76.2987 73.8047 79.9438 71.0233 82.5291 68.6324C85.853 65.5482 94.7008 58.6147 99.3254 58.0647C103.235 57.6025 105.427 58.272 106.495 60.2644C107.033 61.2685 107.9 61.9141 108.703 61.9141C109.048 61.9141 109.337 61.7945 109.546 61.5634C109.755 61.3323 109.835 61.0055 109.771 60.623C109.602 59.6427 108.551 58.4473 107.218 57.7221C106.15 57.1403 104.456 56.8215 102.449 56.8215C100.225 56.8215 97.8722 57.2279 95.9774 57.9372C92.5732 59.2283 86.5836 63.3725 81.0759 68.2499C75.4396 73.2468 67.1619 80.2601 60.2169 83.687C60.0403 83.3762 59.6228 82.7227 58.9082 82.3481C58.8601 82.1728 59.3418 81.4396 59.5746 81.0809L60.3855 79.7899C61.7745 77.5424 64.6649 72.8802 68.2217 68.1463C73.2076 61.5156 77.0614 58.3038 78.6672 58.0647C79.2212 57.9691 79.2212 57.4989 79.2212 57.2997C79.2212 56.9012 78.9803 56.7498 78.2818 57.0128C77.8161 57.1801 74.8535 58.3277 72.8945 59.316C71.9952 59.7702 70.7267 60.5194 69.3859 61.3243C67.8283 62.2488 66.0619 63.3008 64.6248 64.026C63.3 64.6875 58.6915 66.8712 55.1106 66.9907H54.958C54.123 66.9907 53.5129 66.7436 53.1435 66.2575C52.4049 65.2852 52.6698 63.5638 53.0231 62.2966C53.0954 62.0256 53.2158 61.7148 53.3442 61.3562C53.9223 59.8101 54.7975 57.483 53.7055 54.7733C52.9027 52.7968 49.6269 51.6094 44.9381 51.6094C42.7542 51.6094 40.4339 51.8724 38.4106 52.3585C32.678 53.7213 21.4216 59.053 19.8238 69.4374C19.3742 72.3303 19.9041 74.6734 21.4055 76.4028C23.9266 79.3197 28.5351 79.758 31.0642 79.758C31.827 79.758 32.5977 79.7181 33.2882 79.6385C37.7201 79.1523 42.425 76.355 43.8702 74.1633C44.0228 73.9322 44.1833 73.5019 44.0549 73.2548L43.8943 73.0954H43.7819C43.6856 73.0954 43.5732 73.1353 43.4447 73.2229C43.3564 73.2867 43.252 73.3983 43.0834 73.5975C42.1842 74.6256 39.7996 77.3671 34.0991 78.4749L30.4701 78.8415C25.9177 78.8415 22.4974 76.9686 21.7508 74.0757C20.3859 68.7599 22.369 65.5323 25.3236 61.5554C28.776 56.9251 35.3837 54.072 38.7398 53.3627C40.4258 53.012 42.9469 52.5896 45.3796 52.5896C47.1219 52.5896 48.5189 52.8048 49.5386 53.2431C51.7545 54.1836 50.2451 57.6981 49.4342 59.5869L49.2656 59.9934C48.4386 61.9778 48.4145 64.8628 50.3495 66.5205C51.0641 67.1501 52.7983 68.2499 55.7449 67.9391C58.8039 67.6203 62.9628 65.9228 65.1627 64.9425C66.5838 64.3049 68.4304 63.1573 70.2209 62.0495C71.8026 61.0693 73.2959 60.1368 74.2433 59.7304C74.4601 59.6348 74.6608 59.579 74.7652 59.4993C74.7652 59.4993 74.7251 59.6746 74.1068 60.1528C72.8784 61.0932 63.5007 71.4377 61.341 74.0677C59.4462 76.3869 56.5718 80.0608 56.0098 80.7781C55.4157 80.4753 53.0873 79.3994 50.5663 79.3994H50.2371C47.9569 79.495 46.1665 80.5789 46.1665 81.8859C46.1665 83.9261 47.9649 85.257 51.9874 86.1974C51.9874 86.1974 34.0028 117.096 12.0198 117.096C-0.448971 117.096 -0.280366 104.432 6.84924 104.073C5.42814 104.392 4.75372 106.894 7.45943 106.894C10.0206 106.894 10.7272 103.053 7.14631 103.053C-1.28397 103.053 -5.29839 118.14 13.0796 118.14C38.4909 118.14 56.1624 86.4684 56.1624 86.4684C56.4835 85.9424 56.7244 85.775 57.2302 85.6953C58.017 85.5758 59.2294 85.2331 60.0242 84.8187C60.3775 85.1614 61.5899 86.4525 61.349 88.0623C60.8753 91.2581 58.7717 93.8801 56.7404 96.4224C55.3595 98.1518 54.0508 99.7776 53.2479 101.555C51.7786 104.806 51.5056 108.576 52.5655 110.951C53.0873 112.123 53.8982 112.896 54.958 113.23C55.215 113.31 55.504 113.358 55.8011 113.358C58.7637 113.358 63.3402 109.429 64.8978 107.867C65.0021 107.755 65.3313 107.413 65.5079 107.413C65.5882 107.413 65.6685 107.62 65.6685 108.058C65.6685 109.564 66.6721 112.051 68.2377 112.521C70.1888 113.087 73.2799 111.349 76.668 107.731C80.1766 103.986 86.9128 95.219 89.4901 90.7082C89.8273 90.1105 90.0922 90.0547 90.3492 90.0547H90.5659C90.8229 90.0308 91.2725 90.0069 91.7944 90.0069C93.8337 90.0069 95.0621 90.3655 95.2468 91.0111C95.6803 92.4854 93.1673 95.498 90.7426 98.3989C88.8719 100.646 86.9289 102.965 86.2304 104.711C85.3151 107.006 85.3793 109.397 86.399 111.118C86.9048 111.971 87.5872 112.513 88.2697 112.601C90.3973 112.888 93.3279 110.863 97.3423 105.994L98.1853 104.974C102.529 99.7139 106.632 94.7488 109.257 92.2225C110.959 90.5807 112.549 89.9989 113.528 89.9989C113.914 90.0069 114.387 90.1743 114.596 90.509C114.757 90.7799 114.725 91.1306 114.508 91.561C113.97 92.597 112.75 94.2069 111.337 96.0718L110.469 97.2194C110.02 97.8171 109.498 98.4626 108.952 99.1401C105.765 103.093 101.79 108.01 105.058 111.692C106.575 113.39 109.964 111.844 115.656 106.767C115.881 106.568 116.114 106.361 116.266 106.249C116.234 106.456 116.146 106.799 116.098 106.99C115.568 109.038 116.29 111.031 117.944 112.067C118.281 112.282 118.755 112.521 119.454 112.521C120.626 112.521 122.143 111.828 124.094 110.393C127.683 107.771 134.749 100.415 136.483 97.7773C136.9 97.1477 137.173 96.8448 137.366 96.8448C137.43 96.8448 137.495 96.8687 137.583 96.9006C137.679 96.9404 137.808 96.9803 137.96 96.9962C138.281 97.0281 139.012 97.0759 139.775 97.0759C140.537 97.0759 141.14 97.0281 141.557 96.9325C141.758 96.8847 142.047 96.8289 142.312 96.805C142.312 96.8289 142.296 96.9803 141.822 97.5461C140.401 99.2596 135.423 107.078 138.972 111.326C139.534 112.003 140.345 112.346 141.356 112.346C144.785 112.346 149.61 108.488 150.389 107.66C150.646 107.389 151.119 106.879 151.208 106.839C151.224 106.871 151.288 107.014 151.208 107.739C151.039 109.269 151.698 111.198 153.103 111.772C153.432 111.907 153.946 112.091 154.588 112.091C156.354 112.091 158.369 110.768 160.738 108.058C165.033 103.125 172.645 94.3503 173.873 92.7803C175.423 90.7959 177.253 89.8236 178.626 90.3177C178.915 90.4213 179.092 90.5887 179.164 90.8278C179.485 91.8479 177.952 94.0076 176.932 95.4342C176.426 96.1515 174.941 98.2236 173.223 100.614C170.148 104.91 166.318 110.258 166.021 110.696C165.844 110.975 165.443 111.652 165.66 112.059C165.708 112.146 165.836 112.306 166.125 112.306C166.647 112.306 169.401 111.979 169.522 111.963H169.626L169.674 111.86C169.674 111.852 170.1 111.023 172.051 108.441L173.351 106.711C175.543 103.778 178.546 99.7617 180.73 97.3788C182.649 95.2828 187.362 90.4054 189.77 90.4054C189.875 90.4054 189.979 90.4134 190.075 90.4373C190.332 90.493 190.493 90.6126 190.557 90.7959C190.959 91.8319 188.823 94.7727 186.936 97.3628C186.382 98.1279 185.828 98.893 185.33 99.6103C185.065 100.001 184.784 100.391 184.511 100.79C182.906 103.061 181.252 105.412 181.131 107.683C181.059 109.126 181.605 110.377 182.793 111.509C183.54 112.218 184.68 112.266 185.475 112.202C186.896 112.099 188.148 111.421 189.072 110.839C192.452 108.727 194.933 106.209 195.816 104.751C196.017 104.416 196.073 104.201 196.009 104.049M54.9741 82.2445C54.8938 82.372 54.5486 82.8343 54.1632 83.3443C53.6975 83.9659 53.1756 84.6593 52.991 84.9382C52.9348 85.0259 52.8063 85.0976 52.445 85.1215C51.9472 85.1056 51.1925 84.9143 49.7714 84.4601C48.1576 83.95 46.9372 82.6828 47.154 81.7584C47.2744 81.2244 48.0532 80.7143 49.1291 80.4673C49.5305 80.3717 49.9641 80.3238 50.4378 80.3238C52.6779 80.3238 54.9179 81.4077 54.942 81.4236C55.0785 81.4874 55.1588 81.5591 55.1829 81.6468C55.231 81.8141 55.0865 82.0532 54.9741 82.2445ZM59.3338 83.95C59.2615 84.1652 58.4426 84.4282 58.0411 84.5637C57.8003 84.6434 57.5353 84.731 57.463 84.8107C57.463 84.7788 57.4952 84.6513 57.8565 84.1652C58.0411 83.9022 58.4506 83.3045 58.4426 83.2885C58.7557 83.0734 59.0287 83.4798 59.2535 83.8066L59.3338 83.95ZM89.7229 88.3253C89.5784 88.5485 89.458 88.6282 89.2974 88.5644C89.177 88.413 89.0886 88.0304 89.177 87.6479C89.3215 87.0024 90.301 85.7113 90.59 85.6953C90.7988 85.9026 90.1966 87.632 89.7309 88.3253H89.7229ZM137.31 94.7966C137.029 95.227 136.844 95.2748 136.772 95.2748C136.7 95.2748 136.643 95.235 136.579 95.1553C136.186 94.6611 135.873 93.0433 136.282 91.6407C136.836 89.712 138.032 88.931 138.747 88.4608L138.932 88.3413C139.124 88.2137 139.317 88.142 139.47 88.142C139.606 88.142 139.662 88.1978 139.702 88.2456C139.791 88.3572 139.903 88.676 139.678 89.5128C139.237 91.2023 137.8 94.0475 137.31 94.7966ZM150.011 106.584C147.009 109.413 143.749 111.246 141.71 111.246C141.035 111.246 140.489 111.047 140.104 110.664C138.683 109.238 141.894 103.778 145.379 99.148C147.137 96.805 151.802 90.5807 155.688 90.5807C156.081 90.5807 156.459 90.6445 156.812 90.772C157.751 91.1067 158.378 91.6885 158.675 92.5014C159.116 93.7128 158.723 95.0835 158.249 95.8885C158.209 95.9522 154.267 102.559 150.003 106.584H150.011Z" fill="white"/>
<path d="M83.541 79.8236C82.8906 80.7242 82.425 82.087 82.7863 82.9557C82.9629 83.394 83.3322 83.665 83.8621 83.7526C83.9585 83.7686 84.0548 83.7765 84.1512 83.7765C85.484 83.7765 87.0576 82.3898 87.6839 81.3936C88.5349 80.0229 88.5911 79.0187 87.8525 78.405C87.5875 78.1819 87.1941 78.0703 86.7284 78.0703C85.8372 78.0703 84.4643 78.5246 83.549 79.8236" fill="white"/>
<path d="M102.753 2.25443C102.802 2.50945 102.842 2.63697 102.842 2.98763C102.842 3.33829 102.97 3.00357 102.97 2.66884C102.97 2.33412 102.689 1.9197 102.753 2.25443ZM103.091 2.33412C103.123 3.04342 103.227 2.53336 103.195 2.19864C103.163 1.86391 103.075 2.11894 103.091 2.33412ZM104.142 5.91247C104.142 5.91247 104.295 5.88059 104.207 5.6176C104.118 5.3546 104.102 5.30678 104.102 5.30678C104.102 5.30678 103.982 4.725 103.982 5.01191C103.982 5.2749 103.998 5.50602 104.078 5.70526L104.158 5.9045L104.142 5.91247ZM102.938 0.501114C102.874 0.485174 102.818 0.477205 102.769 0.477205C102.641 0.477205 102.761 0.485174 102.938 0.501114ZM107.282 9.18798C107.177 9.21189 107.001 9.10031 106.511 9.10031C106.021 9.10031 105.283 8.98874 105.002 8.92498C104.11 8.72574 104.913 9.10828 105.17 9.20392C105.427 9.29955 106.021 9.2597 106.439 9.29955C106.856 9.3394 107.394 9.1561 107.29 9.18001L107.282 9.18798ZM104.207 4.55764C104.255 4.87642 104.343 4.50982 104.287 4.29464C104.223 4.07946 104.134 3.9121 104.134 3.61723C104.134 3.32235 104.086 2.57321 104.07 3.08326C104.054 3.44987 104.006 3.61723 104.102 3.9918C104.191 4.3584 104.167 4.23886 104.207 4.55764ZM103.588 2.9159C103.508 3.2825 103.556 3.25063 103.556 3.56144C103.556 3.87225 103.54 3.87225 103.54 3.87225C103.54 3.87225 103.556 3.92007 103.637 4.03962C103.717 4.15916 103.805 4.14322 103.733 3.82444C103.653 3.50565 103.781 3.25859 103.797 3.04342C103.869 1.9994 103.669 2.5493 103.596 2.92387L103.588 2.9159ZM113.159 15.0536C113.159 15.0536 113.183 14.9978 113.191 14.9739C113.303 14.7348 113.36 14.695 113.568 14.7428C113.809 14.7906 114.042 14.8623 114.283 14.9101C114.339 14.9261 114.411 14.9261 114.468 14.9101C114.5 14.9022 114.564 14.8384 114.556 14.8065C114.556 14.7508 114.516 14.6711 114.476 14.6472C114.411 14.6153 114.331 14.6232 114.267 14.6153C114.371 14.5595 114.492 14.5595 114.588 14.5276C114.652 14.5037 114.74 14.416 114.684 14.3284C114.636 14.2487 114.66 14.0574 114.508 14.0973C114.267 14.153 114.034 14.2168 113.793 14.2726C113.729 14.2885 113.657 14.2726 113.576 14.2646C113.633 14.1451 113.673 14.0574 113.721 13.9697C113.785 13.8582 113.857 13.7625 113.905 13.643C113.93 13.5792 113.938 13.4517 113.905 13.4119C113.833 13.3322 113.745 13.38 113.681 13.4756C113.665 13.4995 113.657 13.5234 113.641 13.5473C113.568 13.6988 113.488 13.8502 113.416 13.9936C113.352 14.1212 113.303 14.3045 113.215 14.3443C113.087 14.4001 112.918 14.3682 112.773 14.3443C112.549 14.3045 112.316 14.2407 112.091 14.1929C111.987 14.169 111.882 14.1291 111.77 14.1132C111.673 14.0972 111.577 14.0973 111.481 14.0893C111.794 13.9618 112.099 13.898 112.412 13.8103C112.685 13.7386 112.95 13.643 113.223 13.5792C113.319 13.5553 113.343 13.5075 113.335 13.4039C113.319 13.2684 113.231 13.3003 113.167 13.3003C113.119 13.3003 113.079 13.3401 113.03 13.3481C112.677 13.4198 112.348 13.5713 111.987 13.5633L111.963 13.627C111.963 13.627 111.946 13.6031 111.93 13.5952C111.946 13.5872 111.963 13.5792 111.987 13.5633C112.003 13.4995 112.019 13.4198 112.051 13.364C112.107 13.2684 112.187 13.1967 112.252 13.1011C112.268 13.0692 112.268 13.0214 112.276 12.9815C112.235 12.9815 112.171 12.9417 112.147 12.9656C111.971 13.1329 111.802 13.3003 111.633 13.4756C111.4 13.7306 110.887 13.9299 110.517 13.8661C110.582 13.8103 110.63 13.7785 110.662 13.7386C110.742 13.643 110.822 13.5473 110.895 13.4437C110.911 13.4198 110.911 13.3561 110.895 13.3322C110.879 13.3003 110.822 13.2844 110.798 13.2923C110.742 13.3162 110.686 13.3481 110.638 13.3959C110.509 13.5155 110.397 13.651 110.26 13.7546C110.196 13.8103 110.092 13.8422 110.02 13.8263C109.674 13.7227 109.329 13.643 108.936 13.651C109.016 13.4198 109.088 13.2365 109.193 12.9656C109.072 13.0373 108.992 13.0612 108.96 13.109C108.904 13.1967 108.855 13.3083 108.823 13.4198C108.791 13.5075 108.767 13.5792 108.671 13.5633C108.574 13.5473 108.59 13.4756 108.582 13.4039C108.582 13.3003 108.51 13.2604 108.462 13.3242C108.277 13.5553 108.109 13.4995 107.916 13.3401C107.972 13.2604 108.028 13.1967 108.077 13.1329C108.181 12.9974 108.093 12.9337 108.012 12.8699C107.924 13.0293 107.836 13.1887 107.739 13.3401C107.723 13.364 107.667 13.38 107.643 13.372C107.418 13.2525 107.177 13.2923 106.944 13.2365C106.864 13.1409 106.736 13.125 106.591 13.1489C106.439 13.117 106.278 13.0931 106.126 13.0532C106.069 13.0373 106.005 13.0214 105.941 13.0134C106.053 12.8062 106.182 12.5432 106.262 12.4316C106.415 12.2324 106.985 11.547 106.985 11.547L107.025 11.4354C107.065 11.3238 107.145 11.4593 107.145 11.4593L107.185 11.2601C107.217 11.0608 107.33 11.1405 107.346 10.9811C107.362 10.8217 107.394 10.7102 107.442 10.75C107.426 10.6145 107.539 10.7978 107.49 10.4073C107.579 10.4073 107.972 10.3675 108.133 10.2958C108.293 10.224 108.574 10.1364 108.743 9.91321C108.879 9.80164 109.112 9.65818 109.112 9.65818C109.112 9.65818 109.201 9.65818 109.12 9.56255C109.185 9.443 109.731 9.22782 110.012 9.1561C110.293 9.08437 110.646 9.09234 110.758 8.95686C110.83 8.86919 111.264 8.88513 111.529 8.82137C111.786 8.75762 112.187 8.68589 112.444 8.64604C112.701 8.6062 113.038 8.66995 113.311 8.66995C113.584 8.66995 114.275 8.78153 114.54 8.75762C114.636 8.82934 115.359 8.85325 115.768 8.90904C116.178 8.95686 116.539 8.90904 116.788 8.74965C116.667 8.70183 116.724 8.56635 116.33 8.45477C115.937 8.3432 114.957 8.13599 114.339 8.00848C114.813 8.00848 115.816 8.04832 116.049 7.96066C116.282 7.87299 116.001 7.7136 115.664 7.62594C115.327 7.53827 115.054 7.4506 114.66 7.40279C114.267 7.35497 112.886 7.17167 112.581 7.11588C112.276 7.06009 112.533 7.00431 112.701 7.00431C112.525 6.89273 111.698 6.7971 111.449 6.73334C111.2 6.66958 111.272 6.64567 111.352 6.62177C111.256 6.46237 110.437 6.23922 110.14 6.1675C109.843 6.09577 109.915 6.07186 110.044 6.04795C109.819 6.04795 109.634 5.96029 108.839 5.75308C108.679 5.6415 108.205 5.54587 107.659 5.36257C107.659 5.36257 107.683 5.31475 107.707 5.22709C107.458 5.20318 107.201 4.86845 106.744 4.75688C106.744 4.75688 106.904 4.73297 106.88 4.66921C106.543 4.62937 106.061 4.2548 105.74 3.87225C105.419 3.48971 105.234 1.89579 105.13 1.56904C105.034 1.25026 104.6 0.532992 104.126 0.349691C104.126 0.349691 104.086 0.285934 104.223 0.301874C103.556 -0.152394 102.416 -0.0089408 102.063 0.254056C101.878 0.301874 101.629 0.429387 101.429 0.795989C101.268 0.867715 100.899 0.995229 100.674 1.20244C100.65 1.2662 100.224 1.37777 100.032 1.48137C99.8309 1.59295 99.574 1.80016 99.5098 1.98346C99.5499 1.95955 100.032 2.03128 100.144 2.03128C100.256 2.03128 100.786 1.98346 100.899 1.96752C101.011 1.95158 101.132 1.92767 101.381 2.03128C101.493 2.11894 101.694 2.15879 101.726 2.19067C101.766 2.23052 101.878 2.32615 101.935 2.39788C101.999 2.4696 101.983 2.4696 102.031 2.67681C102.079 2.88402 102.095 2.74854 102.151 2.88402C102.216 3.01951 102.224 3.06732 102.191 3.1789C102.151 3.29047 102.167 3.44987 102.143 3.68098C102.119 3.9121 102.103 4.77282 102.071 5.0916C102.111 5.16333 102.111 5.20318 102.087 5.34663C102.127 5.48211 102.135 5.70526 102.159 5.79293C102.183 5.88059 102.135 6.15156 102.127 6.23126C102.111 6.31892 102.224 6.54207 102.264 6.62177C102.304 6.70943 102.336 6.95649 102.336 7.04415C102.336 7.13182 102.432 7.21949 102.472 7.38685C102.505 7.56218 102.593 7.75345 102.593 7.66578C102.593 7.57812 102.705 7.75345 102.753 7.84111C102.802 7.92878 102.93 8.09614 102.978 8.23162C103.026 8.36711 103.235 8.43087 103.259 8.54244C103.283 8.65401 103.484 8.71777 103.54 8.77356C103.605 8.83731 103.837 9.05249 103.91 9.09234C103.982 9.13219 104.319 9.43503 104.367 9.47488C104.415 9.51473 104.44 9.67412 104.504 9.65021C104.568 9.6263 104.817 9.87336 104.849 9.92915C104.889 9.99291 104.985 10.0646 105.098 10.1045C105.21 10.1443 105.323 10.3037 105.379 10.3276C105.435 10.3515 105.499 10.4392 105.539 10.4631C105.58 10.487 105.652 10.5508 105.74 10.6145C105.828 10.6783 105.828 10.8217 105.828 10.9094C105.828 10.9971 105.901 11.029 105.925 11.2043C105.925 11.2521 105.925 11.3238 105.877 11.4832C105.804 11.5709 105.716 11.7303 105.676 11.9136C105.652 11.9614 105.588 12.0491 105.491 12.3918C105.379 12.4874 105.355 12.591 105.258 12.8699C105.162 13.1489 105.146 12.9177 105.058 13.125C104.985 13.2126 104.785 13.372 104.664 13.3959C104.544 13.4198 104.44 13.4198 104.215 13.4437C104.158 13.4198 104.175 13.38 103.998 13.4437C103.966 13.4039 103.934 13.372 103.902 13.3401C103.869 13.3083 103.813 13.3083 103.773 13.2923C103.757 13.3481 103.733 13.4039 103.741 13.4517C103.741 13.4677 103.741 13.4836 103.749 13.5075C103.725 13.5314 103.701 13.5553 103.677 13.5952C103.645 13.5713 103.621 13.5553 103.588 13.5553C103.203 13.5394 102.834 13.4597 102.456 13.364C102.312 13.3322 102.167 13.3003 102.023 13.2764C101.991 13.2764 101.926 13.3401 101.926 13.364C101.926 13.4278 101.959 13.5155 101.999 13.5314C102.103 13.5713 102.216 13.5792 102.32 13.6031C102.657 13.6908 102.994 13.7785 103.348 13.8661C103.067 13.8422 102.874 13.8502 102.689 14.1371C102.609 14.0893 102.529 14.0255 102.44 13.9936C102.336 13.9538 102.264 14.0415 102.232 14.1371C102.216 14.1769 102.272 14.2646 102.304 14.3124C102.336 14.3523 102.384 14.3682 102.44 14.4001C102.4 14.424 102.36 14.424 102.328 14.4479C102.151 14.5993 102.015 14.5276 101.87 14.3523C101.605 14.0415 101.324 13.7466 101.268 13.2764C101.268 13.2604 101.252 13.2525 101.244 13.2365C101.228 13.109 101.164 13.0532 101.059 13.0931C100.963 13.1329 100.971 13.2445 101.011 13.3162C101.099 13.4677 101.051 13.627 101.067 13.7864C100.746 13.6988 100.449 13.6191 100.152 13.5473C100.136 13.5473 100.096 13.5952 100.088 13.627C100.08 13.6669 100.08 13.7227 100.096 13.7546C100.112 13.7864 100.16 13.7944 100.192 13.8103C100.393 13.898 100.602 14.0255 100.81 14.0654C101.132 14.1291 101.284 14.416 101.493 14.6472C101.509 14.6711 101.509 14.7428 101.493 14.7587C101.469 14.7826 101.413 14.8065 101.397 14.7906C101.244 14.695 101.083 14.7268 100.923 14.7029C100.706 14.6711 100.489 14.6073 100.281 14.5435C100.136 14.5037 100.096 14.5276 100.088 14.695C100.088 14.7826 100.088 14.8703 100.088 14.958C100.256 14.9819 100.401 14.9978 100.586 15.0217C100.586 15.0217 100.586 15.0217 100.586 15.0297H94.6523V15.5477C96.6756 16.52 96.78 17.4843 96.78 19.3173V34.5393C96.78 37.5518 100.521 38.285 102.288 38.548C103.942 38.803 106.928 39.2892 107.426 40.9548C107.474 41.1142 107.523 41.1222 107.563 40.9707C108.052 39.2892 111.047 38.803 112.709 38.548C114.476 38.277 118.217 37.5438 118.217 34.5393V19.3173C118.217 17.4843 118.321 16.512 120.345 15.5477V15.0297H113.111L113.159 15.0536ZM113.022 14.7826C112.958 14.8862 112.942 14.9101 112.926 14.9341C112.902 14.9739 112.878 15.0138 112.862 15.0536H111.842C112.236 14.95 112.613 14.95 113.022 14.7826ZM110.333 14.3284C110.606 14.2009 110.879 14.2248 111.152 14.2885C111.521 14.3842 111.898 14.4399 112.284 14.5196C111.979 14.5834 111.673 14.679 111.368 14.7189C111.087 14.7508 110.814 14.8065 110.541 14.8862C110.469 14.9102 110.397 14.9022 110.325 14.8862C110.196 14.8544 110.068 14.8145 109.891 14.7587C109.995 14.5276 110.14 14.4081 110.341 14.3204L110.333 14.3284ZM109.072 13.906C109.345 14.0016 109.65 14.0016 109.955 14.0813C109.771 14.1451 109.594 14.2168 109.409 14.2726C109.337 14.2965 109.297 14.2407 109.297 14.1451C109.297 13.9777 109.201 13.9936 109.112 14.0176C109.008 14.0415 108.912 14.0813 108.807 14.1132C108.855 13.9379 108.896 13.8422 109.072 13.898V13.906ZM109.65 14.5196C109.65 14.5196 109.618 14.5356 109.602 14.5515C109.57 14.6631 109.514 14.7428 109.417 14.7189C109.353 14.7109 109.289 14.6472 109.241 14.5515H109.602C109.602 14.5276 109.618 14.5117 109.626 14.4878C109.634 14.4957 109.642 14.5117 109.65 14.5196ZM108.831 14.95C108.928 14.9819 109.016 14.9978 109.112 15.0297C109.112 15.0297 109.128 15.0456 109.128 15.0536H108.43C108.526 14.8862 108.606 14.8783 108.831 14.95ZM108.35 13.9219C108.43 13.6669 108.542 13.8024 108.671 13.8661C108.598 14.2487 108.35 14.2327 108.061 14.2965C108.181 14.1451 108.301 14.0494 108.342 13.9219H108.35ZM107.804 13.6908C107.852 13.6908 107.908 13.651 107.964 13.6669C108.028 13.6828 108.117 13.7227 108.141 13.7864C108.157 13.8343 108.101 13.9299 108.061 14.0016C107.996 14.1212 107.916 14.2407 107.804 14.416V13.6908ZM107.804 14.7667C107.868 14.7906 107.924 14.7986 107.972 14.8305C108.061 14.8783 108.229 14.7189 108.237 14.958C108.237 14.9978 108.237 15.0297 108.229 15.0616H107.804V14.7667ZM107.258 14.0335C107.258 14.2806 107.201 14.3523 107.025 14.2726C106.88 14.2009 106.736 14.2088 106.591 14.1929C106.511 14.1849 106.439 14.1371 106.358 14.1132C106.358 14.0972 106.374 14.0733 106.382 14.0574C106.663 13.9936 106.944 13.9299 107.25 13.8582V14.0415L107.258 14.0335ZM107.185 15.0456C107.185 15.0456 107.185 15.0456 107.185 15.0536H106.543C106.744 14.9978 106.953 14.95 107.153 14.8942C107.169 14.958 107.193 15.0058 107.185 15.0377V15.0456ZM106.607 13.4119C106.768 13.4437 106.936 13.4836 107.121 13.5314C107.057 13.5872 107.017 13.643 106.977 13.651C106.928 13.651 106.872 13.6669 106.824 13.6749C106.776 13.6191 106.688 13.5713 106.551 13.5473C106.575 13.5394 106.615 13.4995 106.607 13.4198V13.4119ZM106.583 13.7227C106.503 13.7466 106.423 13.7705 106.35 13.7864C106.35 13.7864 106.35 13.7785 106.35 13.7705C106.431 13.7067 106.511 13.6988 106.591 13.7227H106.583ZM106.423 13.5633C106.35 13.635 106.262 13.6031 106.246 13.6669C106.246 13.7785 106.15 13.8103 106.053 13.7546C105.957 13.6988 105.957 13.8821 105.853 13.7785C105.756 13.6749 105.772 13.7147 105.885 13.6908C105.949 13.6828 106.013 13.651 106.109 13.6111C106.206 13.5713 106.294 13.5314 106.423 13.5633ZM106.158 13.3242C106.005 13.38 106.053 13.2525 105.764 13.3003C105.78 13.3003 105.796 13.2764 105.812 13.2604C105.925 13.2764 106.037 13.3003 106.158 13.3242ZM105.066 9.51473C104.576 9.33143 104.134 8.99671 103.693 8.56635C103.243 8.13599 103.484 7.92878 103.38 7.32309C103.275 6.72537 103.026 6.86085 102.818 6.75725C102.609 6.65364 102.625 6.55004 102.488 5.56978C102.352 4.58952 102.529 3.72083 102.633 3.12311C102.737 2.52539 102.521 2.35006 102.296 2.07909C102.079 1.80813 101.838 1.87985 101.533 1.80813C101.228 1.7364 100.305 1.88782 99.9434 1.90376C100.377 1.70452 101.445 1.67264 101.621 1.58498C101.34 1.52122 100.176 1.76031 99.7988 1.87188C99.9996 1.72046 100.417 1.48934 100.69 1.40168C100.682 1.40965 100.674 1.41762 100.674 1.41762C100.955 1.42559 101.244 1.54513 101.429 1.44153C101.252 1.37777 100.987 1.32198 100.899 1.27416C101.027 1.13071 101.252 1.01117 101.469 0.96335C101.726 0.907563 101.678 0.803958 101.718 0.612688C101.758 0.413448 102.143 0.301874 102.143 0.301874C102.143 0.301874 102.175 0.293904 102.32 0.277965C102.464 0.269995 102.713 0.246086 103.091 0.094664C103.468 -0.0567584 103.958 0.262026 103.629 0.230147C103.364 0.206238 103.685 0.389539 103.982 0.57284C104.271 0.708323 104.576 0.803958 104.68 1.21041C104.592 1.13071 104.472 1.01117 104.335 0.899594C104.464 1.17056 104.48 1.58498 104.584 1.98346C104.721 2.50945 104.592 2.71666 104.608 3.21078C104.616 3.70489 104.817 4.29464 104.889 4.5417C104.961 4.78876 105.138 4.69312 105.122 4.56561C105.122 4.51779 105.122 4.48591 105.146 4.45403C104.945 3.98383 104.753 3.29047 104.809 2.82027C104.881 2.19067 104.945 2.15082 104.809 1.75234C105.034 2.07909 105.01 3.68098 105.315 4.43013C105.331 4.4381 105.355 4.45403 105.371 4.46997C105.483 4.57358 105.556 4.50185 105.564 4.39825C105.427 4.07946 105.307 3.58535 105.323 3.25063C105.403 3.64911 105.523 3.96789 105.756 4.20698C105.764 4.20698 105.772 4.20698 105.78 4.20698C105.853 4.23089 106.198 4.52576 106.302 4.58155C106.407 4.62937 107.001 5.07566 107.137 5.17927C107.274 5.28287 107.908 5.59369 108.165 5.65744C108.422 5.7212 109.185 6.09577 109.843 6.17547C110.501 6.25516 111.248 6.66161 110.975 6.69349C110.702 6.72537 112.388 6.9804 112.211 7.01228C112.035 7.04415 112.324 7.15573 112.541 7.21152C112.757 7.2673 115.23 7.72954 115.174 7.77736C115.126 7.83315 114.363 7.84908 114.122 7.88096C113.881 7.91284 112.107 8.0802 111.73 8.09614C111.352 8.12005 109.618 8.24756 108.92 8.1599C109.12 8.01645 108.984 7.85705 108.912 7.94472C108.109 8.81341 106.551 8.22365 106.029 8.05629C106.977 8.94889 108.43 8.56635 108.759 8.35914C109.16 8.47071 110.068 8.35117 110.381 8.2635C110.694 8.18381 111.682 8.25553 112.235 8.13599C112.789 8.02442 113.079 8.1599 113.633 8.08817C114.187 8.01645 114.379 8.16787 114.652 8.19178C114.917 8.21569 115.64 8.55041 115.262 8.54244C114.885 8.53447 113.994 8.4468 113.576 8.39899C113.159 8.35117 112.886 8.35914 112.46 8.33523C112.035 8.31132 111.449 8.46274 110.782 8.43883C110.116 8.41493 108.984 8.66198 108.703 8.67792C108.422 8.68589 108.43 8.98077 108.069 9.06046C107.699 9.14016 107.498 9.80164 107.45 9.83351C107.41 9.86539 107.234 10.2001 107.073 10.5587C106.92 10.9174 106.872 11.1246 106.607 11.1485C106.334 11.1724 106.35 10.9493 106.294 10.5906C106.246 10.232 106.19 10.1762 106.013 9.99291C105.837 9.80961 105.547 9.69006 105.058 9.50676L105.066 9.51473ZM106.013 12.1367C106.061 12.0252 106.278 11.6426 106.334 11.4354C106.334 11.4354 106.431 11.3796 106.463 11.4753C106.495 11.5629 106.35 11.6984 106.31 11.7861C106.27 11.8658 106.262 11.8737 106.182 12.0331C106.101 12.1925 105.973 12.3838 105.788 12.5751C105.828 12.5033 105.973 12.2483 106.013 12.1367ZM105.652 12.7743C105.764 12.6468 105.812 12.7902 105.812 12.8859C105.812 12.9337 105.78 12.9496 105.74 12.9656C105.668 12.9576 105.604 12.9496 105.539 12.9417C105.564 12.8938 105.596 12.8381 105.652 12.7743ZM105.323 13.2844C105.347 13.2126 105.371 13.1807 105.403 13.1568C105.419 13.1807 105.451 13.2047 105.499 13.2126C105.507 13.2126 105.515 13.2126 105.523 13.2126C105.499 13.2525 105.523 13.2525 105.556 13.3083C105.572 13.3401 105.547 13.3561 105.515 13.372C105.483 13.372 105.451 13.38 105.419 13.3959C105.355 13.4198 105.299 13.4437 105.234 13.4677C105.266 13.4278 105.299 13.364 105.323 13.2844ZM105.242 13.7705C105.242 13.7705 105.226 13.8343 105.21 13.7944C105.226 13.7944 105.234 13.7785 105.25 13.7705H105.242ZM105.355 14.3045C105.427 14.2965 105.515 14.3602 105.596 14.3762C105.989 14.4479 106.391 14.5117 106.784 14.5754C106.784 14.5914 106.784 14.6073 106.784 14.6312C106.318 14.7348 105.861 14.8464 105.395 14.95C105.363 14.95 105.331 14.9739 105.307 14.958C105.242 14.9261 105.002 14.5675 104.937 14.432C105.074 14.3921 105.218 14.3284 105.355 14.3124V14.3045ZM104.664 14.6472C104.753 14.7667 104.849 14.8783 104.953 15.0138C104.929 15.0297 104.905 15.0456 104.881 15.0616H104.167C104.006 14.9739 103.837 14.8544 103.661 14.7587C103.95 14.687 104.183 14.6232 104.423 14.5675C104.512 14.5435 104.592 14.5595 104.656 14.6551L104.664 14.6472ZM104.536 13.7386C104.48 13.7546 104.431 13.7546 104.383 13.7546C104.431 13.7546 104.488 13.7466 104.536 13.7386ZM104.231 14.2168C104.279 14.169 104.303 14.2168 104.327 14.2726C104.263 14.2885 104.199 14.3124 104.134 14.3284C104.15 14.2965 104.191 14.2566 104.231 14.2168ZM103.861 13.6589C103.861 13.6589 103.869 13.6828 103.877 13.6988C103.853 13.6908 103.837 13.6749 103.821 13.6669C103.829 13.6669 103.845 13.6669 103.861 13.6669V13.6589ZM104.014 14.2327C104.014 14.2327 104.062 14.2327 104.094 14.2248C104.07 14.2806 104.062 14.3204 104.078 14.3523C103.821 14.424 103.572 14.4957 103.323 14.5675C103.54 14.4399 103.765 14.3124 104.014 14.2327ZM103.428 15.0616H102.761C102.866 14.8384 103.042 14.95 103.187 14.9181C103.291 14.8942 103.364 14.9739 103.428 15.0616ZM103.107 14.0574C103.203 13.9936 103.195 14.0813 103.179 14.1929C103.179 14.1929 103.179 14.2088 103.179 14.2168C103.107 14.2407 103.042 14.2566 102.97 14.2806C102.914 14.2965 102.834 14.2168 102.769 14.1849C102.769 14.1849 102.761 14.1849 102.753 14.1769C102.834 14.1052 103.099 14.0654 103.099 14.0654L103.107 14.0574ZM102.48 14.7587C102.513 14.8305 102.545 14.9022 102.577 14.9739C102.553 14.9819 102.537 14.9898 102.488 15.0138C102.456 14.958 102.424 14.9022 102.4 14.8384C102.4 14.8305 102.448 14.7826 102.48 14.7587ZM97.1092 17.5561H98.6668C98.6668 17.5561 98.6587 17.5561 98.6507 17.5561C98.5544 17.6118 98.4339 17.7075 98.4018 17.7951C98.4179 17.7872 98.6507 17.8191 98.7069 17.8191C98.7631 17.8191 99.012 17.7951 99.0682 17.7872C99.1244 17.7872 99.1806 17.7712 99.301 17.8191C99.3572 17.8589 99.4456 17.8748 99.4696 17.8987C99.4857 17.9147 99.5419 17.9625 99.566 18.0024C99.5981 18.0342 99.5901 18.0342 99.6142 18.1378C99.6383 18.2414 99.6463 18.1697 99.6704 18.2414C99.7025 18.3052 99.7025 18.3291 99.6864 18.3849C99.6704 18.4407 99.6704 18.5124 99.6623 18.624C99.6543 18.7356 99.6463 19.15 99.6302 19.3014C99.6302 19.3014 99.6302 19.3014 99.6302 19.3173H97.2457C97.2457 18.6559 97.2296 18.0821 97.1011 17.564L97.1092 17.5561ZM109.152 17.827C109.209 17.827 109.458 17.8031 109.514 17.7951C109.562 17.7951 109.626 17.7792 109.747 17.827C109.803 17.8669 109.891 17.8828 109.915 17.9067C109.931 17.9227 109.987 17.9705 110.012 18.0103C110.044 18.0422 110.036 18.0422 110.06 18.1458C110.084 18.2494 110.092 18.1777 110.116 18.2494C110.148 18.3132 110.156 18.3371 110.132 18.3929C110.116 18.4487 110.124 18.5204 110.108 18.632C110.1 18.7435 110.092 19.1579 110.076 19.3094C110.076 19.3094 110.076 19.3094 110.076 19.3253H102.207C102.111 19.2695 102.007 19.1819 101.846 19.142C101.846 19.142 101.926 19.1261 101.91 19.1022C101.75 19.0862 101.517 18.9029 101.364 18.7196C101.212 18.5363 101.124 17.7712 101.075 17.6198C101.075 17.6039 101.067 17.5879 101.059 17.572H109.104C109.104 17.572 109.096 17.572 109.088 17.572C108.992 17.6278 108.871 17.7234 108.839 17.8111C108.855 17.8031 109.088 17.835 109.144 17.835L109.152 17.827ZM111.898 22.3538C111.866 22.3936 111.818 22.4733 111.802 22.561C111.786 22.5849 111.762 22.6247 111.714 22.7921C111.657 22.8399 111.649 22.8877 111.601 23.0232C111.553 23.1587 111.545 23.0471 111.505 23.1507C111.473 23.1906 111.376 23.2703 111.32 23.2782C111.264 23.2942 111.216 23.2942 111.103 23.3021C111.079 23.2942 111.087 23.2703 110.983 23.3021C110.927 23.3021 110.863 23.3021 110.814 23.4297C110.83 23.4057 110.871 23.3739 110.935 23.3898V23.4376C110.935 23.4376 110.903 23.4376 110.855 23.4536C110.814 23.4536 110.766 23.4536 110.726 23.4854H109.514L107.571 22.0987L105.628 23.4854H101.894C101.902 23.4297 101.878 23.3579 101.742 23.334C101.758 23.334 101.79 23.3021 101.75 23.2224C101.798 23.1826 101.943 23.2145 101.983 23.2862C101.967 23.079 101.766 23.1188 101.605 23.1985C101.453 23.2782 101.525 23.1826 101.356 23.2145C101.421 23.1906 101.549 22.8877 101.613 22.7921C101.686 22.6964 101.959 22.3697 101.959 22.3697L101.975 22.3139C101.991 22.2581 102.031 22.3298 102.031 22.3298L102.047 22.2342C102.063 22.1386 102.119 22.1784 102.127 22.0987C102.127 22.019 102.151 21.9712 102.175 21.9872C102.175 21.9234 102.224 22.0111 102.199 21.8278C102.24 21.8278 102.432 21.8118 102.513 21.772C102.537 21.764 102.569 21.7481 102.609 21.7321H111.569C111.569 21.7321 111.633 21.7959 111.649 21.8039C111.682 21.8118 111.706 21.8596 111.722 21.8676C111.746 21.8756 111.778 21.9075 111.818 21.9393C111.858 21.9712 111.858 22.0429 111.858 22.0828C111.858 22.1226 111.89 22.1386 111.906 22.2262C111.906 22.2502 111.906 22.282 111.882 22.3617L111.898 22.3538ZM111.93 22.6566C111.954 22.6008 112.059 22.4175 112.083 22.3219C112.083 22.3219 112.131 22.298 112.147 22.3378C112.163 22.3777 112.091 22.4414 112.075 22.4813C112.059 22.5211 112.051 22.5211 112.011 22.6008C111.971 22.6805 111.906 22.7682 111.826 22.8638C111.842 22.824 111.914 22.7044 111.93 22.6566ZM97.2457 27.6615V25.9002H102.248L99.7988 27.6615H97.2537H97.2457ZM99.3332 27.9883L97.2457 29.4865V27.9883H99.3332ZM97.2457 25.5655V23.8122H105.162L102.705 25.5655H97.2376H97.2457ZM101.637 23.4297C101.718 23.3739 101.798 23.4137 101.854 23.4775H101.645C101.645 23.4775 101.645 23.4456 101.645 23.4297H101.637ZM101.364 22.8558C101.364 22.8558 101.453 22.6964 101.477 22.6486C101.501 22.5928 101.605 22.4095 101.629 22.3139C101.629 22.3139 101.678 22.29 101.694 22.3298C101.71 22.3697 101.637 22.4335 101.621 22.4733C101.605 22.5131 101.597 22.5131 101.565 22.5928C101.525 22.6725 101.461 22.7602 101.381 22.8558H101.364ZM103.002 21.3815C103.075 21.3257 103.291 21.238 103.412 21.2061C103.548 21.1743 103.717 21.1743 103.765 21.1105C103.797 21.0707 104.006 21.0786 104.134 21.0467C104.263 21.0149 104.448 20.983 104.576 20.967C104.704 20.9511 104.857 20.975 104.993 20.975C105.13 20.975 105.459 21.0308 105.58 21.0149C105.628 21.0547 105.973 21.0627 106.166 21.0866C106.358 21.1105 106.535 21.0866 106.655 21.0069C106.599 20.983 106.623 20.9192 106.439 20.8634C106.246 20.8077 105.78 20.712 105.483 20.6483C105.708 20.6483 106.19 20.6642 106.302 20.6244C106.415 20.5845 106.278 20.5048 106.118 20.465C105.957 20.4251 105.828 20.3853 105.636 20.3614C105.443 20.3374 104.785 20.2498 104.64 20.2259C104.496 20.202 104.616 20.1701 104.696 20.1701C104.616 20.1143 104.215 20.0665 104.094 20.0426C103.974 20.0107 104.014 20.0027 104.046 19.9868C103.998 19.9071 103.604 19.8035 103.468 19.7716C103.323 19.7397 103.364 19.7238 103.42 19.7158C103.332 19.7158 103.251 19.6839 102.994 19.6122H110.108C110.108 19.66 110.092 19.7716 110.092 19.8115C110.092 19.8513 110.14 19.9549 110.156 20.0027C110.172 20.0426 110.196 20.1621 110.196 20.202C110.196 20.2418 110.244 20.2817 110.26 20.3693C110.276 20.449 110.317 20.5447 110.317 20.5048C110.317 20.465 110.373 20.5447 110.397 20.5845C110.421 20.6244 110.477 20.704 110.501 20.7758C110.525 20.8395 110.622 20.8714 110.638 20.9192C110.646 20.975 110.742 20.9989 110.774 21.0308C110.806 21.0627 110.919 21.1663 110.951 21.1822C110.983 21.1982 111.144 21.3496 111.168 21.3655H103.002V21.3815ZM101.116 21.7162C101.116 21.7162 101.18 21.7799 101.196 21.7879C101.228 21.7959 101.252 21.8437 101.276 21.8517C101.292 21.8596 101.332 21.8915 101.372 21.9234C101.413 21.9553 101.413 22.027 101.413 22.0669C101.413 22.1067 101.453 22.1226 101.461 22.2103C101.461 22.2342 101.461 22.2661 101.437 22.3458C101.405 22.3856 101.356 22.4653 101.34 22.553C101.332 22.5769 101.3 22.6168 101.252 22.7841C101.196 22.8319 101.188 22.8797 101.14 23.0152C101.091 23.1507 101.083 23.0391 101.043 23.1427C101.011 23.1826 100.915 23.2623 100.851 23.2703C100.794 23.2862 100.746 23.2862 100.634 23.2942C100.602 23.2862 100.618 23.2623 100.513 23.2942C100.457 23.2942 100.393 23.2942 100.345 23.4217C100.361 23.3978 100.401 23.3659 100.465 23.3818V23.4297C100.465 23.4297 100.433 23.4297 100.385 23.4456C100.345 23.4456 100.297 23.4456 100.248 23.4775H97.2216V21.7242H101.1L101.116 21.7162ZM97.2376 21.3815V19.6282H99.6543C99.6623 19.676 99.6383 19.7875 99.6383 19.8274C99.6383 19.8672 99.6864 19.9708 99.7025 20.0187C99.7185 20.0585 99.7346 20.1781 99.7346 20.2179C99.7346 20.2578 99.7828 20.2976 99.7988 20.3853C99.8149 20.465 99.855 20.5606 99.855 20.5207C99.855 20.4809 99.9112 20.5606 99.9273 20.6004C99.9514 20.6403 100.008 20.72 100.032 20.7917C100.056 20.8555 100.152 20.8874 100.168 20.9352C100.184 20.991 100.273 21.0149 100.305 21.0467C100.337 21.0786 100.449 21.1822 100.481 21.1982C100.513 21.2141 100.674 21.3655 100.698 21.3815H97.2216H97.2376ZM109.859 27.9803L112.316 29.7336H106.985C106.936 29.6938 106.888 29.6619 106.84 29.638C106.84 29.638 106.824 29.6061 106.888 29.6141C106.567 29.3989 106.021 29.4626 105.861 29.5902C105.796 29.6061 105.716 29.6459 105.636 29.7336H102.81L105.266 27.9803H109.867H109.859ZM105.716 27.6535L107.555 26.3386L109.393 27.6535H105.716ZM107.603 31.3275C107.45 31.1442 107.362 30.3791 107.314 30.2277C107.298 30.1879 107.274 30.1321 107.242 30.0763H112.773L115.222 31.8296H108.261C108.205 31.7977 108.149 31.7659 108.077 31.7499C108.077 31.7499 108.157 31.734 108.141 31.7101C107.98 31.6941 107.747 31.5108 107.595 31.3275H107.603ZM107.924 34.9696C107.94 35.0095 107.868 35.0812 107.852 35.1131C107.836 35.1529 107.828 35.1529 107.788 35.2326C107.747 35.3123 107.683 35.4 107.603 35.4956C107.619 35.4558 107.691 35.3442 107.715 35.2884C107.739 35.2326 107.844 35.0493 107.868 34.9537C107.868 34.9537 107.916 34.9298 107.932 34.9696H107.924ZM106.126 30.0683C106.061 30.156 105.804 30.156 105.716 30.0683H106.126ZM105.146 30.0683C105.09 30.1002 104.945 30.1401 104.865 30.1799C104.769 30.2357 104.648 30.3313 104.616 30.419C104.632 30.403 104.865 30.4429 104.921 30.4429C104.977 30.4429 105.226 30.419 105.283 30.411C105.339 30.411 105.395 30.3951 105.515 30.4429C105.572 30.4827 105.668 30.5067 105.684 30.5226C105.7 30.5385 105.756 30.5864 105.788 30.6262C105.82 30.6581 105.812 30.6581 105.837 30.7617C105.861 30.8653 105.869 30.8015 105.893 30.8653C105.925 30.929 105.925 30.953 105.909 31.0087C105.893 31.0645 105.901 31.1363 105.885 31.2478C105.877 31.3435 105.869 31.6463 105.853 31.8296H99.8791L102.336 30.0763H105.154L105.146 30.0683ZM105.869 32.1564C105.869 32.1564 105.877 32.2281 105.885 32.252C105.893 32.2918 105.869 32.4194 105.869 32.4672C105.869 32.507 105.917 32.6106 105.933 32.6505C105.949 32.6903 105.965 32.8099 105.965 32.8497C105.965 32.8896 106.013 32.9294 106.029 33.0171C106.045 33.0968 106.085 33.1924 106.085 33.1526C106.085 33.1127 106.142 33.1924 106.166 33.2323C106.19 33.2721 106.246 33.3598 106.27 33.4235C106.294 33.4873 106.391 33.5192 106.407 33.567C106.415 33.6228 106.511 33.6467 106.543 33.6786C106.575 33.7104 106.688 33.814 106.72 33.83C106.736 33.83 106.776 33.8698 106.816 33.9097H97.2135V33.7184L99.3974 32.1564H105.853H105.869ZM97.6391 35.9977C97.3661 35.5673 97.2216 35.0892 97.2216 34.5472V34.2444H107.185C107.185 34.2444 107.25 34.3002 107.29 34.3161C107.346 34.3321 107.394 34.4118 107.426 34.4197C107.458 34.4277 107.482 34.4755 107.507 34.4835C107.523 34.4915 107.563 34.5233 107.603 34.5552C107.643 34.5871 107.643 34.6588 107.643 34.6987C107.643 34.7385 107.675 34.7545 107.691 34.8421C107.691 34.866 107.691 34.8979 107.667 34.9776C107.627 35.0174 107.587 35.0971 107.571 35.1848C107.563 35.2087 107.531 35.2486 107.482 35.4159C107.426 35.4637 107.418 35.5116 107.37 35.647C107.322 35.7825 107.314 35.671 107.274 35.7666C107.242 35.8064 107.145 35.8861 107.081 35.8941C107.025 35.91 106.977 35.91 106.864 35.918C106.832 35.9021 106.848 35.8782 106.744 35.918C106.696 35.918 106.639 35.918 106.599 35.9977H97.631H97.6391ZM107.547 40.2216C106.816 39.1935 105.202 38.6994 103.813 38.4125H111.272C109.883 38.6914 108.269 39.1935 107.539 40.2216H107.547ZM113.207 38.0857H101.878C99.9353 37.7351 98.6106 37.1533 97.888 36.3245H106.776C106.776 36.3245 106.792 36.3484 106.8 36.3643C106.8 36.3484 106.8 36.3404 106.8 36.3245H106.912C106.92 36.3324 106.969 36.3245 107.017 36.3245H117.189C116.467 37.1453 115.142 37.7271 113.199 38.0857H113.207ZM117.864 34.5472C117.864 35.0892 117.719 35.5673 117.446 35.9977H108.077C108.077 35.9977 108.02 35.9579 107.964 35.9499C107.98 35.9499 108.004 35.918 107.972 35.8463C108.02 35.8064 108.165 35.8383 108.205 35.91C108.189 35.7028 107.988 35.7427 107.828 35.8224C107.675 35.9021 107.747 35.8144 107.579 35.8383C107.643 35.8144 107.771 35.5116 107.836 35.4159C107.908 35.3203 108.181 34.9935 108.181 34.9935L108.197 34.9378C108.213 34.8899 108.253 34.9537 108.253 34.9537L108.269 34.8581C108.285 34.7624 108.342 34.7943 108.342 34.7226C108.342 34.6429 108.366 34.5951 108.39 34.611C108.39 34.5472 108.438 34.6349 108.414 34.4436C108.454 34.4436 108.647 34.4277 108.719 34.3879C108.783 34.356 108.896 34.3161 108.976 34.2444H117.848V34.5472H117.864ZM117.864 33.9097H109.433C109.506 33.8778 109.578 33.8539 109.634 33.8459C109.771 33.814 109.939 33.814 109.987 33.7503C110.02 33.7104 110.228 33.7184 110.357 33.6865C110.477 33.6546 110.67 33.6228 110.798 33.6068C110.919 33.5909 111.079 33.6148 111.216 33.6148C111.352 33.6148 111.673 33.6706 111.802 33.6546C111.85 33.6865 112.195 33.7025 112.388 33.7264C112.589 33.7503 112.757 33.7264 112.878 33.6467C112.822 33.6228 112.846 33.559 112.661 33.5032C112.468 33.4474 112.003 33.3518 111.706 33.288C111.93 33.288 112.412 33.304 112.525 33.2641C112.637 33.2243 112.5 33.1446 112.34 33.1047C112.179 33.0649 112.051 33.025 111.858 33.0011C111.665 32.9772 111.007 32.8896 110.863 32.8657C110.718 32.8418 110.838 32.8099 110.919 32.8099C110.838 32.7541 110.437 32.7063 110.317 32.6824C110.196 32.6505 110.236 32.6425 110.268 32.6266C110.22 32.5469 109.827 32.4433 109.69 32.4114C109.546 32.3795 109.586 32.3636 109.642 32.3556C109.538 32.3556 109.449 32.3158 109.064 32.2121C109.032 32.1882 108.976 32.1723 108.896 32.1484H115.672L117.864 33.7104V33.9017V33.9097ZM117.864 31.3674L117.816 33.2801L107.635 25.9879L107.539 25.9162L97.2135 33.304V29.8691L107.539 22.4813L117.864 29.8771V31.3594V31.3674ZM117.864 29.4706L115.776 27.9723H117.864V29.4706ZM117.864 27.6456H115.319L112.87 25.8843H117.872V27.6456H117.864ZM117.864 25.5575H112.396L109.939 23.8042H117.856V25.5575H117.864ZM112.059 23.4217C112.139 23.3659 112.219 23.4057 112.276 23.4695H112.067C112.067 23.4695 112.067 23.4376 112.067 23.4217H112.059ZM117.864 23.4695H112.316C112.324 23.4137 112.3 23.342 112.163 23.3181C112.179 23.3181 112.203 23.2862 112.171 23.2065C112.219 23.1667 112.364 23.1985 112.404 23.2703C112.388 23.0631 112.187 23.1029 112.027 23.1826C111.874 23.2623 111.946 23.1667 111.778 23.1985C111.842 23.1746 111.963 22.8718 112.035 22.7761C112.107 22.6805 112.38 22.3538 112.38 22.3538L112.396 22.298C112.412 22.2422 112.452 22.3139 112.452 22.3139L112.468 22.2183C112.484 22.1226 112.541 22.1625 112.549 22.0828C112.549 22.0031 112.573 21.9553 112.597 21.9712C112.597 21.9075 112.645 21.9951 112.621 21.8118C112.661 21.8118 112.854 21.7959 112.926 21.756C112.95 21.7481 112.982 21.7321 113.022 21.7162H117.848V23.4695H117.864ZM117.864 21.3815H113.432C113.496 21.3257 113.713 21.238 113.841 21.2061C113.978 21.1743 114.146 21.1743 114.195 21.1105C114.235 21.0707 114.435 21.0786 114.564 21.0467C114.684 21.0149 114.877 20.983 115.005 20.967C115.134 20.9511 115.286 20.975 115.423 20.975C115.559 20.975 115.881 21.0308 116.009 21.0149C116.057 21.0547 116.402 21.0627 116.595 21.0866C116.788 21.1105 116.964 21.0866 117.077 21.0069C117.021 20.983 117.045 20.9192 116.86 20.8634C116.667 20.8077 116.202 20.712 115.905 20.6483C116.129 20.6483 116.611 20.6642 116.724 20.6244C116.836 20.5845 116.7 20.5048 116.539 20.465C116.378 20.4251 116.25 20.3853 116.057 20.3614C115.865 20.3374 115.214 20.2498 115.062 20.2259C114.917 20.202 115.038 20.1701 115.118 20.1701C115.038 20.1143 114.636 20.0665 114.516 20.0426C114.395 20.0107 114.435 20.0027 114.468 19.9868C114.419 19.9071 114.026 19.8035 113.889 19.7716C113.745 19.7397 113.785 19.7238 113.841 19.7158C113.753 19.7158 113.673 19.6839 113.416 19.6122H117.864V21.3655V21.3815ZM117.864 19.2934H112.629C112.533 19.2376 112.428 19.15 112.268 19.1101C112.268 19.1101 112.348 19.0942 112.332 19.0703C112.171 19.0543 111.938 18.871 111.786 18.6877C111.633 18.5044 111.545 17.7394 111.497 17.5879C111.497 17.572 111.489 17.5561 111.481 17.5401H118.008C117.888 18.0581 117.864 18.632 117.864 19.2934ZM118.105 17.2054H111.272C111.2 17.1177 111.111 17.038 111.023 17.0062C111.023 17.0062 111.007 16.9743 111.071 16.9822C110.75 16.7671 110.204 16.8388 110.044 16.9583C109.955 16.9822 109.843 17.038 109.747 17.2054H100.827C100.754 17.1177 100.666 17.038 100.578 17.0062C100.578 17.0062 100.562 16.9743 100.626 16.9822C100.305 16.7671 99.7587 16.8388 99.5901 16.9583C99.5018 16.9822 99.3894 17.038 99.293 17.2054H96.9727C96.7318 16.5359 96.2581 15.9621 95.3027 15.4282H119.775C118.819 15.9621 118.345 16.5359 118.105 17.2054ZM103.942 0.875685C103.829 0.811928 103.741 0.676445 103.556 0.596749C103.46 0.556901 103.155 0.525022 102.938 0.501114C103.123 0.548931 103.332 0.652536 103.444 0.692384C103.596 0.740202 104.046 0.939442 103.942 0.875685ZM102.143 0.931472C102.143 0.931472 101.991 0.97929 102.031 1.11477C102.079 1.24229 102.488 1.24229 102.464 1.09086C102.416 0.843806 102.143 0.931472 102.143 0.931472ZM108.317 7.45857C107.972 7.57015 107.049 7.77736 106.567 7.64187C106.415 7.65781 105.748 7.65781 104.817 6.99634C105.082 7.41873 105.499 7.67375 105.885 7.77736C106.27 7.88096 106.382 7.7933 106.752 7.77736C107.121 7.76142 107.539 7.96066 108.117 7.7136C108.687 7.46654 109.49 7.92878 110.14 7.86502C110.79 7.80127 111.16 7.74548 110.606 7.72954C110.052 7.7136 108.655 7.347 108.317 7.4506V7.45857ZM106.134 8.50259C105.909 8.74965 105.596 8.49462 105.266 8.47071C104.945 8.45477 104.849 8.28741 104.632 8.12005C104.415 7.95269 104.167 7.8969 103.861 7.65781C103.645 7.48248 104.303 8.15193 104.624 8.35914C104.945 8.56635 105.925 9.01265 106.134 8.50259ZM104.207 7.04415C104.56 7.17964 104.359 6.94055 104.142 6.64567C103.926 6.3508 103.894 6.31892 103.741 5.9045C103.588 5.49008 103.605 5.6415 103.629 5.25896C103.661 4.87642 103.564 4.43013 103.524 4.84454C103.492 5.16333 103.291 5.52196 103.556 5.9842L103.821 6.44643C103.821 6.44643 103.853 6.90867 104.207 7.04415ZM104.656 5.8009L105.17 6.30298C105.483 6.5341 105.772 6.83695 106.005 6.88476C106.238 6.93258 106.27 6.76522 106.005 6.57395C105.74 6.39065 105.788 6.26313 105.788 6.19141C105.788 6.11968 105.837 6.02405 106.085 6.19141C106.334 6.35877 106.069 5.91247 106.302 6.12765C106.535 6.34283 106.35 6.32689 106.688 6.49425C107.025 6.66161 107.354 6.74131 107.193 6.62973C107.041 6.51816 106.744 6.4305 106.688 6.24719C106.623 6.06389 106.471 5.76902 106.784 5.9842C107.097 6.19938 107.137 6.10374 107.386 6.15156C107.635 6.19938 107.587 6.13562 107.338 5.96826C107.089 5.8009 106.607 5.45023 106.985 5.60166C107.354 5.75308 106.455 5.25896 106.318 5.10754C106.182 4.95612 105.885 5.00394 106.101 5.24302C106.318 5.49008 106.399 5.39445 106.615 5.62557C106.832 5.85668 106.631 5.82481 106.463 5.76105C106.294 5.69729 106.262 5.66541 106.262 5.66541C106.262 5.66541 106.061 5.56978 105.909 5.46617L105.756 5.3546C105.756 5.3546 105.507 5.40242 105.788 5.58572L106.069 5.76902C106.069 5.76902 106.206 6.03202 105.949 5.92044C105.684 5.81684 105.283 5.8009 105.226 5.62557L105.162 5.4582C105.162 5.4582 104.993 5.5379 105.21 5.77699C105.427 6.02405 105.475 6.15953 105.644 6.34283C105.692 6.39862 105.732 6.43846 105.764 6.46237C105.564 6.32689 105.106 6.00014 104.961 5.78496C104.777 5.50602 104.761 5.4582 104.761 5.4582C104.761 5.4582 104.44 5.16333 104.544 5.42633C104.648 5.68932 104.68 5.74511 104.68 5.74511L104.656 5.8009ZM105.307 7.04415C104.937 6.7971 104.737 6.52613 104.656 6.39862C104.576 6.27907 104.504 6.66161 104.688 6.82898C104.873 6.99634 105.154 7.22746 105.475 7.30715C105.796 7.38685 105.692 7.30715 105.307 7.04415ZM104.223 2.51742C104.223 2.8123 104.319 2.96372 104.319 2.65291C104.319 2.31818 104.335 1.88782 104.239 1.76031C104.142 1.64077 104.038 1.59295 104.118 1.87985C104.199 2.17473 104.223 2.21458 104.223 2.50945V2.51742ZM108.96 6.70943C109.458 6.82898 109.698 6.82101 110.268 6.85288C110.838 6.88476 112.083 7.24339 111.778 7.11588C111.465 6.98837 110.943 6.86882 110.453 6.76522C109.963 6.66958 108.446 6.36674 108.189 6.31892C107.547 6.21532 108.462 6.58989 108.968 6.70943H108.96Z" fill="#DEA46E"/>
<path d="M60.5462 150.763C59.5265 150.699 58.5871 150.699 57.5996 150.715C57.5032 150.715 57.4791 150.699 57.447 150.635C57.4149 150.555 57.3667 150.237 57.4149 150.181C58.0331 150.101 58.3382 149.966 58.4346 149.312C58.555 148.292 58.5871 146.945 58.6514 145.391L58.7718 142.068C58.7878 141.518 58.5068 141.414 57.4952 141.311C57.5113 141.231 57.5755 141.04 57.6317 140.912C57.6638 140.864 57.6959 140.825 57.8003 140.825C58.0331 140.825 58.9404 140.856 59.4061 140.856C59.7593 140.856 60.1126 140.84 60.3294 140.84C60.3615 141.159 60.4659 141.43 60.5462 141.598C61.2366 143.088 62.9227 146.005 63.9584 147.734C64.0066 147.822 64.0788 147.838 64.1431 147.718C65.1627 145.806 66.4875 143.255 67.2583 141.582C67.3225 141.446 67.3787 141.143 67.4108 140.856C68.5991 140.856 69.7552 140.809 70.2209 140.809C70.253 140.888 70.253 141.231 70.237 141.343C69.3618 141.43 69.1691 141.526 69.1611 141.964C69.129 142.57 69.129 143.47 69.1772 145.439C69.1932 146.945 69.1772 148.42 69.2093 148.858C69.2896 149.894 69.2896 149.95 70.245 150.117C70.2932 150.117 70.3253 150.372 70.3253 150.516C70.3253 150.603 70.2932 150.635 70.2289 150.635H68.7757C68.3582 150.635 67.2181 150.667 66.5517 150.739V150.388C66.5678 150.269 66.5838 150.205 66.6561 150.189C67.2904 150.021 67.3225 149.99 67.3948 149.464C67.4429 149.057 67.4269 148.252 67.5473 142.737C67.5473 142.586 67.4429 142.65 67.4108 142.737C67.2261 143.024 65.6686 146.324 64.962 147.822C64.2073 149.384 63.9424 150.021 63.8701 150.165C63.6854 150.547 63.6373 150.667 63.4526 150.667C63.3884 150.667 63.3161 150.619 63.2519 150.5C63.1716 150.38 62.8023 149.631 62.4329 148.874C61.0118 145.893 59.952 143.829 59.382 142.65C59.3659 144.012 59.3499 146.116 59.382 147.766C59.398 148.858 59.4141 149.464 59.4623 149.743C59.5586 150.013 59.7433 150.125 60.2651 150.213C60.4498 150.245 60.514 150.276 60.5301 150.348L60.5622 150.755L60.5462 150.763Z" fill="white"/>
<path d="M79.5096 140.582C79.6461 140.582 79.6622 140.63 79.7424 140.829C80.2081 142.208 80.5293 143.029 81.0672 144.447C81.573 145.818 82.689 148.4 82.9219 148.91C83.3073 149.699 83.524 150.066 84.4152 150.249C84.4313 150.217 84.3349 150.703 84.2306 150.735C82.7372 150.719 82.4401 150.703 81.9343 150.703C81.4285 150.703 80.8424 150.751 80.6818 150.751C80.6176 150.751 80.5855 150.735 80.5774 150.703C80.5453 150.616 80.4249 150.305 80.457 150.281C81.1395 150.098 81.2278 150.01 81.1796 149.612C81.1475 149.261 80.6096 147.898 80.4891 147.635C80.3928 147.404 80.2724 147.3 80.184 147.3C79.4614 147.3 77.9038 147.3 77.1331 147.348C76.8842 147.364 76.8119 147.468 76.6995 147.731C76.547 148.113 76.1455 149.086 76.1455 149.524C76.1455 149.906 76.3462 150.042 77.0688 150.209C77.1652 150.273 77.0207 150.664 76.9484 150.695C76.0572 150.68 75.174 150.68 74.8529 150.68C74.5879 150.68 74.3471 150.695 74.2828 150.68C74.2025 150.68 74.1865 150.664 74.1785 150.616C74.1303 150.536 74.042 150.217 74.0982 150.193C74.8529 149.994 75.0375 149.452 75.3908 148.719C75.7601 147.946 77.5827 143.802 78.4177 141.825C78.5542 141.459 78.6826 141.124 78.7549 140.933C78.787 140.845 78.8352 140.781 78.8753 140.749C79.0279 140.67 79.3089 140.598 79.5096 140.598H79.5257L79.5096 140.582ZM77.5666 146.567C77.7192 146.567 78.0002 146.583 78.5221 146.583C79.0921 146.583 79.3972 146.583 79.7986 146.567C79.9351 146.567 80.0315 146.432 80.0154 146.368C79.4454 144.726 79.1242 143.866 78.795 143.045C78.7469 142.957 78.6586 142.957 78.6264 143.029C78.0403 144.32 77.8396 144.822 77.2214 146.384C77.1893 146.464 77.3258 146.567 77.5425 146.567H77.5586H77.5666Z" fill="white"/>
<path d="M88.0434 140.981C88.0273 140.902 88.0916 140.878 88.1799 140.862C88.8864 140.846 89.6331 140.83 90.2915 140.814C91.1746 140.75 91.5681 140.734 92.098 140.734C93.1176 140.734 94.0409 140.838 94.9482 141.452C95.6146 141.89 96.0401 142.663 96.0401 143.332C96.0401 144.624 95.0044 145.229 94.4504 145.564C94.3701 145.612 94.33 145.747 94.3541 145.851C94.4504 146.233 94.8037 147.11 95.3898 148.027C96.0401 149.047 96.9474 149.971 97.9831 150.425C98.1517 150.505 98.1517 150.609 98.1196 150.792C98.1035 150.943 97.9992 151.007 97.951 151.007C96.5299 150.92 95.454 150.537 94.4986 149.597C93.8643 148.975 93.4227 148.138 92.9892 147.23C92.7082 146.656 92.4994 146.393 91.6965 146.393C91.3914 146.393 91.2148 146.409 91.0622 146.441C90.982 146.457 90.9258 146.592 90.9258 146.696C90.9258 147.971 90.9418 148.792 90.9739 149.461C90.99 149.716 91.0382 149.796 91.1104 149.86C91.263 149.979 91.9775 150.075 92.3308 150.162C92.3629 150.242 92.2987 150.585 92.2505 150.649C92.2345 150.68 92.1542 150.68 92.0016 150.68C91.8491 150.68 90.3396 150.664 89.593 150.664C89.0711 150.664 88.758 150.712 88.4529 150.712C88.2843 150.712 88.22 150.712 88.204 150.664C88.1558 150.561 88.1076 150.298 88.1237 150.194C88.4448 150.115 88.8463 150.027 88.9908 149.86C89.1594 149.628 89.2076 148.568 89.2076 146.656V144.791C89.2076 143.906 89.1755 142.814 89.1594 142.257C89.1434 141.707 89.0952 141.691 88.1076 141.42L88.0273 140.997L88.0434 140.981ZM94.057 143.476C94.057 142.217 93.1497 141.3 92.098 141.3C91.7126 141.3 91.5279 141.348 91.279 141.452C91.1265 141.515 91.0462 141.603 91.0141 141.754C90.9498 142.209 90.9338 142.894 90.9177 144.217C90.9017 145.723 90.9177 145.739 91.0221 145.779C91.1265 145.811 91.3593 145.811 91.6403 145.811C92.4753 145.811 93.1096 145.628 93.5191 145.126C93.8242 144.727 94.0409 144.153 94.0409 143.484V143.468L94.057 143.476Z" fill="white"/>
<path d="M101.235 145.685C101.235 144.123 101.837 142.967 102.728 142.146C103.451 141.493 104.205 141.142 105.273 140.871C106.181 140.624 107.08 140.6 107.634 140.6C108.188 140.6 109.159 140.704 109.681 140.847C109.786 140.879 109.85 140.911 109.882 140.847L110.034 140.632C110.05 140.568 110.083 140.552 110.171 140.568L110.492 140.632C110.556 140.648 110.588 140.664 110.588 140.752C110.621 141.676 110.757 142.648 110.837 142.967C110.869 143.166 110.869 143.302 110.837 143.318C110.805 143.35 110.773 143.366 110.572 143.366H110.452C110.356 143.366 110.315 143.334 110.235 143.198C109.649 142.074 108.541 141.19 106.983 141.19C106.165 141.19 105.458 141.437 104.808 142.043C104.085 142.712 103.298 143.9 103.298 145.748C103.298 146.769 103.595 148.076 104.607 149.048C105.659 150.036 106.887 150.275 107.537 150.275C107.907 150.275 108.388 150.124 108.661 149.925C108.959 149.709 109.095 149.072 109.095 147.948C109.095 146.593 109.063 146.338 108.509 146.219C108.356 146.187 107.738 146.099 107.602 146.051C107.505 146.019 107.401 145.972 107.369 145.932C107.321 145.852 107.305 145.78 107.289 145.629C107.289 145.581 107.321 145.525 107.425 145.525C108.477 145.525 109.336 145.589 110.091 145.589C110.845 145.589 111.343 145.541 111.616 145.525C111.664 145.613 111.632 145.996 111.616 146.163C111.447 146.195 111.166 146.227 110.998 146.251C110.95 146.418 110.902 147.542 110.893 149.988C110.893 150.339 110.797 150.443 110.645 150.578C110.524 150.698 110.291 150.714 110.227 150.714C109.89 150.714 109.657 150.714 109.007 150.761C108.469 150.809 107.987 150.849 107.385 150.849C105.394 150.849 103.804 150.347 102.728 149.327C101.853 148.522 101.219 147.295 101.219 145.701V145.685H101.235Z" fill="white"/>
<path d="M120.971 140.582C121.107 140.582 121.123 140.63 121.203 140.829C121.669 142.208 121.99 143.029 122.528 144.447C123.034 145.818 124.15 148.4 124.383 148.91C124.768 149.699 124.985 150.066 125.876 150.249C125.892 150.217 125.796 150.703 125.692 150.735C124.198 150.719 123.901 150.703 123.395 150.703C122.889 150.703 122.303 150.751 122.143 150.751C122.079 150.751 122.046 150.735 122.038 150.703C122.006 150.616 121.886 150.305 121.918 150.281C122.6 150.098 122.689 150.01 122.641 149.612C122.608 149.261 122.071 147.898 121.95 147.635C121.854 147.404 121.733 147.3 121.645 147.3C120.922 147.3 119.365 147.3 118.594 147.348C118.345 147.364 118.273 147.468 118.16 147.731C118.008 148.113 117.606 149.086 117.606 149.524C117.606 149.906 117.807 150.042 118.53 150.209C118.626 150.273 118.482 150.664 118.409 150.695C117.518 150.68 116.635 150.68 116.314 150.68C116.049 150.68 115.808 150.695 115.744 150.68C115.663 150.68 115.647 150.664 115.639 150.616C115.591 150.536 115.503 150.217 115.559 150.193C116.314 149.994 116.498 149.452 116.852 148.719C117.221 147.946 119.044 143.802 119.879 141.825C120.015 141.459 120.144 141.124 120.216 140.933C120.248 140.845 120.296 140.781 120.336 140.749C120.489 140.67 120.77 140.598 120.971 140.598H120.987L120.971 140.582ZM119.028 146.567C119.18 146.567 119.461 146.583 119.983 146.583C120.553 146.583 120.866 146.583 121.26 146.567C121.396 146.567 121.492 146.432 121.476 146.368C120.906 144.726 120.585 143.866 120.256 143.045C120.208 142.957 120.119 142.957 120.087 143.029C119.501 144.32 119.301 144.822 118.682 146.384C118.65 146.464 118.787 146.567 119.003 146.567H119.02H119.028Z" fill="white"/>
<path d="M139.252 141.307C139.084 141.371 138.915 141.395 138.747 141.427C138.61 141.459 138.53 141.53 138.466 141.793C138.385 142.096 138.329 143.069 138.233 145.73C138.185 147.404 138 148.344 137.382 149.205C136.595 150.281 135.286 150.935 133.913 150.935C132.219 150.935 131.199 150.329 130.75 149.883C129.875 149.046 129.674 148.121 129.658 146.95C129.642 146.073 129.642 145.236 129.69 143.961C129.754 142.001 129.738 141.801 129.61 141.618C129.473 141.451 129.256 141.387 128.727 141.283L128.743 140.965C128.759 140.813 128.823 140.797 129.024 140.797C129.361 140.797 130.348 140.861 130.678 140.845C131.416 140.829 132.131 140.781 132.885 140.781C132.966 140.781 132.99 140.781 132.99 140.829C132.99 140.917 133.006 141.212 132.942 141.299C132.139 141.435 131.705 141.467 131.617 141.905C131.569 142.144 131.521 142.606 131.513 143.316C131.497 144.168 131.448 145.667 131.448 146.782C131.448 147.898 131.745 148.695 132.468 149.261C132.974 149.683 133.777 149.883 134.612 149.883C135.768 149.883 136.37 149.412 136.691 148.99C137.293 148.201 137.478 147.077 137.478 145.667C137.478 144.105 137.478 142.662 137.382 141.977C137.317 141.443 137.117 141.403 135.888 141.403C135.84 141.403 135.768 141.315 135.784 141.188C135.848 141.108 135.936 141.004 136.001 140.917C136.033 140.869 136.121 140.853 136.25 140.853H137.639C138.209 140.853 139.028 140.821 139.365 140.821C139.445 140.821 139.445 140.837 139.397 140.988L139.26 141.307H139.252Z" fill="white"/>
<path d="M149.946 140.829C150.195 140.829 151.52 140.861 151.841 140.861C152.21 140.861 152.732 140.829 153.133 140.829C153.35 140.829 153.382 140.917 153.471 141.236C153.471 141.299 153.487 141.371 153.39 141.387C152.555 141.475 152.314 141.57 151.632 142.28C150.179 143.81 149.368 144.878 149.135 145.165C149.055 145.244 149.071 145.316 149.135 145.404C150.572 147.452 151.712 148.91 152.082 149.341C152.636 149.946 152.868 150.058 153.639 150.177V150.6C153.639 150.679 153.623 150.703 153.519 150.703C153.366 150.703 152.443 150.656 151.311 150.656C150.243 150.656 149.705 150.703 149.52 150.703C149.384 150.703 149.352 150.703 149.32 150.64C149.239 150.52 149.223 150.321 149.223 150.233C149.223 150.169 149.239 150.153 149.328 150.153C149.424 150.138 149.665 150.106 149.946 150.034C150.195 149.986 150.267 149.914 149.994 149.516C149.657 149.062 148.22 146.982 147.85 146.511C147.16 147.396 146.429 148.257 146.044 148.807C145.642 149.38 145.474 149.699 145.474 149.883C145.49 150.098 145.98 150.13 146.349 150.13C146.429 150.146 146.469 150.161 146.469 150.209C146.485 150.329 146.485 150.648 146.421 150.743C145.329 150.664 144.245 150.664 144.013 150.664C143.732 150.664 143.306 150.679 143.137 150.695C143.057 150.711 143.017 150.711 143.001 150.616C142.969 150.448 142.985 150.217 143.001 150.161C143.651 150.114 143.908 149.93 144.294 149.524C144.968 148.823 146.734 146.806 147.377 146.057C147.473 145.977 147.425 145.858 147.361 145.786C146.943 145.18 145.185 142.798 144.51 141.929C144.157 141.53 143.989 141.443 143.37 141.411C143.306 141.411 143.274 141.427 143.274 141.331C143.274 141.18 143.306 140.829 143.459 140.829C144.229 140.829 145.048 140.845 145.57 140.845C146.108 140.829 146.646 140.781 147.128 140.781C147.264 140.781 147.296 140.781 147.312 140.845L147.393 141.228C147.425 141.363 147.377 141.395 147.224 141.395H146.654C146.421 141.395 146.389 141.499 146.558 141.777C146.791 142.144 147.056 142.598 148.653 144.726C149.223 144.057 150.01 143.029 150.444 142.447C150.693 142.096 150.829 141.841 150.829 141.706C150.797 141.57 150.66 141.506 150.155 141.451C150.002 141.435 149.954 141.419 149.954 141.331L149.922 140.829H149.946Z" fill="white"/>
<path d="M28.7987 130.519C28.7987 130.28 28.7746 130.24 28.5659 130.009H29.8023C29.5935 130.256 29.5695 130.28 29.5695 130.511V131.547C29.5775 131.81 29.5855 131.842 29.6578 131.945C28.3812 132.687 26.6711 132.989 25.3383 132.248C24.2624 131.635 23.7405 130.718 23.7164 129.706C23.6843 128.75 24.1339 127.674 25.25 126.964C26.5185 126.175 27.9476 126.359 29.1921 126.948L29.2965 128.192C28.7104 127.188 28.2608 126.869 27.2572 126.781C26.5827 126.725 25.8441 126.845 25.2339 127.602C24.5836 128.359 24.5274 129.714 24.7281 130.479C24.985 131.388 25.4346 131.906 26.3579 132.224C26.928 132.424 28.0922 132.32 28.6301 131.961C28.7586 131.866 28.7586 131.85 28.7987 131.778V130.511V130.519Z" fill="#DEA46E"/>
<path d="M33.11 127.077C33.11 126.83 33.0859 126.798 32.8772 126.559H34.0895C34.788 126.559 35.888 126.535 36.4099 127.387C36.6507 127.77 36.6507 128.264 36.4179 128.695C36.177 129.149 35.7836 129.38 35.326 129.523C35.6632 129.754 35.7435 129.89 36.0967 130.376L37.1084 131.906C37.4135 132.361 37.4295 132.353 37.831 132.584H37.5901C36.5785 132.584 36.6909 132.687 36.0726 131.707L35.3581 130.567C34.7639 129.627 34.9004 129.731 33.8727 129.747V132.066C33.8727 132.305 33.8968 132.329 34.1056 132.576H32.8691C33.0779 132.337 33.102 132.305 33.102 132.058V127.077H33.11ZM33.8808 129.412C34.1618 129.436 34.2662 129.452 34.5311 129.428C35.0128 129.372 35.4143 129.205 35.6712 128.695C35.8559 128.328 35.8478 127.77 35.615 127.403C35.2296 126.79 34.1297 126.877 33.8888 126.877V129.412H33.8808Z" fill="#DEA46E"/>
<path d="M43.0019 126.438L45.3945 132.016C45.523 132.311 45.6113 132.367 45.8602 132.574H44.3829C44.6157 132.375 44.6639 132.287 44.5756 132C44.5435 131.889 44.3508 131.434 44.3267 131.387L44.0136 130.693H41.5969L41.2195 131.546L40.9947 132.072C40.8984 132.335 40.9465 132.375 41.1473 132.582H40.1758C40.3203 132.439 40.4488 132.271 40.5371 132.072L42.9939 126.445L43.0019 126.438ZM41.7494 130.303H43.845L42.8012 127.776L41.7494 130.303Z" fill="#DEA46E"/>
<path d="M49.6347 126.559L53.2798 130.998V127.156C53.2798 126.901 53.2798 126.83 53.0309 126.559H53.9301C53.6973 126.814 53.6732 126.893 53.6732 127.164V132.687L49.2654 127.387V131.978C49.2654 132.249 49.2894 132.321 49.5223 132.576H48.623C48.8719 132.305 48.8719 132.241 48.8719 131.986V127.156C48.8719 126.901 48.8719 126.83 48.623 126.559H49.6267H49.6347Z" fill="#DEA46E"/>
<path d="M57.166 132.576C57.3748 132.337 57.3989 132.305 57.3989 132.058V127.077C57.3989 126.83 57.3748 126.798 57.166 126.559H59.2856C60.3615 126.559 61.6943 126.686 62.4651 128.017C63.011 128.934 63.003 129.986 62.4651 130.91C61.5337 132.528 60.2973 132.576 58.9484 132.576H57.174H57.166ZM58.1696 132.105C58.8521 132.305 59.7513 132.273 60.2009 132.153C60.9155 131.978 61.5096 131.468 61.7746 130.775C62.0395 130.049 62.0797 128.631 61.5016 127.826C60.779 126.814 59.4221 126.885 58.7316 126.893H58.1616V132.105H58.1696Z" fill="#DEA46E"/>
<path d="M74.629 127.01L74.6852 128.341C74.3721 127.433 74.075 127.074 73.1196 126.827C72.4933 126.66 71.4978 126.771 70.9036 127.281C70.0124 128.046 69.9 129.146 69.9883 129.943C70.0927 130.74 70.3737 131.553 71.3693 132.055C71.9955 132.382 73.0955 132.358 73.6655 132.039C74.2276 131.736 74.5327 131.282 74.7575 130.716L74.7013 132.015C73.3926 132.725 71.9072 132.956 70.6387 132.207C69.5467 131.569 69.049 130.597 69.049 129.672C69.0409 128.716 69.4022 127.64 70.6066 126.915C71.8269 126.174 73.2962 126.357 74.6129 127.002L74.629 127.01Z" fill="#DEA46E"/>
<path d="M78.192 127.077C78.192 126.83 78.168 126.798 77.9592 126.559H79.1716C79.8701 126.559 80.97 126.535 81.4919 127.387C81.7328 127.77 81.7328 128.264 81.4999 128.695C81.2591 129.149 80.8656 129.38 80.408 129.523C80.7452 129.754 80.8255 129.89 81.1788 130.376L82.1904 131.906C82.4955 132.361 82.5116 132.353 82.913 132.584H82.6721C81.6605 132.584 81.7729 132.687 81.1547 131.707L80.4401 130.567C79.846 129.627 79.9825 129.731 78.9548 129.747V132.066C78.9548 132.305 78.9789 132.329 79.1876 132.576H77.9512C78.1599 132.337 78.184 132.305 78.184 132.058V127.077H78.192ZM78.9628 129.412C79.2438 129.436 79.3482 129.452 79.6131 129.428C80.0949 129.372 80.4963 129.205 80.7532 128.695C80.9379 128.328 80.9299 127.77 80.697 127.403C80.3117 126.79 79.2117 126.877 78.9708 126.877V129.412H78.9628Z" fill="#DEA46E"/>
<path d="M90.6302 126.559C90.4295 126.806 90.4054 126.83 90.4054 127.069V130.368C90.4054 130.998 90.3813 131.89 89.5704 132.368C88.8157 132.799 87.5472 132.775 86.8326 132.376C85.9173 131.85 85.9494 131.085 85.9494 130.4V127.077C85.9494 126.83 85.9253 126.798 85.7246 126.559H86.953C86.7523 126.806 86.7282 126.83 86.7282 127.069V130.4C86.7282 131.037 86.664 131.667 87.4267 132.121C87.8844 132.4 88.896 132.352 89.3376 132.105C90.0521 131.715 90.004 130.902 90.004 130.44V127.077C90.004 126.83 89.9799 126.798 89.7711 126.559H90.6222H90.6302Z" fill="#DEA46E"/>
<path d="M102.504 127.01L102.56 128.341C102.247 127.433 101.95 127.074 100.994 126.827C100.368 126.66 99.3725 126.771 98.7784 127.281C97.8872 128.046 97.7748 129.146 97.8631 129.943C97.9675 130.74 98.2485 131.553 99.2441 132.055C99.8703 132.382 100.97 132.358 101.54 132.039C102.102 131.736 102.407 131.282 102.632 130.716L102.576 132.015C101.267 132.725 99.782 132.956 98.5215 132.207C97.4296 131.569 96.9318 130.597 96.9318 129.672C96.9237 128.716 97.285 127.64 98.4894 126.915C99.7097 126.174 101.179 126.357 102.496 127.002L102.504 127.01Z" fill="#DEA46E"/>
<path d="M105.844 132.576C106.053 132.337 106.077 132.305 106.077 132.058V127.077C106.077 126.83 106.053 126.798 105.844 126.559H107.08C106.88 126.806 106.848 126.83 106.848 127.069V132.209H108.108C108.614 132.209 109.152 132.265 109.529 131.667L109.369 132.576H105.836H105.844Z" fill="#DEA46E"/>
<path d="M114.957 126.438L117.349 132.016C117.478 132.311 117.566 132.367 117.815 132.574H116.346C116.579 132.375 116.627 132.287 116.538 132C116.506 131.889 116.314 131.434 116.29 131.387L115.976 130.693H113.56L113.182 131.546L112.958 132.072C112.861 132.335 112.909 132.375 113.11 132.582H112.139C112.283 132.439 112.412 132.271 112.5 132.072L114.949 126.445L114.957 126.438ZM113.704 130.303H115.808L114.764 127.776L113.712 130.303H113.704Z" fill="#DEA46E"/>
<path d="M123.717 126.901L123.677 127.913C123.428 127.3 123.219 126.957 122.569 126.814C122.256 126.742 121.814 126.758 121.509 127.029C121.252 127.26 121.172 127.627 121.196 127.874C121.26 128.384 121.726 128.663 122.272 128.965L122.721 129.228C123.637 129.731 124.046 130.017 124.046 130.902C124.054 131.492 123.813 132.05 123.115 132.44C122.489 132.799 121.549 132.767 120.835 132.353C120.738 132.305 120.65 132.257 120.377 132.01L120.425 130.91C120.642 131.595 121.011 132.105 121.71 132.289C122.055 132.392 122.577 132.345 122.922 132.05C123.267 131.763 123.348 131.42 123.316 131.053C123.259 130.464 122.842 130.257 122.248 129.914L121.83 129.675C120.939 129.181 120.538 128.91 120.521 128.017C120.521 127.515 120.682 127.061 121.284 126.702C121.967 126.304 122.994 126.391 123.725 126.909L123.717 126.901Z" fill="#DEA46E"/>
<path d="M130.309 126.901L130.269 127.913C130.02 127.3 129.811 126.957 129.161 126.814C128.847 126.742 128.406 126.758 128.101 127.029C127.844 127.26 127.764 127.627 127.788 127.874C127.852 128.384 128.318 128.663 128.864 128.965L129.313 129.228C130.228 129.731 130.638 130.017 130.638 130.902C130.638 131.492 130.405 132.05 129.707 132.44C129.08 132.799 128.141 132.767 127.426 132.353C127.33 132.305 127.25 132.257 126.969 132.01L127.017 130.91C127.234 131.595 127.603 132.105 128.302 132.289C128.647 132.392 129.169 132.345 129.514 132.05C129.859 131.763 129.939 131.42 129.907 131.053C129.851 130.464 129.434 130.257 128.839 129.914L128.422 129.675C127.531 129.181 127.129 128.91 127.113 128.017C127.113 127.515 127.266 127.061 127.876 126.702C128.558 126.304 129.586 126.391 130.317 126.909L130.309 126.901Z" fill="#DEA46E"/>
<path d="M133.729 132.576C133.929 132.337 133.953 132.305 133.953 132.058V127.077C133.953 126.83 133.929 126.798 133.729 126.559H137.117V127.188C136.916 126.997 136.362 126.861 135.84 126.861C135.318 126.861 134.804 126.877 134.732 126.877V129.077H136.065C136.314 129.077 136.563 128.942 136.627 128.83V129.611C136.418 129.412 136.298 129.38 136.065 129.38H134.732V132.153C135.198 132.265 136.362 132.249 136.523 132.233C137.004 132.193 137.197 132.169 137.502 131.667L137.366 132.568H133.737L133.729 132.576ZM135.053 125.092C135.543 124.59 135.752 124.359 135.961 124.431C136.073 124.463 136.169 124.574 136.177 124.686C136.209 124.933 135.92 125.06 135.399 125.363L134.531 125.865H134.291L135.053 125.1V125.092Z" fill="#DEA46E"/>
<path d="M143.949 132.576C144.158 132.337 144.182 132.305 144.182 132.058V127.077C144.182 126.83 144.158 126.798 143.949 126.559H147.337V127.188C147.145 126.997 146.591 126.861 146.061 126.861C145.563 126.861 145.033 126.877 144.953 126.877V129.077H146.294C146.535 129.077 146.783 128.941 146.856 128.83V129.611C146.639 129.412 146.518 129.38 146.294 129.38H144.953V132.153C145.435 132.265 146.591 132.249 146.751 132.233C147.225 132.193 147.426 132.169 147.731 131.667L147.594 132.568H143.957L143.949 132.576Z" fill="#DEA46E"/>
<path d="M151.754 126.559L155.399 130.998V127.156C155.399 126.901 155.399 126.83 155.15 126.559H156.049C155.816 126.814 155.792 126.893 155.792 127.164V132.687L151.384 127.387V131.978C151.384 132.249 151.409 132.321 151.641 132.576H150.742C150.991 132.305 150.991 132.241 150.991 131.986V127.156C150.991 126.901 150.991 126.83 150.742 126.559H151.746H151.754Z" fill="#DEA46E"/>
<path d="M164.856 126.453V131.968C164.856 132.295 164.856 132.319 165.129 132.574H163.788C164.077 132.303 164.077 132.287 164.077 131.968V128.079C164.077 127.864 164.101 127.489 163.941 127.386C163.852 127.33 163.604 127.346 163.459 127.346L164.864 126.453H164.856Z" fill="#DEA46E"/>
<path d="M172.339 129.044C173.085 129.49 173.575 129.905 173.631 130.734C173.655 131.196 173.503 131.834 172.941 132.272C172.443 132.662 171.785 132.782 171.19 132.599C170.62 132.423 170.187 132.049 169.986 131.443C169.858 131.037 169.866 130.447 170.219 130.009C170.484 129.674 170.781 129.506 171.158 129.347C170.428 128.901 170.171 128.454 170.211 127.817C170.235 127.379 170.452 126.9 171.014 126.613C171.496 126.374 172.266 126.374 172.74 126.677C173.214 126.996 173.374 127.355 173.35 127.785C173.318 128.399 173.053 128.638 172.347 129.036L172.339 129.044ZM170.524 131.268C170.612 131.738 170.837 132.097 171.343 132.272C171.64 132.391 172.13 132.32 172.419 132.097C172.877 131.73 172.933 131.244 172.885 130.885C172.78 130.12 172.058 129.793 171.343 129.49C170.54 130.088 170.404 130.59 170.516 131.268H170.524ZM172.764 127.586C172.716 127.243 172.555 126.98 172.226 126.837C171.969 126.717 171.544 126.749 171.319 126.892C170.99 127.108 170.901 127.426 170.909 127.705C170.925 128.303 171.544 128.654 172.082 128.957C172.684 128.431 172.812 128.064 172.764 127.594V127.586Z" fill="#DEA46E"/>
<path d="M180.69 126.43L180.585 127.195H178.482L178.201 128.789C178.843 128.582 179.606 128.614 180.184 129.147C180.802 129.705 180.931 130.439 180.81 131.02C180.666 131.762 180.216 132.303 179.405 132.59C178.972 132.734 178.241 132.766 177.743 132.335C177.655 132.272 177.558 132.184 177.51 132.104C177.462 132.04 177.438 131.993 177.422 131.961C177.39 131.881 177.422 131.873 177.438 131.889C177.992 132.303 178.498 132.383 179.012 132.2C179.469 132.048 179.823 131.674 179.943 131.204C180.063 130.773 180.039 130.168 179.662 129.721C179.301 129.315 178.666 129.187 178.249 129.227C178.08 129.243 178.016 129.267 177.751 129.355L178.273 126.549H180.256C180.433 126.549 180.497 126.533 180.698 126.422L180.69 126.43Z" fill="#DEA46E"/>
<path d="M187.996 126.43L187.892 127.195H185.796L185.515 128.789C186.157 128.582 186.92 128.614 187.498 129.147C188.116 129.705 188.245 130.439 188.124 131.02C187.98 131.762 187.53 132.303 186.719 132.59C186.286 132.734 185.555 132.766 185.057 132.335C184.969 132.272 184.881 132.184 184.824 132.104C184.776 132.04 184.752 131.993 184.736 131.961C184.704 131.881 184.728 131.873 184.752 131.889C185.306 132.303 185.812 132.383 186.326 132.2C186.784 132.048 187.129 131.674 187.257 131.204C187.378 130.773 187.354 130.168 186.976 129.721C186.615 129.315 185.981 129.187 185.563 129.227C185.395 129.243 185.33 129.267 185.057 129.355L185.579 126.549H187.562C187.747 126.549 187.803 126.533 188.004 126.422L187.996 126.43Z" fill="#DEA46E"/>
<path d="M28.7987 130.519C28.7987 130.28 28.7746 130.24 28.5659 130.009H29.8023C29.5935 130.256 29.5695 130.28 29.5695 130.511V131.547C29.5775 131.81 29.5855 131.842 29.6578 131.945C28.3812 132.687 26.6711 132.989 25.3383 132.248C24.2624 131.635 23.7405 130.718 23.7164 129.706C23.6843 128.75 24.1339 127.674 25.25 126.964C26.5185 126.175 27.9476 126.359 29.1921 126.948L29.2965 128.192C28.7104 127.188 28.2608 126.869 27.2572 126.781C26.5827 126.725 25.8441 126.845 25.2339 127.602C24.5836 128.359 24.5274 129.714 24.7281 130.479C24.985 131.388 25.4346 131.906 26.3579 132.224C26.928 132.424 28.0922 132.32 28.6301 131.961C28.7586 131.866 28.7586 131.85 28.7987 131.778V130.511V130.519Z" fill="#DEA46E"/>
<path d="M33.11 127.077C33.11 126.83 33.0859 126.798 32.8772 126.559H34.0895C34.788 126.559 35.888 126.535 36.4099 127.387C36.6507 127.77 36.6507 128.264 36.4179 128.695C36.177 129.149 35.7836 129.38 35.326 129.523C35.6632 129.754 35.7435 129.89 36.0967 130.376L37.1084 131.906C37.4135 132.361 37.4295 132.353 37.831 132.584H37.5901C36.5785 132.584 36.6909 132.687 36.0726 131.707L35.3581 130.567C34.7639 129.627 34.9004 129.731 33.8727 129.747V132.066C33.8727 132.305 33.8968 132.329 34.1056 132.576H32.8691C33.0779 132.337 33.102 132.305 33.102 132.058V127.077H33.11ZM33.8808 129.412C34.1618 129.436 34.2662 129.452 34.5311 129.428C35.0128 129.372 35.4143 129.205 35.6712 128.695C35.8559 128.328 35.8478 127.77 35.615 127.403C35.2296 126.79 34.1297 126.877 33.8888 126.877V129.412H33.8808Z" fill="#DEA46E"/>
<path d="M43.0019 126.438L45.3945 132.016C45.523 132.311 45.6113 132.367 45.8602 132.574H44.3829C44.6157 132.375 44.6639 132.287 44.5756 132C44.5435 131.889 44.3508 131.434 44.3267 131.387L44.0136 130.693H41.5969L41.2195 131.546L40.9947 132.072C40.8984 132.335 40.9465 132.375 41.1473 132.582H40.1758C40.3203 132.439 40.4488 132.271 40.5371 132.072L42.9939 126.445L43.0019 126.438ZM41.7494 130.303H43.845L42.8012 127.776L41.7494 130.303Z" fill="#DEA46E"/>
<path d="M49.6347 126.559L53.2798 130.998V127.156C53.2798 126.901 53.2798 126.83 53.0309 126.559H53.9301C53.6973 126.814 53.6732 126.893 53.6732 127.164V132.687L49.2654 127.387V131.978C49.2654 132.249 49.2894 132.321 49.5223 132.576H48.623C48.8719 132.305 48.8719 132.241 48.8719 131.986V127.156C48.8719 126.901 48.8719 126.83 48.623 126.559H49.6267H49.6347Z" fill="#DEA46E"/>
<path d="M57.166 132.576C57.3748 132.337 57.3989 132.305 57.3989 132.058V127.077C57.3989 126.83 57.3748 126.798 57.166 126.559H59.2856C60.3615 126.559 61.6943 126.686 62.4651 128.017C63.011 128.934 63.003 129.986 62.4651 130.91C61.5337 132.528 60.2973 132.576 58.9484 132.576H57.174H57.166ZM58.1696 132.105C58.8521 132.305 59.7513 132.273 60.2009 132.153C60.9155 131.978 61.5096 131.468 61.7746 130.775C62.0395 130.049 62.0797 128.631 61.5016 127.826C60.779 126.814 59.4221 126.885 58.7316 126.893H58.1616V132.105H58.1696Z" fill="#DEA46E"/>
<path d="M74.629 127.01L74.6852 128.341C74.3721 127.433 74.075 127.074 73.1196 126.827C72.4933 126.66 71.4978 126.771 70.9036 127.281C70.0124 128.046 69.9 129.146 69.9883 129.943C70.0927 130.74 70.3737 131.553 71.3693 132.055C71.9955 132.382 73.0955 132.358 73.6655 132.039C74.2276 131.736 74.5327 131.282 74.7575 130.716L74.7013 132.015C73.3926 132.725 71.9072 132.956 70.6387 132.207C69.5467 131.569 69.049 130.597 69.049 129.672C69.0409 128.716 69.4022 127.64 70.6066 126.915C71.8269 126.174 73.2962 126.357 74.6129 127.002L74.629 127.01Z" fill="#DEA46E"/>
<path d="M78.192 127.077C78.192 126.83 78.168 126.798 77.9592 126.559H79.1716C79.8701 126.559 80.97 126.535 81.4919 127.387C81.7328 127.77 81.7328 128.264 81.4999 128.695C81.2591 129.149 80.8656 129.38 80.408 129.523C80.7452 129.754 80.8255 129.89 81.1788 130.376L82.1904 131.906C82.4955 132.361 82.5116 132.353 82.913 132.584H82.6721C81.6605 132.584 81.7729 132.687 81.1547 131.707L80.4401 130.567C79.846 129.627 79.9825 129.731 78.9548 129.747V132.066C78.9548 132.305 78.9789 132.329 79.1876 132.576H77.9512C78.1599 132.337 78.184 132.305 78.184 132.058V127.077H78.192ZM78.9628 129.412C79.2438 129.436 79.3482 129.452 79.6131 129.428C80.0949 129.372 80.4963 129.205 80.7532 128.695C80.9379 128.328 80.9299 127.77 80.697 127.403C80.3117 126.79 79.2117 126.877 78.9708 126.877V129.412H78.9628Z" fill="#DEA46E"/>
<path d="M90.6302 126.559C90.4295 126.806 90.4054 126.83 90.4054 127.069V130.368C90.4054 130.998 90.3813 131.89 89.5704 132.368C88.8157 132.799 87.5472 132.775 86.8326 132.376C85.9173 131.85 85.9494 131.085 85.9494 130.4V127.077C85.9494 126.83 85.9253 126.798 85.7246 126.559H86.953C86.7523 126.806 86.7282 126.83 86.7282 127.069V130.4C86.7282 131.037 86.664 131.667 87.4267 132.121C87.8844 132.4 88.896 132.352 89.3376 132.105C90.0521 131.715 90.004 130.902 90.004 130.44V127.077C90.004 126.83 89.9799 126.798 89.7711 126.559H90.6222H90.6302Z" fill="#DEA46E"/>
<path d="M102.504 127.01L102.56 128.341C102.247 127.433 101.95 127.074 100.994 126.827C100.368 126.66 99.3725 126.771 98.7784 127.281C97.8872 128.046 97.7748 129.146 97.8631 129.943C97.9675 130.74 98.2485 131.553 99.2441 132.055C99.8703 132.382 100.97 132.358 101.54 132.039C102.102 131.736 102.407 131.282 102.632 130.716L102.576 132.015C101.267 132.725 99.782 132.956 98.5215 132.207C97.4296 131.569 96.9318 130.597 96.9318 129.672C96.9237 128.716 97.285 127.64 98.4894 126.915C99.7097 126.174 101.179 126.357 102.496 127.002L102.504 127.01Z" fill="#DEA46E"/>
<path d="M105.844 132.576C106.053 132.337 106.077 132.305 106.077 132.058V127.077C106.077 126.83 106.053 126.798 105.844 126.559H107.08C106.88 126.806 106.848 126.83 106.848 127.069V132.209H108.108C108.614 132.209 109.152 132.265 109.529 131.667L109.369 132.576H105.836H105.844Z" fill="#DEA46E"/>
<path d="M114.957 126.438L117.349 132.016C117.478 132.311 117.566 132.367 117.815 132.574H116.346C116.579 132.375 116.627 132.287 116.538 132C116.506 131.889 116.314 131.434 116.29 131.387L115.976 130.693H113.56L113.182 131.546L112.958 132.072C112.861 132.335 112.909 132.375 113.11 132.582H112.139C112.283 132.439 112.412 132.271 112.5 132.072L114.949 126.445L114.957 126.438ZM113.704 130.303H115.808L114.764 127.776L113.712 130.303H113.704Z" fill="#DEA46E"/>
<path d="M123.717 126.901L123.677 127.913C123.428 127.3 123.219 126.957 122.569 126.814C122.256 126.742 121.814 126.758 121.509 127.029C121.252 127.26 121.172 127.627 121.196 127.874C121.26 128.384 121.726 128.663 122.272 128.965L122.721 129.228C123.637 129.731 124.046 130.017 124.046 130.902C124.054 131.492 123.813 132.05 123.115 132.44C122.489 132.799 121.549 132.767 120.835 132.353C120.738 132.305 120.65 132.257 120.377 132.01L120.425 130.91C120.642 131.595 121.011 132.105 121.71 132.289C122.055 132.392 122.577 132.345 122.922 132.05C123.267 131.763 123.348 131.42 123.316 131.053C123.259 130.464 122.842 130.257 122.248 129.914L121.83 129.675C120.939 129.181 120.538 128.91 120.521 128.017C120.521 127.515 120.682 127.061 121.284 126.702C121.967 126.304 122.994 126.391 123.725 126.909L123.717 126.901Z" fill="#DEA46E"/>
<path d="M130.309 126.901L130.269 127.913C130.02 127.3 129.811 126.957 129.161 126.814C128.847 126.742 128.406 126.758 128.101 127.029C127.844 127.26 127.764 127.627 127.788 127.874C127.852 128.384 128.318 128.663 128.864 128.965L129.313 129.228C130.228 129.731 130.638 130.017 130.638 130.902C130.638 131.492 130.405 132.05 129.707 132.44C129.08 132.799 128.141 132.767 127.426 132.353C127.33 132.305 127.25 132.257 126.969 132.01L127.017 130.91C127.234 131.595 127.603 132.105 128.302 132.289C128.647 132.392 129.169 132.345 129.514 132.05C129.859 131.763 129.939 131.42 129.907 131.053C129.851 130.464 129.434 130.257 128.839 129.914L128.422 129.675C127.531 129.181 127.129 128.91 127.113 128.017C127.113 127.515 127.266 127.061 127.876 126.702C128.558 126.304 129.586 126.391 130.317 126.909L130.309 126.901Z" fill="#DEA46E"/>
<path d="M133.729 132.576C133.929 132.337 133.953 132.305 133.953 132.058V127.077C133.953 126.83 133.929 126.798 133.729 126.559H137.117V127.188C136.916 126.997 136.362 126.861 135.84 126.861C135.318 126.861 134.804 126.877 134.732 126.877V129.077H136.065C136.314 129.077 136.563 128.942 136.627 128.83V129.611C136.418 129.412 136.298 129.38 136.065 129.38H134.732V132.153C135.198 132.265 136.362 132.249 136.523 132.233C137.004 132.193 137.197 132.169 137.502 131.667L137.366 132.568H133.737L133.729 132.576ZM135.053 125.092C135.543 124.59 135.752 124.359 135.961 124.431C136.073 124.463 136.169 124.574 136.177 124.686C136.209 124.933 135.92 125.06 135.399 125.363L134.531 125.865H134.291L135.053 125.1V125.092Z" fill="#DEA46E"/>
<path d="M143.949 132.576C144.158 132.337 144.182 132.305 144.182 132.058V127.077C144.182 126.83 144.158 126.798 143.949 126.559H147.337V127.188C147.145 126.997 146.591 126.861 146.061 126.861C145.563 126.861 145.033 126.877 144.953 126.877V129.077H146.294C146.535 129.077 146.783 128.941 146.856 128.83V129.611C146.639 129.412 146.518 129.38 146.294 129.38H144.953V132.153C145.435 132.265 146.591 132.249 146.751 132.233C147.225 132.193 147.426 132.169 147.731 131.667L147.594 132.568H143.957L143.949 132.576Z" fill="#DEA46E"/>
<path d="M151.754 126.559L155.399 130.998V127.156C155.399 126.901 155.399 126.83 155.15 126.559H156.049C155.816 126.814 155.792 126.893 155.792 127.164V132.687L151.384 127.387V131.978C151.384 132.249 151.409 132.321 151.641 132.576H150.742C150.991 132.305 150.991 132.241 150.991 131.986V127.156C150.991 126.901 150.991 126.83 150.742 126.559H151.746H151.754Z" fill="#DEA46E"/>
<path d="M164.856 126.453V131.968C164.856 132.295 164.856 132.319 165.129 132.574H163.788C164.077 132.303 164.077 132.287 164.077 131.968V128.079C164.077 127.864 164.101 127.489 163.941 127.386C163.852 127.33 163.604 127.346 163.459 127.346L164.864 126.453H164.856Z" fill="#DEA46E"/>
<path d="M172.339 129.044C173.085 129.49 173.575 129.905 173.631 130.734C173.655 131.196 173.503 131.834 172.941 132.272C172.443 132.662 171.785 132.782 171.19 132.599C170.62 132.423 170.187 132.049 169.986 131.443C169.858 131.037 169.866 130.447 170.219 130.009C170.484 129.674 170.781 129.506 171.158 129.347C170.428 128.901 170.171 128.454 170.211 127.817C170.235 127.379 170.452 126.9 171.014 126.613C171.496 126.374 172.266 126.374 172.74 126.677C173.214 126.996 173.374 127.355 173.35 127.785C173.318 128.399 173.053 128.638 172.347 129.036L172.339 129.044ZM170.524 131.268C170.612 131.738 170.837 132.097 171.343 132.272C171.64 132.391 172.13 132.32 172.419 132.097C172.877 131.73 172.933 131.244 172.885 130.885C172.78 130.12 172.058 129.793 171.343 129.49C170.54 130.088 170.404 130.59 170.516 131.268H170.524ZM172.764 127.586C172.716 127.243 172.555 126.98 172.226 126.837C171.969 126.717 171.544 126.749 171.319 126.892C170.99 127.108 170.901 127.426 170.909 127.705C170.925 128.303 171.544 128.654 172.082 128.957C172.684 128.431 172.812 128.064 172.764 127.594V127.586Z" fill="#DEA46E"/>
<path d="M180.69 126.43L180.585 127.195H178.482L178.201 128.789C178.843 128.582 179.606 128.614 180.184 129.147C180.802 129.705 180.931 130.439 180.81 131.02C180.666 131.762 180.216 132.303 179.405 132.59C178.972 132.734 178.241 132.766 177.743 132.335C177.655 132.272 177.558 132.184 177.51 132.104C177.462 132.04 177.438 131.993 177.422 131.961C177.39 131.881 177.422 131.873 177.438 131.889C177.992 132.303 178.498 132.383 179.012 132.2C179.469 132.048 179.823 131.674 179.943 131.204C180.063 130.773 180.039 130.168 179.662 129.721C179.301 129.315 178.666 129.187 178.249 129.227C178.08 129.243 178.016 129.267 177.751 129.355L178.273 126.549H180.256C180.433 126.549 180.497 126.533 180.698 126.422L180.69 126.43Z" fill="#DEA46E"/>
<path d="M187.996 126.43L187.892 127.195H185.796L185.515 128.789C186.157 128.582 186.92 128.614 187.498 129.147C188.116 129.705 188.245 130.439 188.124 131.02C187.98 131.762 187.53 132.303 186.719 132.59C186.286 132.734 185.555 132.766 185.057 132.335C184.969 132.272 184.881 132.184 184.824 132.104C184.776 132.04 184.752 131.993 184.736 131.961C184.704 131.881 184.728 131.873 184.752 131.889C185.306 132.303 185.812 132.383 186.326 132.2C186.784 132.048 187.129 131.674 187.257 131.204C187.378 130.773 187.354 130.168 186.976 129.721C186.615 129.315 185.981 129.187 185.563 129.227C185.395 129.243 185.33 129.267 185.057 129.355L185.579 126.549H187.562C187.747 126.549 187.803 126.533 188.004 126.422L187.996 126.43Z" fill="#DEA46E"/>
</g>
<defs>
<clipPath id="clip0_668_16806">
<rect width="196" height="151" fill="white"/>
</clipPath>
</defs>
</svg>
