<svg width="245" height="190" viewBox="0 0 245 190" fill="none" xmlns="http://www.w3.org/2000/svg">
<g clip-path="url(#clip0_18_1312)">
<path d="M135.11 94.271C134.69 95.291 134.18 95.901 133.4 96.311C132.5 96.811 130.76 96.821 129.82 96.331C128.19 95.531 127.81 94.171 127.66 93.081C127.55 92.091 127.58 90.251 129.08 88.961C130.01 88.171 131.55 88.011 132.53 88.261C134.04 88.641 134.48 89.201 134.96 90.581C134.98 90.631 135.03 90.661 135.08 90.651C135.13 90.641 135.17 90.591 135.17 90.541L135.08 88.431C135.08 88.431 135.05 88.351 135.02 88.341C132.6 87.171 130.28 87.121 128.49 88.201C126.36 89.461 125.93 91.311 125.94 92.651C125.94 94.311 126.89 95.801 128.54 96.751C129.4 97.251 130.35 97.501 131.37 97.501C132.57 97.501 133.86 97.151 135.15 96.451C135.18 96.431 135.21 96.401 135.21 96.361L135.3 94.311C135.3 94.261 135.27 94.211 135.21 94.201C135.16 94.201 135.1 94.221 135.08 94.271H135.11Z" fill="white"/>
<path d="M149.32 87.8194L149.35 87.7894C149.35 87.7894 149.38 87.7094 149.36 87.6694C149.34 87.6294 149.3 87.6094 149.26 87.6094H147.29C147.29 87.6094 147.21 87.6394 147.19 87.6694C147.17 87.6994 147.18 87.7494 147.21 87.7894C147.52 88.1494 147.54 88.1794 147.54 88.5294V91.5894H142.26V88.5194C142.26 88.1894 142.27 88.1794 142.6 87.7894C142.63 87.7594 142.63 87.7094 142.62 87.6694C142.6 87.6294 142.56 87.6094 142.52 87.6094H140.54C140.54 87.6094 140.46 87.6394 140.44 87.6694C140.42 87.7094 140.43 87.7494 140.46 87.7894L140.48 87.8194C140.77 88.1594 140.8 88.1994 140.8 88.5394V96.4194C140.8 96.7594 140.77 96.7894 140.48 97.1294L140.45 97.1594C140.45 97.1594 140.42 97.2394 140.43 97.2794C140.44 97.3194 140.49 97.3394 140.53 97.3394H142.51C142.51 97.3394 142.59 97.3094 142.6 97.2694C142.61 97.2294 142.6 97.1794 142.58 97.1494C142.26 96.7794 142.25 96.7594 142.25 96.4294V92.3794H147.53V96.4194C147.53 96.7694 147.51 96.7894 147.2 97.1594C147.17 97.1894 147.17 97.2394 147.18 97.2794C147.19 97.3194 147.24 97.3394 147.28 97.3394H149.25C149.25 97.3394 149.33 97.3194 149.35 97.2794C149.37 97.2394 149.36 97.1994 149.34 97.1594L149.31 97.1294C149.02 96.7794 149 96.7494 149 96.4294V88.5194C149 88.1894 149.02 88.1694 149.31 87.8194H149.32Z" fill="white"/>
<path d="M156.959 86.72C156.959 86.72 157.009 86.71 157.029 86.69L158.549 85.34L160.069 86.69C160.069 86.69 160.119 86.72 160.139 86.72H160.589C160.589 86.72 160.669 86.7 160.689 86.66C160.709 86.62 160.699 86.58 160.679 86.54L159.019 84.29C159.019 84.29 158.969 84.25 158.929 84.25H158.179C158.179 84.25 158.109 84.27 158.089 84.29L156.419 86.54C156.419 86.54 156.389 86.62 156.409 86.65C156.429 86.69 156.469 86.71 156.509 86.71H156.959V86.72Z" fill="white"/>
<path d="M163.201 97.1102C162.821 96.8202 162.701 96.7302 162.511 96.3102L158.671 87.4802C158.671 87.4802 158.611 87.4102 158.571 87.4102C158.531 87.4102 158.491 87.4402 158.471 87.4802L154.541 96.3801C154.401 96.6701 154.231 96.9202 154.001 97.1502C153.971 97.1802 153.961 97.2301 153.971 97.2701C153.991 97.3101 154.031 97.3401 154.071 97.3401H155.611C155.611 97.3401 155.691 97.3101 155.711 97.2701C155.731 97.2301 155.711 97.1802 155.681 97.1502C155.361 96.8302 155.341 96.8102 155.461 96.4702L155.811 95.6502L156.401 94.3702H160.141L160.601 95.4002C160.641 95.4802 160.941 96.1802 161.001 96.3502C161.121 96.7602 161.061 96.8602 160.721 97.1402C160.681 97.1702 160.671 97.2202 160.691 97.2602C160.711 97.3002 160.751 97.3302 160.791 97.3302H163.171C163.171 97.3302 163.261 97.3002 163.271 97.2602C163.281 97.2102 163.271 97.1702 163.231 97.1402L163.191 97.1102H163.201ZM159.761 93.5302H156.741L158.251 89.9302L159.761 93.5302Z" fill="white"/>
<path d="M167.139 87.6094C167.079 87.6094 167.029 87.6594 167.029 87.7194V88.8194C167.029 88.8194 167.059 88.9094 167.099 88.9194C167.139 88.9394 167.189 88.9194 167.219 88.8894C167.669 88.3494 168.339 88.3394 168.979 88.3594H170.099V96.4194C170.099 96.7694 170.079 96.7894 169.769 97.1594C169.739 97.1894 169.739 97.2394 169.749 97.2794C169.769 97.3194 169.809 97.3394 169.849 97.3394H171.819C171.819 97.3394 171.899 97.3194 171.919 97.2794C171.939 97.2394 171.929 97.1994 171.909 97.1594L171.879 97.1294C171.589 96.7794 171.569 96.7494 171.569 96.4294V88.3594H172.689C173.329 88.3394 173.989 88.3394 174.449 88.8894C174.479 88.9294 174.529 88.9394 174.569 88.9194C174.609 88.8994 174.639 88.8594 174.639 88.8194V87.7194C174.639 87.6594 174.589 87.6094 174.529 87.6094H167.129H167.139Z" fill="white"/>
<path d="M185.371 95.7589C184.901 96.5089 184.621 96.5389 183.881 96.5989C183.631 96.6289 181.911 96.6489 181.131 96.4889V92.3089H183.171C183.511 92.3089 183.681 92.3589 183.991 92.6389C184.021 92.6689 184.071 92.6789 184.111 92.6589C184.151 92.6389 184.181 92.5989 184.181 92.5589V91.3189C184.181 91.3189 184.151 91.2289 184.101 91.2189C184.051 91.1989 184.011 91.2189 183.981 91.2589C183.881 91.3989 183.511 91.5989 183.171 91.5989H181.131V88.3389C181.131 88.3389 181.231 88.3389 181.301 88.3389C181.641 88.3389 182.241 88.3189 182.801 88.3189C183.621 88.3189 184.491 88.5289 184.771 88.8089C184.801 88.8389 184.851 88.8489 184.891 88.8289C184.931 88.8089 184.961 88.7689 184.961 88.7289V87.7389C184.961 87.6789 184.911 87.6289 184.851 87.6289H179.421C179.421 87.6289 179.341 87.6589 179.321 87.6889C179.301 87.7289 179.311 87.7789 179.341 87.8089C179.661 88.1689 179.681 88.1989 179.681 88.5489V96.4289C179.681 96.7789 179.651 96.8089 179.341 97.1689C179.311 97.1989 179.311 97.2489 179.321 97.2889C179.341 97.3289 179.381 97.3489 179.421 97.3489H185.251C185.301 97.3489 185.351 97.3089 185.361 97.2589L185.591 95.8389C185.591 95.7889 185.571 95.7389 185.521 95.7189C185.471 95.6989 185.421 95.7189 185.391 95.7689L185.371 95.7589Z" fill="white"/>
<path d="M198.961 97.1102C198.591 96.8202 198.481 96.7302 198.291 96.3102L194.451 87.4802C194.451 87.4802 194.391 87.4102 194.351 87.4102C194.311 87.4102 194.271 87.4402 194.251 87.4802L190.321 96.3801C190.191 96.6601 190.011 96.9102 189.761 97.1502C189.731 97.1802 189.721 97.2301 189.741 97.2701C189.761 97.3101 189.801 97.3401 189.841 97.3401H191.401C191.401 97.3401 191.481 97.3101 191.501 97.2701C191.521 97.2301 191.501 97.1802 191.481 97.1502L191.451 97.1301C191.151 96.8301 191.121 96.8102 191.251 96.4702L191.601 95.6502L192.181 94.3702H195.921L196.391 95.4002C196.431 95.4802 196.731 96.1802 196.781 96.3602C196.911 96.7602 196.851 96.8602 196.511 97.1502C196.471 97.1802 196.461 97.2301 196.481 97.2701C196.501 97.3101 196.541 97.3401 196.581 97.3401H198.941C198.941 97.3401 199.031 97.3101 199.041 97.2701C199.051 97.2301 199.041 97.1802 199.001 97.1502L198.951 97.1102H198.961ZM192.511 93.5302L194.031 89.9302L195.541 93.5302H192.511Z" fill="white"/>
<path d="M210.759 87.6098H209.399C209.399 87.6098 209.319 87.6398 209.299 87.6698C209.279 87.7098 209.289 87.7598 209.319 87.7898C209.639 88.1498 209.659 88.1798 209.659 88.5298V93.9898C209.659 94.7298 209.669 95.8398 208.649 96.3998C207.979 96.7598 206.399 96.8398 205.699 96.4298C204.619 95.7898 204.629 94.9298 204.629 94.0198V88.5198C204.629 88.1898 204.649 88.1698 204.959 87.7898C204.989 87.7598 204.989 87.7098 204.969 87.6698C204.949 87.6298 204.909 87.6098 204.869 87.6098H202.899C202.899 87.6098 202.819 87.6398 202.799 87.6698C202.779 87.7098 202.789 87.7498 202.819 87.7898C203.129 88.1498 203.149 88.1798 203.149 88.5298V93.8998C203.149 94.9698 203.149 96.1798 204.619 97.0098C205.229 97.3498 206.039 97.5098 206.859 97.5098C207.679 97.5098 208.509 97.3398 209.129 96.9898C210.519 96.1698 210.519 94.6399 210.519 93.7299V88.5098C210.519 88.1898 210.539 88.1698 210.819 87.8098L210.849 87.7698C210.849 87.7698 210.879 87.6898 210.859 87.6498C210.839 87.6098 210.799 87.5898 210.759 87.5898V87.6098Z" fill="white"/>
<path d="M244.089 130.512L243.869 130.352L243.759 130.322C243.519 130.322 243.189 130.482 243.029 130.792C242.669 131.382 241.019 133.252 238.969 135.082C237.469 136.412 235.229 138.192 233.039 139.122C231.339 139.842 229.799 139.872 228.789 139.232C227.569 138.442 227.339 136.852 228.209 135.282C228.769 134.252 230.379 132.152 232.239 129.712C235.059 126.012 238.259 121.812 239.169 119.632C240.269 116.972 240.319 114.472 239.309 112.962C238.779 112.182 237.999 111.752 237.099 111.752C235.359 111.752 231.529 112.832 225.399 120.052C225.199 120.292 224.889 120.472 224.739 120.482C224.739 120.482 224.659 120.342 224.869 119.792C225.459 118.262 225.619 116.692 225.319 115.262C224.989 113.682 223.519 111.982 221.099 111.982C218.679 111.982 216.659 114.422 215.399 115.882L215.099 116.232C214.909 116.452 214.329 117.122 213.499 118.122C209.359 123.002 198.369 135.962 195.929 137.882C194.579 138.952 193.689 139.332 192.439 139.372C191.859 139.372 191.429 139.222 191.159 138.942C190.889 138.662 190.749 138.222 190.769 137.652C190.819 136.222 193.829 132.172 196.249 128.912C197.249 127.572 198.199 126.292 198.909 125.242C201.609 121.302 207.509 113.812 208.069 113.172C208.349 112.852 208.599 112.522 208.469 112.232C208.299 111.852 207.779 111.882 207.169 111.922C206.799 111.942 206.389 111.982 205.999 112.012C205.049 112.092 204.129 112.122 203.979 112.072C203.339 111.892 202.889 112.112 202.689 112.642C202.419 113.392 199.959 117.032 199.599 117.472C199.289 117.852 199.099 117.602 199.099 117.402C199.099 116.802 198.909 113.762 195.109 112.292C194.519 112.062 193.829 111.952 193.059 111.952C189.449 111.952 184.049 114.602 179.929 118.392C178.229 119.952 176.499 120.812 172.569 120.492C171.859 120.432 171.709 120.312 171.699 120.312C171.699 120.152 172.079 119.562 172.389 119.082C172.699 118.592 173.049 118.052 173.319 117.522C174.229 115.752 175.159 113.172 175.209 111.372C175.229 110.482 175.059 109.832 174.689 109.452C173.979 108.722 172.439 109.302 171.569 109.872C170.139 110.812 167.859 113.302 167.489 115.642C167.119 117.962 167.329 118.582 169.109 120.382C169.269 120.552 169.339 120.702 169.339 120.882C169.339 121.092 169.069 121.662 168.519 122.382C167.499 123.702 164.409 127.712 159.369 132.442C155.929 135.662 153.039 137.762 151.949 138.512C150.039 139.832 148.919 140.042 147.629 139.302C147.229 139.082 146.999 138.742 146.909 138.252C146.579 136.462 148.429 133.282 149.839 131.592C150.409 130.912 153.119 127.332 155.989 123.542C159.119 119.412 162.359 115.132 162.769 114.682C163.059 114.362 163.359 114.102 163.629 113.862C164.139 113.422 164.529 113.072 164.529 112.652C164.529 112.072 164.009 112.072 163.819 112.072H163.469C163.379 112.072 163.279 112.072 163.189 112.072C163.009 112.052 162.799 112.042 162.589 112.032C162.049 112.002 161.439 111.982 161.079 111.742L160.869 111.602C160.369 111.262 159.899 111.102 159.359 111.712C159.169 111.922 158.769 112.562 158.149 113.522C156.809 115.612 154.569 119.122 152.169 122.012C151.609 122.682 150.959 123.502 150.229 124.412C146.369 129.242 140.519 136.542 135.259 138.942C133.159 139.902 131.819 139.972 131.439 139.122C130.929 138.012 131.979 135.732 132.689 134.922C134.249 133.152 143.199 122.512 144.309 120.632C145.419 118.762 146.329 114.892 144.059 112.502C143.469 111.882 142.649 111.562 141.649 111.562C139.719 111.562 137.179 112.802 135.339 114.662C134.189 115.802 130.339 120.162 118.509 134.432L118.069 134.962C116.489 136.872 113.069 139.902 110.629 139.902C110.239 139.902 109.879 139.822 109.569 139.662C109.099 139.432 108.829 139.102 108.719 138.672C108.389 137.302 109.939 135.202 110.599 134.302L110.799 134.032C110.969 133.792 111.549 133.042 112.349 132.002C114.859 128.752 119.539 122.712 120.139 121.242C120.799 119.622 121.749 116.582 120.669 114.402C120.109 113.282 119.089 112.522 117.639 112.142C115.709 111.642 113.689 111.642 113.559 111.642C113.539 111.642 112.929 111.662 112.859 111.532C112.839 111.492 112.789 111.322 113.089 110.852C113.999 109.442 114.649 107.072 113.519 106.282C112.479 105.552 109.389 108.022 109.239 109.912C109.119 111.352 109.419 111.852 109.969 112.182C110.309 112.382 110.689 112.602 110.049 113.782C109.319 115.112 97.7691 131.092 93.6491 135.102C89.3791 139.282 86.9691 140.632 85.3891 139.742C84.9491 139.492 84.6791 139.152 84.5791 138.712C84.3191 137.622 85.1191 136.212 85.6191 135.472C86.4391 134.252 100.489 114.952 101.459 113.902C102.079 113.222 102.349 112.842 102.209 112.522C102.089 112.242 101.709 112.202 101.369 112.202H101.069C99.7991 112.282 98.6691 112.282 98.2391 112.282H97.9091C97.5791 112.272 97.2891 112.382 96.8391 112.942C96.7391 113.072 96.3491 113.592 95.7591 114.372C93.1991 117.752 86.3991 126.752 84.1991 129.352L83.6191 130.042C82.7591 131.072 81.4591 132.642 79.7891 134.332C79.2791 134.852 78.7391 135.382 78.1591 135.912C78.0491 136.012 77.9391 136.112 77.8291 136.202C77.2091 136.762 76.5691 137.312 75.8891 137.852C72.1691 140.782 69.7891 141.562 67.9191 140.382C67.2891 139.992 66.9091 139.392 66.7691 138.582C66.3991 136.372 67.8991 132.952 70.8891 129.212C73.2591 126.242 78.7591 118.722 78.5491 113.002C78.4291 109.562 76.4391 106.642 75.8291 105.822C77.0691 105.172 82.5891 102.252 85.4191 100.022C87.1091 98.6917 88.8791 97.3317 90.6391 95.9817C95.0291 92.6117 99.5691 89.1217 102.789 86.1217C106.929 82.2517 117.949 73.5517 123.709 72.8617C128.579 72.2817 131.309 73.1217 132.639 75.6217C133.309 76.8817 134.389 77.6917 135.389 77.6917C135.819 77.6917 136.179 77.5417 136.439 77.2517C136.699 76.9617 136.799 76.5517 136.719 76.0717C136.509 74.8417 135.199 73.3417 133.539 72.4317C132.209 71.7017 130.099 71.3017 127.599 71.3017C124.829 71.3017 121.899 71.8117 119.539 72.7017C115.299 74.3217 107.839 79.5217 100.979 85.6417C93.9591 91.9117 83.6491 100.712 74.9991 105.012C74.7791 104.622 74.2591 103.802 73.3691 103.332C73.3091 103.112 73.9091 102.192 74.1991 101.742L75.2091 100.122C76.9391 97.3017 80.5391 91.4517 84.9691 85.5117C91.1791 77.1917 95.9791 73.1617 97.9791 72.8617C98.6691 72.7417 98.6691 72.1517 98.6691 71.9017C98.6691 71.4017 98.3691 71.2117 97.4991 71.5417C96.9191 71.7517 93.2291 73.1917 90.7891 74.4317C89.6691 75.0017 88.0891 75.9417 86.4191 76.9517C84.4791 78.1117 82.2791 79.4317 80.4891 80.3417C78.8391 81.1717 73.0991 83.9117 68.6391 84.0617H68.4491C67.4091 84.0617 66.6491 83.7517 66.1891 83.1417C65.2691 81.9217 65.5991 79.7617 66.0391 78.1717C66.1291 77.8317 66.2791 77.4417 66.4391 76.9917C67.1591 75.0517 68.2491 72.1317 66.8891 68.7317C65.8891 66.2517 61.8091 64.7617 55.9691 64.7617C53.2491 64.7617 50.3591 65.0917 47.8391 65.7017C40.6991 67.4117 26.6791 74.1017 24.6891 87.1317C24.1291 90.7617 24.7891 93.7017 26.6591 95.8717C29.7991 99.5317 35.5391 100.082 38.6891 100.082C39.6391 100.082 40.5991 100.032 41.4591 99.9317C46.9791 99.3217 52.8391 95.8117 54.6391 93.0617C54.8291 92.7717 55.0291 92.2317 54.8691 91.9217L54.6691 91.7217H54.5291C54.4091 91.7217 54.2691 91.7717 54.1091 91.8817C53.9991 91.9617 53.8691 92.1017 53.6591 92.3517C52.5391 93.6417 49.5691 97.0817 42.4691 98.4717L37.9491 98.9317C32.2791 98.9317 28.0191 96.5817 27.0891 92.9517C25.3891 86.2817 27.8591 82.2317 31.5391 77.2417C35.8391 71.4317 44.0691 67.8517 48.2491 66.9617C50.3491 66.5217 53.4891 65.9917 56.5191 65.9917C58.6891 65.9917 60.4291 66.2617 61.6991 66.8117C64.4591 67.9917 62.5791 72.4017 61.5691 74.7717L61.3591 75.2817C60.3291 77.7717 60.2991 81.3917 62.7091 83.4717C63.5991 84.2617 65.7591 85.6417 69.4291 85.2517C73.2391 84.8517 78.4191 82.7217 81.1591 81.4917C82.9291 80.6917 85.2291 79.2517 87.4591 77.8617C89.4291 76.6317 91.2891 75.4617 92.4691 74.9517C92.7391 74.8317 92.9891 74.7617 93.1191 74.6617C93.1191 74.6617 93.0691 74.8817 92.2991 75.4817C90.7691 76.6617 79.0891 89.6417 76.3991 92.9417C74.0391 95.8517 70.4591 100.462 69.7591 101.362C69.0191 100.982 66.1191 99.6317 62.9791 99.6317H62.5691C59.7291 99.7517 57.4991 101.112 57.4991 102.752C57.4991 105.312 59.7391 106.982 64.7491 108.162C64.7491 108.162 42.3491 146.932 14.9691 146.932C-0.560941 146.932 -0.350942 131.042 8.52906 130.592C6.75906 130.992 5.91906 134.132 9.28906 134.132C12.4791 134.132 13.3591 129.312 8.89906 129.312C-1.60094 129.312 -6.60094 148.242 16.2891 148.242C47.9391 148.242 69.9491 108.502 69.9491 108.502C70.3491 107.842 70.6491 107.632 71.2791 107.532C72.2591 107.382 73.7691 106.952 74.7591 106.432C75.1991 106.862 76.7091 108.482 76.4091 110.502C75.8191 114.512 73.1991 117.802 70.6691 120.992C68.9491 123.162 67.3191 125.202 66.3191 127.432C64.4891 131.512 64.1491 136.242 65.4691 139.222C66.1191 140.692 67.1291 141.662 68.4491 142.082C68.7691 142.182 69.1291 142.242 69.4991 142.242C73.1891 142.242 78.8891 137.312 80.8291 135.352C80.9591 135.212 81.3691 134.782 81.5891 134.782C81.6891 134.782 81.7891 135.042 81.7891 135.592C81.7891 137.482 83.0391 140.602 84.9891 141.192C87.4191 141.902 91.2691 139.722 95.4891 135.182C99.8591 130.482 108.249 119.482 111.459 113.822C111.879 113.072 112.209 113.002 112.529 113.002H112.799C113.119 112.972 113.679 112.942 114.329 112.942C116.869 112.942 118.399 113.392 118.629 114.202C119.169 116.052 116.039 119.832 113.019 123.472C110.689 126.292 108.269 129.202 107.399 131.392C106.259 134.272 106.339 137.272 107.609 139.432C108.239 140.502 109.089 141.182 109.939 141.292C112.589 141.652 116.239 139.112 121.239 133.002L122.289 131.722C127.699 125.122 132.809 118.892 136.079 115.722C138.199 113.662 140.179 112.932 141.399 112.932C141.879 112.942 142.469 113.152 142.729 113.572C142.929 113.912 142.889 114.352 142.619 114.892C141.949 116.192 140.429 118.212 138.669 120.552L137.589 121.992C137.029 122.742 136.379 123.552 135.699 124.402C131.729 129.362 126.779 135.532 130.849 140.152C132.739 142.282 136.959 140.342 144.049 133.972C144.329 133.722 144.619 133.462 144.809 133.322C144.769 133.582 144.659 134.012 144.599 134.252C143.939 136.822 144.839 139.322 146.899 140.622C147.319 140.892 147.909 141.192 148.779 141.192C150.239 141.192 152.129 140.322 154.559 138.522C159.029 135.232 167.829 126.002 169.989 122.692C170.509 121.902 170.849 121.522 171.089 121.522C171.169 121.522 171.249 121.552 171.359 121.592C171.479 121.642 171.639 121.692 171.829 121.712C172.229 121.752 173.139 121.812 174.089 121.812C175.039 121.812 175.789 121.752 176.309 121.632C176.559 121.572 176.919 121.502 177.249 121.472C177.249 121.502 177.229 121.692 176.639 122.402C174.869 124.552 168.669 134.362 173.089 139.692C173.789 140.542 174.799 140.972 176.059 140.972C180.329 140.972 186.339 136.132 187.309 135.092C187.629 134.752 188.219 134.112 188.329 134.062C188.349 134.102 188.429 134.282 188.329 135.192C188.119 137.112 188.939 139.532 190.689 140.252C191.099 140.422 191.739 140.652 192.539 140.652C194.739 140.652 197.249 138.992 200.199 135.592C205.549 129.402 215.029 118.392 216.559 116.422C218.489 113.932 220.769 112.712 222.479 113.332C222.839 113.462 223.059 113.672 223.149 113.972C223.549 115.252 221.639 117.962 220.369 119.752C219.739 120.652 217.889 123.252 215.749 126.252C211.919 131.642 207.149 138.352 206.779 138.902C206.559 139.252 206.059 140.102 206.329 140.612C206.389 140.722 206.549 140.922 206.909 140.922C207.559 140.922 210.989 140.512 211.139 140.492H211.269L211.329 140.362C211.329 140.352 211.859 139.312 214.289 136.072L215.909 133.902C218.639 130.222 222.379 125.182 225.099 122.192C227.489 119.562 233.359 113.442 236.359 113.442C236.489 113.442 236.619 113.452 236.739 113.482C237.059 113.552 237.259 113.702 237.339 113.932C237.839 115.232 235.179 118.922 232.829 122.172C232.139 123.132 231.449 124.092 230.829 124.992C230.499 125.482 230.149 125.972 229.809 126.472C227.809 129.322 225.749 132.272 225.599 135.122C225.509 136.932 226.189 138.502 227.669 139.922C228.599 140.812 230.019 140.872 231.009 140.792C232.779 140.662 234.339 139.812 235.489 139.082C239.699 136.432 242.789 133.272 243.889 131.442C244.139 131.022 244.209 130.752 244.129 130.562M68.4691 103.202C68.3691 103.362 67.9391 103.942 67.4591 104.582C66.8791 105.362 66.2291 106.232 65.9991 106.582C65.9291 106.692 65.7691 106.782 65.3191 106.812C64.6991 106.792 63.7591 106.552 61.9891 105.982C59.9791 105.342 58.4591 103.752 58.7291 102.592C58.8791 101.922 59.8491 101.282 61.1891 100.972C61.6891 100.852 62.2291 100.792 62.8191 100.792C65.6091 100.792 68.3991 102.152 68.4291 102.172C68.5991 102.252 68.6991 102.342 68.7291 102.452C68.7891 102.662 68.6091 102.962 68.4691 103.202ZM73.8991 105.342C73.8091 105.612 72.7891 105.942 72.2891 106.112C71.9891 106.212 71.6591 106.322 71.5691 106.422C71.5691 106.382 71.6091 106.222 72.0591 105.612C72.2891 105.282 72.7991 104.532 72.7891 104.512C73.1791 104.242 73.5191 104.752 73.7991 105.162L73.8991 105.342ZM111.749 110.832C111.569 111.112 111.419 111.212 111.219 111.132C111.069 110.942 110.959 110.462 111.069 109.982C111.249 109.172 112.469 107.552 112.829 107.532C113.089 107.792 112.339 109.962 111.759 110.832H111.749ZM171.019 118.952C170.669 119.492 170.439 119.552 170.349 119.552C170.259 119.552 170.189 119.502 170.109 119.402C169.619 118.782 169.229 116.752 169.739 114.992C170.429 112.572 171.919 111.592 172.809 111.002L173.039 110.852C173.279 110.692 173.519 110.602 173.709 110.602C173.879 110.602 173.949 110.672 173.999 110.732C174.109 110.872 174.249 111.272 173.969 112.322C173.419 114.442 171.629 118.012 171.019 118.952ZM186.839 133.742C183.099 137.292 179.039 139.592 176.499 139.592C175.659 139.592 174.979 139.342 174.499 138.862C172.729 137.072 176.729 130.222 181.069 124.412C183.259 121.472 189.069 113.662 193.909 113.662C194.399 113.662 194.869 113.742 195.309 113.902C196.479 114.322 197.259 115.052 197.629 116.072C198.179 117.592 197.689 119.312 197.099 120.322C197.049 120.402 192.139 128.692 186.829 133.742H186.839Z" fill="white"/>
<path d="M104.05 100.161C103.24 101.291 102.66 103.001 103.11 104.091C103.33 104.641 103.79 104.981 104.45 105.091C104.57 105.111 104.69 105.121 104.81 105.121C106.47 105.121 108.43 103.381 109.21 102.131C110.27 100.411 110.34 99.1509 109.42 98.3809C109.09 98.1009 108.6 97.9609 108.02 97.9609C106.91 97.9609 105.2 98.5309 104.06 100.161" fill="white"/>
<path d="M127.981 2.8307C128.041 3.1507 128.091 3.3107 128.091 3.7507C128.091 4.1907 128.251 3.7707 128.251 3.3507C128.251 2.9307 127.901 2.4107 127.981 2.8307ZM128.401 2.9307C128.441 3.8207 128.571 3.1807 128.531 2.7607C128.491 2.3407 128.381 2.6607 128.401 2.9307ZM129.711 7.4207C129.711 7.4207 129.901 7.3807 129.791 7.0507C129.681 6.7207 129.661 6.6607 129.661 6.6607C129.661 6.6607 129.511 5.9307 129.511 6.2907C129.511 6.6207 129.531 6.9107 129.631 7.1607L129.731 7.4107L129.711 7.4207ZM128.211 0.630697C128.131 0.610697 128.061 0.600697 128.001 0.600697C127.841 0.600697 127.991 0.610697 128.211 0.630697ZM133.621 11.5307C133.491 11.5607 133.271 11.4207 132.661 11.4207C132.051 11.4207 131.131 11.2807 130.781 11.2007C129.671 10.9507 130.671 11.4307 130.991 11.5507C131.311 11.6707 132.051 11.6207 132.571 11.6707C133.091 11.7207 133.761 11.4907 133.631 11.5207L133.621 11.5307ZM129.791 5.7207C129.851 6.1207 129.961 5.6607 129.891 5.3907C129.811 5.1207 129.701 4.9107 129.701 4.5407C129.701 4.1707 129.641 3.2307 129.621 3.8707C129.601 4.3307 129.541 4.5407 129.661 5.0107C129.771 5.4707 129.741 5.3207 129.791 5.7207ZM129.021 3.6607C128.921 4.1207 128.981 4.0807 128.981 4.4707C128.981 4.8607 128.961 4.8607 128.961 4.8607C128.961 4.8607 128.981 4.9207 129.081 5.0707C129.181 5.2207 129.291 5.2007 129.201 4.8007C129.101 4.4007 129.261 4.0907 129.281 3.8207C129.371 2.5107 129.121 3.2007 129.031 3.6707L129.021 3.6607ZM140.941 18.8907C140.941 18.8907 140.971 18.8207 140.981 18.7907C141.121 18.4907 141.191 18.4407 141.451 18.5007C141.751 18.5607 142.041 18.6507 142.341 18.7107C142.411 18.7307 142.501 18.7307 142.571 18.7107C142.611 18.7007 142.691 18.6207 142.681 18.5807C142.681 18.5107 142.631 18.4107 142.581 18.3807C142.501 18.3407 142.401 18.3507 142.321 18.3407C142.451 18.2707 142.601 18.2707 142.721 18.2307C142.801 18.2007 142.911 18.0907 142.841 17.9807C142.781 17.8807 142.811 17.6407 142.621 17.6907C142.321 17.7607 142.031 17.8407 141.731 17.9107C141.651 17.9307 141.561 17.9107 141.461 17.9007C141.531 17.7507 141.581 17.6407 141.641 17.5307C141.721 17.3907 141.811 17.2707 141.871 17.1207C141.901 17.0407 141.911 16.8807 141.871 16.8307C141.781 16.7307 141.671 16.7907 141.591 16.9107C141.571 16.9407 141.561 16.9707 141.541 17.0007C141.451 17.1907 141.351 17.3807 141.261 17.5607C141.181 17.7207 141.121 17.9507 141.011 18.0007C140.851 18.0707 140.641 18.0307 140.461 18.0007C140.181 17.9507 139.891 17.8707 139.611 17.8107C139.481 17.7807 139.351 17.7307 139.211 17.7107C139.091 17.6907 138.971 17.6907 138.851 17.6807C139.241 17.5207 139.621 17.4407 140.011 17.3307C140.351 17.2407 140.681 17.1207 141.021 17.0407C141.141 17.0107 141.171 16.9507 141.161 16.8207C141.141 16.6507 141.031 16.6907 140.951 16.6907C140.891 16.6907 140.841 16.7407 140.781 16.7507C140.341 16.8407 139.931 17.0307 139.481 17.0207L139.451 17.1007C139.451 17.1007 139.431 17.0707 139.411 17.0607C139.431 17.0507 139.451 17.0407 139.481 17.0207C139.501 16.9407 139.521 16.8407 139.561 16.7707C139.631 16.6507 139.731 16.5607 139.811 16.4407C139.831 16.4007 139.831 16.3407 139.841 16.2907C139.791 16.2907 139.711 16.2407 139.681 16.2707C139.461 16.4807 139.251 16.6907 139.041 16.9107C138.751 17.2307 138.111 17.4807 137.651 17.4007C137.731 17.3307 137.791 17.2907 137.831 17.2407C137.931 17.1207 138.031 17.0007 138.121 16.8707C138.141 16.8407 138.141 16.7607 138.121 16.7307C138.101 16.6907 138.031 16.6707 138.001 16.6807C137.931 16.7107 137.861 16.7507 137.801 16.8107C137.641 16.9607 137.501 17.1307 137.331 17.2607C137.251 17.3307 137.121 17.3707 137.031 17.3507C136.601 17.2207 136.171 17.1207 135.681 17.1307C135.781 16.8407 135.871 16.6107 136.001 16.2707C135.851 16.3607 135.751 16.3907 135.711 16.4507C135.641 16.5607 135.581 16.7007 135.541 16.8407C135.501 16.9507 135.471 17.0407 135.351 17.0207C135.231 17.0007 135.251 16.9107 135.241 16.8207C135.241 16.6907 135.151 16.6407 135.091 16.7207C134.861 17.0107 134.651 16.9407 134.411 16.7407C134.481 16.6407 134.551 16.5607 134.611 16.4807C134.741 16.3107 134.631 16.2307 134.531 16.1507C134.421 16.3507 134.311 16.5507 134.191 16.7407C134.171 16.7707 134.101 16.7907 134.071 16.7807C133.791 16.6307 133.491 16.6807 133.201 16.6107C133.101 16.4907 132.941 16.4707 132.761 16.5007C132.571 16.4607 132.371 16.4307 132.181 16.3807C132.111 16.3607 132.031 16.3407 131.951 16.3307C132.091 16.0707 132.251 15.7407 132.351 15.6007C132.541 15.3507 133.251 14.4907 133.251 14.4907L133.301 14.3507C133.351 14.2107 133.451 14.3807 133.451 14.3807L133.501 14.1307C133.541 13.8807 133.681 13.9807 133.701 13.7807C133.721 13.5807 133.761 13.4407 133.821 13.4907C133.801 13.3207 133.941 13.5507 133.881 13.0607C133.991 13.0607 134.481 13.0107 134.681 12.9207C134.881 12.8307 135.231 12.7207 135.441 12.4407C135.611 12.3007 135.901 12.1207 135.901 12.1207C135.901 12.1207 136.011 12.1207 135.911 12.0007C135.991 11.8507 136.671 11.5807 137.021 11.4907C137.371 11.4007 137.811 11.4107 137.951 11.2407C138.041 11.1307 138.581 11.1507 138.911 11.0707C139.231 10.9907 139.731 10.9007 140.051 10.8507C140.371 10.8007 140.791 10.8807 141.131 10.8807C141.471 10.8807 142.331 11.0207 142.661 10.9907C142.781 11.0807 143.681 11.1107 144.191 11.1807C144.701 11.2407 145.151 11.1807 145.461 10.9807C145.311 10.9207 145.381 10.7507 144.891 10.6107C144.401 10.4707 143.181 10.2107 142.411 10.0507C143.001 10.0507 144.251 10.1007 144.541 9.9907C144.831 9.8807 144.481 9.6807 144.061 9.5707C143.641 9.4607 143.301 9.3507 142.811 9.2907C142.321 9.2307 140.601 9.0007 140.221 8.9307C139.841 8.8607 140.161 8.7907 140.371 8.7907C140.151 8.6507 139.121 8.5307 138.811 8.4507C138.501 8.3707 138.591 8.3407 138.691 8.3107C138.571 8.1107 137.551 7.8307 137.181 7.7407C136.811 7.6507 136.901 7.6207 137.061 7.5907C136.781 7.5907 136.551 7.4807 135.561 7.2207C135.361 7.0807 134.771 6.9607 134.091 6.7307C134.091 6.7307 134.121 6.6707 134.151 6.5607C133.841 6.5307 133.521 6.1107 132.951 5.9707C132.951 5.9707 133.151 5.9407 133.121 5.8607C132.701 5.8107 132.101 5.3407 131.701 4.8607C131.301 4.3807 131.071 2.3807 130.941 1.9707C130.821 1.5707 130.281 0.670697 129.691 0.440697C129.691 0.440697 129.641 0.360697 129.811 0.380697C128.981 -0.189303 127.561 -0.00930277 127.121 0.320697C126.891 0.380697 126.581 0.540697 126.331 1.0007C126.131 1.0907 125.671 1.2507 125.391 1.5107C125.361 1.5907 124.831 1.7307 124.591 1.8607C124.341 2.0007 124.021 2.2607 123.941 2.4907C123.991 2.4607 124.591 2.5507 124.731 2.5507C124.871 2.5507 125.531 2.4907 125.671 2.4707C125.811 2.4507 125.961 2.4207 126.271 2.5507C126.411 2.6607 126.661 2.7107 126.701 2.7507C126.751 2.8007 126.891 2.9207 126.961 3.0107C127.041 3.1007 127.021 3.1007 127.081 3.3607C127.141 3.6207 127.161 3.4507 127.231 3.6207C127.311 3.7907 127.321 3.8507 127.281 3.9907C127.231 4.1307 127.251 4.3307 127.221 4.6207C127.191 4.9107 127.171 5.9907 127.131 6.3907C127.181 6.4807 127.181 6.5307 127.151 6.7107C127.201 6.8807 127.211 7.1607 127.241 7.2707C127.271 7.3807 127.211 7.7207 127.201 7.8207C127.181 7.9307 127.321 8.2107 127.371 8.3107C127.421 8.4207 127.461 8.7307 127.461 8.8407C127.461 8.9507 127.581 9.0607 127.631 9.2707C127.671 9.4907 127.781 9.7307 127.781 9.6207C127.781 9.5107 127.921 9.7307 127.981 9.8407C128.041 9.9507 128.201 10.1607 128.261 10.3307C128.321 10.5007 128.581 10.5807 128.611 10.7207C128.641 10.8607 128.891 10.9407 128.961 11.0107C129.041 11.0907 129.331 11.3607 129.421 11.4107C129.511 11.4607 129.931 11.8407 129.991 11.8907C130.051 11.9407 130.081 12.1407 130.161 12.1107C130.241 12.0807 130.551 12.3907 130.591 12.4607C130.641 12.5407 130.761 12.6307 130.901 12.6807C131.041 12.7307 131.181 12.9307 131.251 12.9607C131.321 12.9907 131.401 13.1007 131.451 13.1307C131.501 13.1607 131.591 13.2407 131.701 13.3207C131.811 13.4007 131.811 13.5807 131.811 13.6907C131.811 13.8007 131.901 13.8407 131.931 14.0607C131.931 14.1207 131.931 14.2107 131.871 14.4107C131.781 14.5207 131.671 14.7207 131.621 14.9507C131.591 15.0107 131.511 15.1207 131.391 15.5507C131.251 15.6707 131.221 15.8007 131.101 16.1507C130.981 16.5007 130.961 16.2107 130.851 16.4707C130.761 16.5807 130.511 16.7807 130.361 16.8107C130.211 16.8407 130.081 16.8407 129.801 16.8707C129.731 16.8407 129.751 16.7907 129.531 16.8707C129.491 16.8207 129.451 16.7807 129.411 16.7407C129.371 16.7007 129.301 16.7007 129.251 16.6807C129.231 16.7507 129.201 16.8207 129.211 16.8807C129.211 16.9007 129.211 16.9207 129.221 16.9507C129.191 16.9807 129.161 17.0107 129.131 17.0607C129.091 17.0307 129.061 17.0107 129.021 17.0107C128.541 16.9907 128.081 16.8907 127.611 16.7707C127.431 16.7307 127.251 16.6907 127.071 16.6607C127.031 16.6607 126.951 16.7407 126.951 16.7707C126.951 16.8507 126.991 16.9607 127.041 16.9807C127.171 17.0307 127.311 17.0407 127.441 17.0707C127.861 17.1807 128.281 17.2907 128.721 17.4007C128.371 17.3707 128.131 17.3807 127.901 17.7407C127.801 17.6807 127.701 17.6007 127.591 17.5607C127.461 17.5107 127.371 17.6207 127.331 17.7407C127.311 17.7907 127.381 17.9007 127.421 17.9607C127.461 18.0107 127.521 18.0307 127.591 18.0707C127.541 18.1007 127.491 18.1007 127.451 18.1307C127.231 18.3207 127.061 18.2307 126.881 18.0107C126.551 17.6207 126.201 17.2507 126.131 16.6607C126.131 16.6407 126.111 16.6307 126.101 16.6107C126.081 16.4507 126.001 16.3807 125.871 16.4307C125.751 16.4807 125.761 16.6207 125.811 16.7107C125.921 16.9007 125.861 17.1007 125.881 17.3007C125.481 17.1907 125.111 17.0907 124.741 17.0007C124.721 17.0007 124.671 17.0607 124.661 17.1007C124.651 17.1507 124.651 17.2207 124.671 17.2607C124.691 17.3007 124.751 17.3107 124.791 17.3307C125.041 17.4407 125.301 17.6007 125.561 17.6507C125.961 17.7307 126.151 18.0907 126.411 18.3807C126.431 18.4107 126.431 18.5007 126.411 18.5207C126.381 18.5507 126.311 18.5807 126.291 18.5607C126.101 18.4407 125.901 18.4807 125.701 18.4507C125.431 18.4107 125.161 18.3307 124.901 18.2507C124.721 18.2007 124.671 18.2307 124.661 18.4407C124.661 18.5507 124.661 18.6607 124.661 18.7707C124.871 18.8007 125.051 18.8207 125.281 18.8507C125.281 18.8507 125.281 18.8507 125.281 18.8607H117.891V19.5107C120.411 20.7307 120.541 21.9407 120.541 24.2407V43.3407C120.541 47.1207 125.201 48.0407 127.401 48.3707C129.461 48.6907 133.181 49.3007 133.801 51.3907C133.861 51.5907 133.921 51.6007 133.971 51.4107C134.581 49.3007 138.311 48.6907 140.381 48.3707C142.581 48.0307 147.241 47.1107 147.241 43.3407V24.2407C147.241 21.9407 147.371 20.7207 149.891 19.5107V18.8607H140.881L140.941 18.8907ZM140.771 18.5507C140.691 18.6807 140.671 18.7107 140.651 18.7407C140.621 18.7907 140.591 18.8407 140.571 18.8907H139.301C139.791 18.7607 140.261 18.7607 140.771 18.5507ZM137.421 17.9807C137.761 17.8207 138.101 17.8507 138.441 17.9307C138.901 18.0507 139.371 18.1207 139.851 18.2207C139.471 18.3007 139.091 18.4207 138.711 18.4707C138.361 18.5107 138.021 18.5807 137.681 18.6807C137.591 18.7107 137.501 18.7007 137.411 18.6807C137.251 18.6407 137.091 18.5907 136.871 18.5207C137.001 18.2307 137.181 18.0807 137.431 17.9707L137.421 17.9807ZM135.851 17.4507C136.191 17.5707 136.571 17.5707 136.951 17.6707C136.721 17.7507 136.501 17.8407 136.271 17.9107C136.181 17.9407 136.131 17.8707 136.131 17.7507C136.131 17.5407 136.011 17.5607 135.901 17.5907C135.771 17.6207 135.651 17.6707 135.521 17.7107C135.581 17.4907 135.631 17.3707 135.851 17.4407V17.4507ZM136.571 18.2207C136.571 18.2207 136.531 18.2407 136.511 18.2607C136.471 18.4007 136.401 18.5007 136.281 18.4707C136.201 18.4607 136.121 18.3807 136.061 18.2607H136.511C136.511 18.2307 136.531 18.2107 136.541 18.1807C136.551 18.1907 136.561 18.2107 136.571 18.2207ZM135.551 18.7607C135.671 18.8007 135.781 18.8207 135.901 18.8607C135.901 18.8607 135.921 18.8807 135.921 18.8907H135.051C135.171 18.6807 135.271 18.6707 135.551 18.7607ZM134.951 17.4707C135.051 17.1507 135.191 17.3207 135.351 17.4007C135.261 17.8807 134.951 17.8607 134.591 17.9407C134.741 17.7507 134.891 17.6307 134.941 17.4707H134.951ZM134.271 17.1807C134.331 17.1807 134.401 17.1307 134.471 17.1507C134.551 17.1707 134.661 17.2207 134.691 17.3007C134.711 17.3607 134.641 17.4807 134.591 17.5707C134.511 17.7207 134.411 17.8707 134.271 18.0907V17.1807ZM134.271 18.5307C134.351 18.5607 134.421 18.5707 134.481 18.6107C134.591 18.6707 134.801 18.4707 134.811 18.7707C134.811 18.8207 134.811 18.8607 134.801 18.9007H134.271V18.5307ZM133.591 17.6107C133.591 17.9207 133.521 18.0107 133.301 17.9107C133.121 17.8207 132.941 17.8307 132.761 17.8107C132.661 17.8007 132.571 17.7407 132.471 17.7107C132.471 17.6907 132.491 17.6607 132.501 17.6407C132.851 17.5607 133.201 17.4807 133.581 17.3907V17.6207L133.591 17.6107ZM133.501 18.8807C133.501 18.8807 133.501 18.8807 133.501 18.8907H132.701C132.951 18.8207 133.211 18.7607 133.461 18.6907C133.481 18.7707 133.511 18.8307 133.501 18.8707V18.8807ZM132.781 16.8307C132.981 16.8707 133.191 16.9207 133.421 16.9807C133.341 17.0507 133.291 17.1207 133.241 17.1307C133.181 17.1307 133.111 17.1507 133.051 17.1607C132.991 17.0907 132.881 17.0307 132.711 17.0007C132.741 16.9907 132.791 16.9407 132.781 16.8407V16.8307ZM132.751 17.2207C132.651 17.2507 132.551 17.2807 132.461 17.3007C132.461 17.3007 132.461 17.2907 132.461 17.2807C132.561 17.2007 132.661 17.1907 132.761 17.2207H132.751ZM132.551 17.0207C132.461 17.1107 132.351 17.0707 132.331 17.1507C132.331 17.2907 132.211 17.3307 132.091 17.2607C131.971 17.1907 131.971 17.4207 131.841 17.2907C131.721 17.1607 131.741 17.2107 131.881 17.1807C131.961 17.1707 132.041 17.1307 132.161 17.0807C132.281 17.0307 132.391 16.9807 132.551 17.0207ZM132.221 16.7207C132.031 16.7907 132.091 16.6307 131.731 16.6907C131.751 16.6907 131.771 16.6607 131.791 16.6407C131.931 16.6607 132.071 16.6907 132.221 16.7207ZM130.861 11.9407C130.251 11.7107 129.701 11.2907 129.151 10.7507C128.591 10.2107 128.891 9.9507 128.761 9.1907C128.631 8.4407 128.321 8.6107 128.061 8.4807C127.801 8.3507 127.821 8.2207 127.651 6.9907C127.481 5.7607 127.701 4.6707 127.831 3.9207C127.961 3.1707 127.691 2.9507 127.411 2.6107C127.141 2.2707 126.841 2.3607 126.461 2.2707C126.081 2.1807 124.931 2.3707 124.481 2.3907C125.021 2.1407 126.351 2.1007 126.571 1.9907C126.221 1.9107 124.771 2.2107 124.301 2.3507C124.551 2.1607 125.071 1.8707 125.411 1.7607C125.401 1.7707 125.391 1.7807 125.391 1.7807C125.741 1.7907 126.101 1.9407 126.331 1.8107C126.111 1.7307 125.781 1.6607 125.671 1.6007C125.831 1.4207 126.111 1.2707 126.381 1.2107C126.701 1.1407 126.641 1.0107 126.691 0.770697C126.741 0.520697 127.221 0.380697 127.221 0.380697C127.221 0.380697 127.261 0.370697 127.441 0.350697C127.621 0.340697 127.931 0.310697 128.401 0.120697C128.871 -0.0693028 129.481 0.330697 129.071 0.290697C128.741 0.260697 129.141 0.490697 129.511 0.720697C129.871 0.890697 130.251 1.0107 130.381 1.5207C130.271 1.4207 130.121 1.2707 129.951 1.1307C130.111 1.4707 130.131 1.9907 130.261 2.4907C130.431 3.1507 130.271 3.4107 130.291 4.0307C130.301 4.6507 130.551 5.3907 130.641 5.7007C130.731 6.0107 130.951 5.8907 130.931 5.7307C130.931 5.6707 130.931 5.6307 130.961 5.5907C130.711 5.0007 130.471 4.1307 130.541 3.5407C130.631 2.7507 130.711 2.7007 130.541 2.2007C130.821 2.6107 130.791 4.6207 131.171 5.5607C131.191 5.5707 131.221 5.5907 131.241 5.6107C131.381 5.7407 131.471 5.6507 131.481 5.5207C131.311 5.1207 131.161 4.5007 131.181 4.0807C131.281 4.5807 131.431 4.9807 131.721 5.2807C131.731 5.2807 131.741 5.2807 131.751 5.2807C131.841 5.3107 132.271 5.6807 132.401 5.7507C132.531 5.8107 133.271 6.3707 133.441 6.5007C133.611 6.6307 134.401 7.0207 134.721 7.1007C135.041 7.1807 135.991 7.6507 136.811 7.7507C137.631 7.8507 138.561 8.3607 138.221 8.4007C137.881 8.4407 139.981 8.7607 139.761 8.8007C139.541 8.8407 139.901 8.9807 140.171 9.0507C140.441 9.1207 143.521 9.7007 143.451 9.7607C143.391 9.8307 142.441 9.8507 142.141 9.8907C141.841 9.9307 139.631 10.1407 139.161 10.1607C138.691 10.1907 136.531 10.3507 135.661 10.2407C135.911 10.0607 135.741 9.8607 135.651 9.9707C134.651 11.0607 132.711 10.3207 132.061 10.1107C133.241 11.2307 135.051 10.7507 135.461 10.4907C135.961 10.6307 137.091 10.4807 137.481 10.3707C137.871 10.2707 139.101 10.3607 139.791 10.2107C140.481 10.0707 140.841 10.2407 141.531 10.1507C142.221 10.0607 142.461 10.2507 142.801 10.2807C143.131 10.3107 144.031 10.7307 143.561 10.7207C143.091 10.7107 141.981 10.6007 141.461 10.5407C140.941 10.4807 140.601 10.4907 140.071 10.4607C139.541 10.4307 138.811 10.6207 137.981 10.5907C137.151 10.5607 135.741 10.8707 135.391 10.8907C135.041 10.9007 135.051 11.2707 134.601 11.3707C134.141 11.4707 133.891 12.3007 133.831 12.3407C133.781 12.3807 133.561 12.8007 133.361 13.2507C133.171 13.7007 133.111 13.9607 132.781 13.9907C132.441 14.0207 132.461 13.7407 132.391 13.2907C132.331 12.8407 132.261 12.7707 132.041 12.5407C131.821 12.3107 131.461 12.1607 130.851 11.9307L130.861 11.9407ZM132.041 15.2307C132.101 15.0907 132.371 14.6107 132.441 14.3507C132.441 14.3507 132.561 14.2807 132.601 14.4007C132.641 14.5107 132.461 14.6807 132.411 14.7907C132.361 14.8907 132.351 14.9007 132.251 15.1007C132.151 15.3007 131.991 15.5407 131.761 15.7807C131.811 15.6907 131.991 15.3707 132.041 15.2307ZM131.591 16.0307C131.731 15.8707 131.791 16.0507 131.791 16.1707C131.791 16.2307 131.751 16.2507 131.701 16.2707C131.611 16.2607 131.531 16.2507 131.451 16.2407C131.481 16.1807 131.521 16.1107 131.591 16.0307ZM131.181 16.6707C131.211 16.5807 131.241 16.5407 131.281 16.5107C131.301 16.5407 131.341 16.5707 131.401 16.5807C131.411 16.5807 131.421 16.5807 131.431 16.5807C131.401 16.6307 131.431 16.6307 131.471 16.7007C131.491 16.7407 131.461 16.7607 131.421 16.7807C131.381 16.7807 131.341 16.7907 131.301 16.8107C131.221 16.8407 131.151 16.8707 131.071 16.9007C131.111 16.8507 131.151 16.7707 131.181 16.6707ZM131.081 17.2807C131.081 17.2807 131.061 17.3607 131.041 17.3107C131.061 17.3107 131.071 17.2907 131.091 17.2807H131.081ZM131.221 17.9507C131.311 17.9407 131.421 18.0207 131.521 18.0407C132.011 18.1307 132.511 18.2107 133.001 18.2907C133.001 18.3107 133.001 18.3307 133.001 18.3607C132.421 18.4907 131.851 18.6307 131.271 18.7607C131.231 18.7607 131.191 18.7907 131.161 18.7707C131.081 18.7307 130.781 18.2807 130.701 18.1107C130.871 18.0607 131.051 17.9807 131.221 17.9607V17.9507ZM130.361 18.3807C130.471 18.5307 130.591 18.6707 130.721 18.8407C130.691 18.8607 130.661 18.8807 130.631 18.9007H129.741C129.541 18.7907 129.331 18.6407 129.111 18.5207C129.471 18.4307 129.761 18.3507 130.061 18.2807C130.171 18.2507 130.271 18.2707 130.351 18.3907L130.361 18.3807ZM130.201 17.2407C130.131 17.2607 130.071 17.2607 130.011 17.2607C130.071 17.2607 130.141 17.2507 130.201 17.2407ZM129.821 17.8407C129.881 17.7807 129.911 17.8407 129.941 17.9107C129.861 17.9307 129.781 17.9607 129.701 17.9807C129.721 17.9407 129.771 17.8907 129.821 17.8407ZM129.361 17.1407C129.361 17.1407 129.371 17.1707 129.381 17.1907C129.351 17.1807 129.331 17.1607 129.311 17.1507C129.321 17.1507 129.341 17.1507 129.361 17.1507V17.1407ZM129.551 17.8607C129.551 17.8607 129.611 17.8607 129.651 17.8507C129.621 17.9207 129.611 17.9707 129.631 18.0107C129.311 18.1007 129.001 18.1907 128.691 18.2807C128.961 18.1207 129.241 17.9607 129.551 17.8607ZM128.821 18.9007H127.991C128.121 18.6207 128.341 18.7607 128.521 18.7207C128.651 18.6907 128.741 18.7907 128.821 18.9007ZM128.421 17.6407C128.541 17.5607 128.531 17.6707 128.511 17.8107C128.511 17.8107 128.511 17.8307 128.511 17.8407C128.421 17.8707 128.341 17.8907 128.251 17.9207C128.181 17.9407 128.081 17.8407 128.001 17.8007C128.001 17.8007 127.991 17.8007 127.981 17.7907C128.081 17.7007 128.411 17.6507 128.411 17.6507L128.421 17.6407ZM127.641 18.5207C127.681 18.6107 127.721 18.7007 127.761 18.7907C127.731 18.8007 127.711 18.8107 127.651 18.8407C127.611 18.7707 127.571 18.7007 127.541 18.6207C127.541 18.6107 127.601 18.5507 127.641 18.5207ZM120.951 22.0307H122.891C122.891 22.0307 122.881 22.0307 122.871 22.0307C122.751 22.1007 122.601 22.2207 122.561 22.3307C122.581 22.3207 122.871 22.3607 122.941 22.3607C123.011 22.3607 123.321 22.3307 123.391 22.3207C123.461 22.3207 123.531 22.3007 123.681 22.3607C123.751 22.4107 123.861 22.4307 123.891 22.4607C123.911 22.4807 123.981 22.5407 124.011 22.5907C124.051 22.6307 124.041 22.6307 124.071 22.7607C124.101 22.8907 124.111 22.8007 124.141 22.8907C124.181 22.9707 124.181 23.0007 124.161 23.0707C124.141 23.1407 124.141 23.2307 124.131 23.3707C124.121 23.5107 124.111 24.0307 124.091 24.2207C124.091 24.2207 124.091 24.2207 124.091 24.2407H121.121C121.121 23.4107 121.101 22.6907 120.941 22.0407L120.951 22.0307ZM135.951 22.3707C136.021 22.3707 136.331 22.3407 136.401 22.3307C136.461 22.3307 136.541 22.3107 136.691 22.3707C136.761 22.4207 136.871 22.4407 136.901 22.4707C136.921 22.4907 136.991 22.5507 137.021 22.6007C137.061 22.6407 137.051 22.6407 137.081 22.7707C137.111 22.9007 137.121 22.8107 137.151 22.9007C137.191 22.9807 137.201 23.0107 137.171 23.0807C137.151 23.1507 137.161 23.2407 137.141 23.3807C137.131 23.5207 137.121 24.0407 137.101 24.2307C137.101 24.2307 137.101 24.2307 137.101 24.2507H127.301C127.181 24.1807 127.051 24.0707 126.851 24.0207C126.851 24.0207 126.951 24.0007 126.931 23.9707C126.731 23.9507 126.441 23.7207 126.251 23.4907C126.061 23.2607 125.951 22.3007 125.891 22.1107C125.891 22.0907 125.881 22.0707 125.871 22.0507H135.891C135.891 22.0507 135.881 22.0507 135.871 22.0507C135.751 22.1207 135.601 22.2407 135.561 22.3507C135.581 22.3407 135.871 22.3807 135.941 22.3807L135.951 22.3707ZM139.371 28.0507C139.331 28.1007 139.271 28.2007 139.251 28.3107C139.231 28.3407 139.201 28.3907 139.141 28.6007C139.071 28.6607 139.061 28.7207 139.001 28.8907C138.941 29.0607 138.931 28.9207 138.881 29.0507C138.841 29.1007 138.721 29.2007 138.651 29.2107C138.581 29.2307 138.521 29.2307 138.381 29.2407C138.351 29.2307 138.361 29.2007 138.231 29.2407C138.161 29.2407 138.081 29.2407 138.021 29.4007C138.041 29.3707 138.091 29.3307 138.171 29.3507V29.4107C138.171 29.4107 138.131 29.4107 138.071 29.4307C138.021 29.4307 137.961 29.4307 137.911 29.4707H136.401L133.981 27.7307L131.561 29.4707H126.911C126.921 29.4007 126.891 29.3107 126.721 29.2807C126.741 29.2807 126.781 29.2407 126.731 29.1407C126.791 29.0907 126.971 29.1307 127.021 29.2207C127.001 28.9607 126.751 29.0107 126.551 29.1107C126.361 29.2107 126.451 29.0907 126.241 29.1307C126.321 29.1007 126.481 28.7207 126.561 28.6007C126.651 28.4807 126.991 28.0707 126.991 28.0707L127.011 28.0007C127.031 27.9307 127.081 28.0207 127.081 28.0207L127.101 27.9007C127.121 27.7807 127.191 27.8307 127.201 27.7307C127.201 27.6307 127.231 27.5707 127.261 27.5907C127.261 27.5107 127.321 27.6207 127.291 27.3907C127.341 27.3907 127.581 27.3707 127.681 27.3207C127.711 27.3107 127.751 27.2907 127.801 27.2707H138.961C138.961 27.2707 139.041 27.3507 139.061 27.3607C139.101 27.3707 139.131 27.4307 139.151 27.4407C139.181 27.4507 139.221 27.4907 139.271 27.5307C139.321 27.5707 139.321 27.6607 139.321 27.7107C139.321 27.7607 139.361 27.7807 139.381 27.8907C139.381 27.9207 139.381 27.9607 139.351 28.0607L139.371 28.0507ZM139.411 28.4307C139.441 28.3607 139.571 28.1307 139.601 28.0107C139.601 28.0107 139.661 27.9807 139.681 28.0307C139.701 28.0807 139.611 28.1607 139.591 28.2107C139.571 28.2607 139.561 28.2607 139.511 28.3607C139.461 28.4607 139.381 28.5707 139.281 28.6907C139.301 28.6407 139.391 28.4907 139.411 28.4307ZM121.121 34.7107V32.5007H127.351L124.301 34.7107H121.131H121.121ZM123.721 35.1207L121.121 37.0007V35.1207H123.721ZM121.121 32.0807V29.8807H130.981L127.921 32.0807H121.111H121.121ZM126.591 29.4007C126.691 29.3307 126.791 29.3807 126.861 29.4607H126.601C126.601 29.4607 126.601 29.4207 126.601 29.4007H126.591ZM126.251 28.6807C126.251 28.6807 126.361 28.4807 126.391 28.4207C126.421 28.3507 126.551 28.1207 126.581 28.0007C126.581 28.0007 126.641 27.9707 126.661 28.0207C126.681 28.0707 126.591 28.1507 126.571 28.2007C126.551 28.2507 126.541 28.2507 126.501 28.3507C126.451 28.4507 126.371 28.5607 126.271 28.6807H126.251ZM128.291 26.8307C128.381 26.7607 128.651 26.6507 128.801 26.6107C128.971 26.5707 129.181 26.5707 129.241 26.4907C129.281 26.4407 129.541 26.4507 129.701 26.4107C129.861 26.3707 130.091 26.3307 130.251 26.3107C130.411 26.2907 130.601 26.3207 130.771 26.3207C130.941 26.3207 131.351 26.3907 131.501 26.3707C131.561 26.4207 131.991 26.4307 132.231 26.4607C132.471 26.4907 132.691 26.4607 132.841 26.3607C132.771 26.3307 132.801 26.2507 132.571 26.1807C132.331 26.1107 131.751 25.9907 131.381 25.9107C131.661 25.9107 132.261 25.9307 132.401 25.8807C132.541 25.8307 132.371 25.7307 132.171 25.6807C131.971 25.6307 131.811 25.5807 131.571 25.5507C131.331 25.5207 130.511 25.4107 130.331 25.3807C130.151 25.3507 130.301 25.3107 130.401 25.3107C130.301 25.2407 129.801 25.1807 129.651 25.1507C129.501 25.1107 129.551 25.1007 129.591 25.0807C129.531 24.9807 129.041 24.8507 128.871 24.8107C128.691 24.7707 128.741 24.7507 128.811 24.7407C128.701 24.7407 128.601 24.7007 128.281 24.6107H137.141C137.141 24.6707 137.121 24.8107 137.121 24.8607C137.121 24.9107 137.181 25.0407 137.201 25.1007C137.221 25.1507 137.251 25.3007 137.251 25.3507C137.251 25.4007 137.311 25.4507 137.331 25.5607C137.351 25.6607 137.401 25.7807 137.401 25.7307C137.401 25.6807 137.471 25.7807 137.501 25.8307C137.531 25.8807 137.601 25.9807 137.631 26.0707C137.661 26.1507 137.781 26.1907 137.801 26.2507C137.811 26.3207 137.931 26.3507 137.971 26.3907C138.011 26.4307 138.151 26.5607 138.191 26.5807C138.231 26.6007 138.431 26.7907 138.461 26.8107H128.291V26.8307ZM125.941 27.2507C125.941 27.2507 126.021 27.3307 126.041 27.3407C126.081 27.3507 126.111 27.4107 126.141 27.4207C126.161 27.4307 126.211 27.4707 126.261 27.5107C126.311 27.5507 126.311 27.6407 126.311 27.6907C126.311 27.7407 126.361 27.7607 126.371 27.8707C126.371 27.9007 126.371 27.9407 126.341 28.0407C126.301 28.0907 126.241 28.1907 126.221 28.3007C126.211 28.3307 126.171 28.3807 126.111 28.5907C126.041 28.6507 126.031 28.7107 125.971 28.8807C125.911 29.0507 125.901 28.9107 125.851 29.0407C125.811 29.0907 125.691 29.1907 125.611 29.2007C125.541 29.2207 125.481 29.2207 125.341 29.2307C125.301 29.2207 125.321 29.1907 125.191 29.2307C125.121 29.2307 125.041 29.2307 124.981 29.3907C125.001 29.3607 125.051 29.3207 125.131 29.3407V29.4007C125.131 29.4007 125.091 29.4007 125.031 29.4207C124.981 29.4207 124.921 29.4207 124.861 29.4607H121.091V27.2607H125.921L125.941 27.2507ZM121.111 26.8307V24.6307H124.121C124.131 24.6907 124.101 24.8307 124.101 24.8807C124.101 24.9307 124.161 25.0607 124.181 25.1207C124.201 25.1707 124.221 25.3207 124.221 25.3707C124.221 25.4207 124.281 25.4707 124.301 25.5807C124.321 25.6807 124.371 25.8007 124.371 25.7507C124.371 25.7007 124.441 25.8007 124.461 25.8507C124.491 25.9007 124.561 26.0007 124.591 26.0907C124.621 26.1707 124.741 26.2107 124.761 26.2707C124.781 26.3407 124.891 26.3707 124.931 26.4107C124.971 26.4507 125.111 26.5807 125.151 26.6007C125.191 26.6207 125.391 26.8107 125.421 26.8307H121.091H121.111ZM136.831 35.1107L139.891 37.3107H133.251C133.191 37.2607 133.131 37.2207 133.071 37.1907C133.071 37.1907 133.051 37.1507 133.131 37.1607C132.731 36.8907 132.051 36.9707 131.851 37.1307C131.771 37.1507 131.671 37.2007 131.571 37.3107H128.051L131.111 35.1107H136.841H136.831ZM131.671 34.7007L133.961 33.0507L136.251 34.7007H131.671ZM134.021 39.3107C133.831 39.0807 133.721 38.1207 133.661 37.9307C133.641 37.8807 133.611 37.8107 133.571 37.7407H140.461L143.511 39.9407H134.841C134.771 39.9007 134.701 39.8607 134.611 39.8407C134.611 39.8407 134.711 39.8207 134.691 39.7907C134.491 39.7707 134.201 39.5407 134.011 39.3107H134.021ZM134.421 43.8807C134.441 43.9307 134.351 44.0207 134.331 44.0607C134.311 44.1107 134.301 44.1107 134.251 44.2107C134.201 44.3107 134.121 44.4207 134.021 44.5407C134.041 44.4907 134.131 44.3507 134.161 44.2807C134.191 44.2107 134.321 43.9807 134.351 43.8607C134.351 43.8607 134.411 43.8307 134.431 43.8807H134.421ZM132.181 37.7307C132.101 37.8407 131.781 37.8407 131.671 37.7307H132.181ZM130.961 37.7307C130.891 37.7707 130.711 37.8207 130.611 37.8707C130.491 37.9407 130.341 38.0607 130.301 38.1707C130.321 38.1507 130.611 38.2007 130.681 38.2007C130.751 38.2007 131.061 38.1707 131.131 38.1607C131.201 38.1607 131.271 38.1407 131.421 38.2007C131.491 38.2507 131.611 38.2807 131.631 38.3007C131.651 38.3207 131.721 38.3807 131.761 38.4307C131.801 38.4707 131.791 38.4707 131.821 38.6007C131.851 38.7307 131.861 38.6507 131.891 38.7307C131.931 38.8107 131.931 38.8407 131.911 38.9107C131.891 38.9807 131.901 39.0707 131.881 39.2107C131.871 39.3307 131.861 39.7107 131.841 39.9407H124.401L127.461 37.7407H130.971L130.961 37.7307ZM131.861 40.3507C131.861 40.3507 131.871 40.4407 131.881 40.4707C131.891 40.5207 131.861 40.6807 131.861 40.7407C131.861 40.7907 131.921 40.9207 131.941 40.9707C131.961 41.0207 131.981 41.1707 131.981 41.2207C131.981 41.2707 132.041 41.3207 132.061 41.4307C132.081 41.5307 132.131 41.6507 132.131 41.6007C132.131 41.5507 132.201 41.6507 132.231 41.7007C132.261 41.7507 132.331 41.8607 132.361 41.9407C132.391 42.0207 132.511 42.0607 132.531 42.1207C132.541 42.1907 132.661 42.2207 132.701 42.2607C132.741 42.3007 132.881 42.4307 132.921 42.4507C132.941 42.4507 132.991 42.5007 133.041 42.5507H121.081V42.3107L123.801 40.3507H131.841H131.861ZM121.611 45.1707C121.271 44.6307 121.091 44.0307 121.091 43.3507V42.9707H133.501C133.501 42.9707 133.581 43.0407 133.631 43.0607C133.701 43.0807 133.761 43.1807 133.801 43.1907C133.841 43.2007 133.871 43.2607 133.901 43.2707C133.921 43.2807 133.971 43.3207 134.021 43.3607C134.071 43.4007 134.071 43.4907 134.071 43.5407C134.071 43.5907 134.111 43.6107 134.131 43.7207C134.131 43.7507 134.131 43.7907 134.101 43.8907C134.051 43.9407 134.001 44.0407 133.981 44.1507C133.971 44.1807 133.931 44.2307 133.871 44.4407C133.801 44.5007 133.791 44.5607 133.731 44.7307C133.671 44.9007 133.661 44.7607 133.611 44.8807C133.571 44.9307 133.451 45.0307 133.371 45.0407C133.301 45.0607 133.241 45.0607 133.101 45.0707C133.061 45.0507 133.081 45.0207 132.951 45.0707C132.891 45.0707 132.821 45.0707 132.771 45.1707H121.601H121.611ZM133.951 50.4707C133.041 49.1807 131.031 48.5607 129.301 48.2007H138.591C136.861 48.5507 134.851 49.1807 133.941 50.4707H133.951ZM141.001 47.7907H126.891C124.471 47.3507 122.821 46.6207 121.921 45.5807H132.991C132.991 45.5807 133.011 45.6107 133.021 45.6307C133.021 45.6107 133.021 45.6007 133.021 45.5807H133.161C133.171 45.5907 133.231 45.5807 133.291 45.5807H145.961C145.061 46.6107 143.411 47.3407 140.991 47.7907H141.001ZM146.801 43.3507C146.801 44.0307 146.621 44.6307 146.281 45.1707H134.611C134.611 45.1707 134.541 45.1207 134.471 45.1107C134.491 45.1107 134.521 45.0707 134.481 44.9807C134.541 44.9307 134.721 44.9707 134.771 45.0607C134.751 44.8007 134.501 44.8507 134.301 44.9507C134.111 45.0507 134.201 44.9407 133.991 44.9707C134.071 44.9407 134.231 44.5607 134.311 44.4407C134.401 44.3207 134.741 43.9107 134.741 43.9107L134.761 43.8407C134.781 43.7807 134.831 43.8607 134.831 43.8607L134.851 43.7407C134.871 43.6207 134.941 43.6607 134.941 43.5707C134.941 43.4707 134.971 43.4107 135.001 43.4307C135.001 43.3507 135.061 43.4607 135.031 43.2207C135.081 43.2207 135.321 43.2007 135.411 43.1507C135.491 43.1107 135.631 43.0607 135.731 42.9707H146.781V43.3507H146.801ZM146.801 42.5507H136.301C136.391 42.5107 136.481 42.4807 136.551 42.4707C136.721 42.4307 136.931 42.4307 136.991 42.3507C137.031 42.3007 137.291 42.3107 137.451 42.2707C137.601 42.2307 137.841 42.1907 138.001 42.1707C138.151 42.1507 138.351 42.1807 138.521 42.1807C138.691 42.1807 139.091 42.2507 139.251 42.2307C139.311 42.2707 139.741 42.2907 139.981 42.3207C140.231 42.3507 140.441 42.3207 140.591 42.2207C140.521 42.1907 140.551 42.1107 140.321 42.0407C140.081 41.9707 139.501 41.8507 139.131 41.7707C139.411 41.7707 140.011 41.7907 140.151 41.7407C140.291 41.6907 140.121 41.5907 139.921 41.5407C139.721 41.4907 139.561 41.4407 139.321 41.4107C139.081 41.3807 138.261 41.2707 138.081 41.2407C137.901 41.2107 138.051 41.1707 138.151 41.1707C138.051 41.1007 137.551 41.0407 137.401 41.0107C137.251 40.9707 137.301 40.9607 137.341 40.9407C137.281 40.8407 136.791 40.7107 136.621 40.6707C136.441 40.6307 136.491 40.6107 136.561 40.6007C136.431 40.6007 136.321 40.5507 135.841 40.4207C135.801 40.3907 135.731 40.3707 135.631 40.3407H144.071L146.801 42.3007V42.5407V42.5507ZM146.801 39.3607L146.741 41.7607L134.061 32.6107L133.941 32.5207L121.081 41.7907V37.4807L133.941 28.2107L146.801 37.4907V39.3507V39.3607ZM146.801 36.9807L144.201 35.1007H146.801V36.9807ZM146.801 34.6907H143.631L140.581 32.4807H146.811V34.6907H146.801ZM146.801 32.0707H139.991L136.931 29.8707H146.791V32.0707H146.801ZM139.571 29.3907C139.671 29.3207 139.771 29.3707 139.841 29.4507H139.581C139.581 29.4507 139.581 29.4107 139.581 29.3907H139.571ZM146.801 29.4507H139.891C139.901 29.3807 139.871 29.2907 139.701 29.2607C139.721 29.2607 139.751 29.2207 139.711 29.1207C139.771 29.0707 139.951 29.1107 140.001 29.2007C139.981 28.9407 139.731 28.9907 139.531 29.0907C139.341 29.1907 139.431 29.0707 139.221 29.1107C139.301 29.0807 139.451 28.7007 139.541 28.5807C139.631 28.4607 139.971 28.0507 139.971 28.0507L139.991 27.9807C140.011 27.9107 140.061 28.0007 140.061 28.0007L140.081 27.8807C140.101 27.7607 140.171 27.8107 140.181 27.7107C140.181 27.6107 140.211 27.5507 140.241 27.5707C140.241 27.4907 140.301 27.6007 140.271 27.3707C140.321 27.3707 140.561 27.3507 140.651 27.3007C140.681 27.2907 140.721 27.2707 140.771 27.2507H146.781V29.4507H146.801ZM146.801 26.8307H141.281C141.361 26.7607 141.631 26.6507 141.791 26.6107C141.961 26.5707 142.171 26.5707 142.231 26.4907C142.281 26.4407 142.531 26.4507 142.691 26.4107C142.841 26.3707 143.081 26.3307 143.241 26.3107C143.401 26.2907 143.591 26.3207 143.761 26.3207C143.931 26.3207 144.331 26.3907 144.491 26.3707C144.551 26.4207 144.981 26.4307 145.221 26.4607C145.461 26.4907 145.681 26.4607 145.821 26.3607C145.751 26.3307 145.781 26.2507 145.551 26.1807C145.311 26.1107 144.731 25.9907 144.361 25.9107C144.641 25.9107 145.241 25.9307 145.381 25.8807C145.521 25.8307 145.351 25.7307 145.151 25.6807C144.951 25.6307 144.791 25.5807 144.551 25.5507C144.311 25.5207 143.501 25.4107 143.311 25.3807C143.131 25.3507 143.281 25.3107 143.381 25.3107C143.281 25.2407 142.781 25.1807 142.631 25.1507C142.481 25.1107 142.531 25.1007 142.571 25.0807C142.511 24.9807 142.021 24.8507 141.851 24.8107C141.671 24.7707 141.721 24.7507 141.791 24.7407C141.681 24.7407 141.581 24.7007 141.261 24.6107H146.801V26.8107V26.8307ZM146.801 24.2107H140.281C140.161 24.1407 140.031 24.0307 139.831 23.9807C139.831 23.9807 139.931 23.9607 139.911 23.9307C139.711 23.9107 139.421 23.6807 139.231 23.4507C139.041 23.2207 138.931 22.2607 138.871 22.0707C138.871 22.0507 138.861 22.0307 138.851 22.0107H146.981C146.831 22.6607 146.801 23.3807 146.801 24.2107ZM147.101 21.5907H138.591C138.501 21.4807 138.391 21.3807 138.281 21.3407C138.281 21.3407 138.261 21.3007 138.341 21.3107C137.941 21.0407 137.261 21.1307 137.061 21.2807C136.951 21.3107 136.811 21.3807 136.691 21.5907H125.581C125.491 21.4807 125.381 21.3807 125.271 21.3407C125.271 21.3407 125.251 21.3007 125.331 21.3107C124.931 21.0407 124.251 21.1307 124.041 21.2807C123.931 21.3107 123.791 21.3807 123.671 21.5907H120.781C120.481 20.7507 119.891 20.0307 118.701 19.3607H149.181C147.991 20.0307 147.401 20.7507 147.101 21.5907ZM129.461 1.1007C129.321 1.0207 129.211 0.850697 128.981 0.750697C128.861 0.700697 128.481 0.660697 128.211 0.630697C128.441 0.690697 128.701 0.820697 128.841 0.870697C129.031 0.930697 129.591 1.1807 129.461 1.1007ZM127.221 1.1707C127.221 1.1707 127.031 1.2307 127.081 1.4007C127.141 1.5607 127.651 1.5607 127.621 1.3707C127.561 1.0607 127.221 1.1707 127.221 1.1707ZM134.911 9.3607C134.481 9.5007 133.331 9.7607 132.731 9.5907C132.541 9.6107 131.711 9.6107 130.551 8.7807C130.881 9.3107 131.401 9.6307 131.881 9.7607C132.361 9.8907 132.501 9.7807 132.961 9.7607C133.421 9.7407 133.941 9.9907 134.661 9.6807C135.371 9.3707 136.371 9.9507 137.181 9.8707C137.991 9.7907 138.451 9.7207 137.761 9.7007C137.071 9.6807 135.331 9.2207 134.911 9.3507V9.3607ZM132.191 10.6707C131.911 10.9807 131.521 10.6607 131.111 10.6307C130.711 10.6107 130.591 10.4007 130.321 10.1907C130.051 9.9807 129.741 9.9107 129.361 9.6107C129.091 9.3907 129.911 10.2307 130.311 10.4907C130.711 10.7507 131.931 11.3107 132.191 10.6707ZM129.791 8.8407C130.231 9.0107 129.981 8.7107 129.711 8.3407C129.441 7.9707 129.401 7.9307 129.211 7.4107C129.021 6.8907 129.041 7.0807 129.071 6.6007C129.111 6.1207 128.991 5.5607 128.941 6.0807C128.901 6.4807 128.651 6.9307 128.981 7.5107L129.311 8.0907C129.311 8.0907 129.351 8.6707 129.791 8.8407ZM130.351 7.2807L130.991 7.9107C131.381 8.2007 131.741 8.5807 132.031 8.6407C132.321 8.7007 132.361 8.4907 132.031 8.2507C131.701 8.0207 131.761 7.8607 131.761 7.7707C131.761 7.6807 131.821 7.5607 132.131 7.7707C132.441 7.9807 132.111 7.4207 132.401 7.6907C132.691 7.9607 132.461 7.9407 132.881 8.1507C133.301 8.3607 133.711 8.4607 133.511 8.3207C133.321 8.1807 132.951 8.0707 132.881 7.8407C132.801 7.6107 132.611 7.2407 133.001 7.5107C133.391 7.7807 133.441 7.6607 133.751 7.7207C134.061 7.7807 134.001 7.7007 133.691 7.4907C133.381 7.2807 132.781 6.8407 133.251 7.0307C133.711 7.2207 132.591 6.6007 132.421 6.4107C132.251 6.2207 131.881 6.2807 132.151 6.5807C132.421 6.8907 132.521 6.7707 132.791 7.0607C133.061 7.3507 132.811 7.3107 132.601 7.2307C132.391 7.1507 132.351 7.1107 132.351 7.1107C132.351 7.1107 132.101 6.9907 131.911 6.8607L131.721 6.7207C131.721 6.7207 131.411 6.7807 131.761 7.0107L132.111 7.2407C132.111 7.2407 132.281 7.5707 131.961 7.4307C131.631 7.3007 131.131 7.2807 131.061 7.0607L130.981 6.8507C130.981 6.8507 130.771 6.9507 131.041 7.2507C131.311 7.5607 131.371 7.7307 131.581 7.9607C131.641 8.0307 131.691 8.0807 131.731 8.1107C131.481 7.9407 130.911 7.5307 130.731 7.2607C130.501 6.9107 130.481 6.8507 130.481 6.8507C130.481 6.8507 130.081 6.4807 130.211 6.8107C130.341 7.1407 130.381 7.2107 130.381 7.2107L130.351 7.2807ZM131.161 8.8407C130.701 8.5307 130.451 8.1907 130.351 8.0307C130.251 7.8807 130.161 8.3607 130.391 8.5707C130.621 8.7807 130.971 9.0707 131.371 9.1707C131.771 9.2707 131.641 9.1707 131.161 8.8407ZM129.811 3.1607C129.811 3.5307 129.931 3.7207 129.931 3.3307C129.931 2.9107 129.951 2.3707 129.831 2.2107C129.711 2.0607 129.581 2.0007 129.681 2.3607C129.781 2.7307 129.811 2.7807 129.811 3.1507V3.1607ZM135.711 8.4207C136.331 8.5707 136.631 8.5607 137.341 8.6007C138.051 8.6407 139.601 9.0907 139.221 8.9307C138.831 8.7707 138.181 8.6207 137.571 8.4907C136.961 8.3707 135.071 7.9907 134.751 7.9307C133.951 7.8007 135.091 8.2707 135.721 8.4207H135.711Z" fill="#DEA46E"/>
<path d="M75.4098 189.17C74.1398 189.09 72.9698 189.09 71.7398 189.11C71.6198 189.11 71.5898 189.09 71.5498 189.01C71.5098 188.91 71.4498 188.51 71.5098 188.44C72.2798 188.34 72.6598 188.17 72.7798 187.35C72.9298 186.07 72.9698 184.38 73.0498 182.43L73.1998 178.26C73.2198 177.57 72.8698 177.44 71.6098 177.31C71.6298 177.21 71.7098 176.97 71.7798 176.81C71.8198 176.75 71.8598 176.7 71.9898 176.7C72.2798 176.7 73.4098 176.74 73.9898 176.74C74.4298 176.74 74.8698 176.72 75.1398 176.72C75.1798 177.12 75.3098 177.46 75.4098 177.67C76.2698 179.54 78.3698 183.2 79.6598 185.37C79.7198 185.48 79.8098 185.5 79.8898 185.35C81.1598 182.95 82.8098 179.75 83.7698 177.65C83.8498 177.48 83.9198 177.1 83.9598 176.74C85.4398 176.74 86.8798 176.68 87.4598 176.68C87.4998 176.78 87.4998 177.21 87.4798 177.35C86.3898 177.46 86.1498 177.58 86.1398 178.13C86.0998 178.89 86.0998 180.02 86.1598 182.49C86.1798 184.38 86.1598 186.23 86.1998 186.78C86.2998 188.08 86.2998 188.15 87.4898 188.36C87.5498 188.36 87.5898 188.68 87.5898 188.86C87.5898 188.97 87.5498 189.01 87.4698 189.01H85.6598C85.1398 189.01 83.7198 189.05 82.8898 189.14V188.7C82.9098 188.55 82.9298 188.47 83.0198 188.45C83.8098 188.24 83.8498 188.2 83.9398 187.54C83.9998 187.03 83.9798 186.02 84.1298 179.1C84.1298 178.91 83.9998 178.99 83.9598 179.1C83.7298 179.46 81.7898 183.6 80.9098 185.48C79.9698 187.44 79.6398 188.24 79.5498 188.42C79.3198 188.9 79.2598 189.05 79.0298 189.05C78.9498 189.05 78.8598 188.99 78.7798 188.84C78.6798 188.69 78.2198 187.75 77.7598 186.8C75.9898 183.06 74.6698 180.47 73.9598 178.99C73.9398 180.7 73.9198 183.34 73.9598 185.41C73.9798 186.78 73.9998 187.54 74.0598 187.89C74.1798 188.23 74.4098 188.37 75.0598 188.48C75.2898 188.52 75.3698 188.56 75.3898 188.65L75.4298 189.16L75.4098 189.17Z" fill="white"/>
<path d="M99.0301 176.398C99.2001 176.398 99.2201 176.458 99.3201 176.708C99.9001 178.438 100.3 179.468 100.97 181.248C101.6 182.968 102.99 186.208 103.28 186.848C103.76 187.838 104.03 188.298 105.14 188.528C105.16 188.488 105.04 189.098 104.91 189.138C103.05 189.118 102.68 189.098 102.05 189.098C101.42 189.098 100.69 189.158 100.49 189.158C100.41 189.158 100.37 189.138 100.36 189.098C100.32 188.988 100.17 188.598 100.21 188.568C101.06 188.338 101.17 188.228 101.11 187.728C101.07 187.288 100.4 185.578 100.25 185.248C100.13 184.958 99.9801 184.828 99.8701 184.828C98.9701 184.828 97.0301 184.828 96.0701 184.888C95.7601 184.908 95.6701 185.038 95.5301 185.368C95.3401 185.848 94.8401 187.068 94.8401 187.618C94.8401 188.098 95.0901 188.268 95.9901 188.478C96.1101 188.558 95.9301 189.048 95.8401 189.088C94.7301 189.068 93.6301 189.068 93.2301 189.068C92.9001 189.068 92.6001 189.088 92.5201 189.068C92.4201 189.068 92.4001 189.048 92.3901 188.988C92.3301 188.888 92.2201 188.488 92.2901 188.458C93.2301 188.208 93.4601 187.528 93.9001 186.608C94.3601 185.638 96.6301 180.438 97.6701 177.958C97.8401 177.498 98.0001 177.078 98.0901 176.838C98.1301 176.728 98.1901 176.648 98.2401 176.608C98.4301 176.508 98.7801 176.418 99.0301 176.418H99.0501L99.0301 176.398ZM96.6101 183.908C96.8001 183.908 97.1501 183.928 97.8001 183.928C98.5101 183.928 98.8901 183.928 99.3901 183.908C99.5601 183.908 99.6801 183.738 99.6601 183.658C98.9501 181.598 98.5501 180.518 98.1401 179.488C98.0801 179.378 97.9701 179.378 97.9301 179.468C97.2001 181.088 96.9501 181.718 96.1801 183.678C96.1401 183.778 96.3101 183.908 96.5801 183.908H96.6001H96.6101Z" fill="white"/>
<path d="M109.661 176.9C109.641 176.8 109.721 176.77 109.831 176.75C110.711 176.73 111.641 176.71 112.461 176.69C113.561 176.61 114.051 176.59 114.711 176.59C115.981 176.59 117.131 176.72 118.261 177.49C119.091 178.04 119.621 179.01 119.621 179.85C119.621 181.47 118.331 182.23 117.641 182.65C117.541 182.71 117.491 182.88 117.521 183.01C117.641 183.49 118.081 184.59 118.811 185.74C119.621 187.02 120.751 188.18 122.041 188.75C122.251 188.85 122.251 188.98 122.211 189.21C122.191 189.4 122.061 189.48 122.001 189.48C120.231 189.37 118.891 188.89 117.701 187.71C116.911 186.93 116.361 185.88 115.821 184.74C115.471 184.02 115.211 183.69 114.211 183.69C113.831 183.69 113.611 183.71 113.421 183.75C113.321 183.77 113.251 183.94 113.251 184.07C113.251 185.67 113.271 186.7 113.311 187.54C113.331 187.86 113.391 187.96 113.481 188.04C113.671 188.19 114.561 188.31 115.001 188.42C115.041 188.52 114.961 188.95 114.901 189.03C114.881 189.07 114.781 189.07 114.591 189.07C114.401 189.07 112.521 189.05 111.591 189.05C110.941 189.05 110.551 189.11 110.171 189.11C109.961 189.11 109.881 189.11 109.861 189.05C109.801 188.92 109.741 188.59 109.761 188.46C110.161 188.36 110.661 188.25 110.841 188.04C111.051 187.75 111.111 186.42 111.111 184.02V181.68C111.111 180.57 111.071 179.2 111.051 178.5C111.031 177.81 110.971 177.79 109.741 177.45L109.641 176.92L109.661 176.9ZM117.151 180.03C117.151 178.45 116.021 177.3 114.711 177.3C114.231 177.3 114.001 177.36 113.691 177.49C113.501 177.57 113.401 177.68 113.361 177.87C113.281 178.44 113.261 179.3 113.241 180.96C113.221 182.85 113.241 182.87 113.371 182.92C113.501 182.96 113.791 182.96 114.141 182.96C115.181 182.96 115.971 182.73 116.481 182.1C116.861 181.6 117.131 180.88 117.131 180.04V180.02L117.151 180.03Z" fill="white"/>
<path d="M126.09 182.798C126.09 180.838 126.84 179.388 127.95 178.358C128.85 177.538 129.79 177.098 131.12 176.758C132.25 176.448 133.37 176.418 134.06 176.418C134.75 176.418 135.96 176.548 136.61 176.728C136.74 176.768 136.82 176.808 136.86 176.728L137.05 176.458C137.07 176.378 137.11 176.358 137.22 176.378L137.62 176.458C137.7 176.478 137.74 176.498 137.74 176.608C137.78 177.768 137.95 178.988 138.05 179.388C138.09 179.638 138.09 179.808 138.05 179.828C138.01 179.868 137.97 179.888 137.72 179.888H137.57C137.45 179.888 137.4 179.848 137.3 179.678C136.57 178.268 135.19 177.158 133.25 177.158C132.23 177.158 131.35 177.468 130.54 178.228C129.64 179.068 128.66 180.558 128.66 182.878C128.66 184.158 129.03 185.798 130.29 187.018C131.6 188.258 133.13 188.558 133.94 188.558C134.4 188.558 135 188.368 135.34 188.118C135.71 187.848 135.88 187.048 135.88 185.638C135.88 183.938 135.84 183.618 135.15 183.468C134.96 183.428 134.19 183.318 134.02 183.258C133.9 183.218 133.77 183.158 133.73 183.108C133.67 183.008 133.65 182.918 133.63 182.728C133.63 182.668 133.67 182.598 133.8 182.598C135.11 182.598 136.18 182.678 137.12 182.678C138.06 182.678 138.68 182.618 139.02 182.598C139.08 182.708 139.04 183.188 139.02 183.398C138.81 183.438 138.46 183.478 138.25 183.508C138.19 183.718 138.13 185.128 138.12 188.198C138.12 188.638 138 188.768 137.81 188.938C137.66 189.088 137.37 189.108 137.29 189.108C136.87 189.108 136.58 189.108 135.77 189.168C135.1 189.228 134.5 189.278 133.75 189.278C131.27 189.278 129.29 188.648 127.95 187.368C126.86 186.358 126.07 184.818 126.07 182.818V182.798H126.09Z" fill="white"/>
<path d="M150.671 176.398C150.841 176.398 150.861 176.458 150.961 176.708C151.541 178.438 151.941 179.468 152.611 181.248C153.241 182.968 154.631 186.208 154.921 186.848C155.401 187.838 155.671 188.298 156.781 188.528C156.801 188.488 156.681 189.098 156.551 189.138C154.691 189.118 154.321 189.098 153.691 189.098C153.061 189.098 152.331 189.158 152.131 189.158C152.051 189.158 152.011 189.138 152.001 189.098C151.961 188.988 151.811 188.598 151.851 188.568C152.701 188.338 152.811 188.228 152.751 187.728C152.711 187.288 152.041 185.578 151.891 185.248C151.771 184.958 151.621 184.828 151.511 184.828C150.611 184.828 148.671 184.828 147.711 184.888C147.401 184.908 147.311 185.038 147.171 185.368C146.981 185.848 146.481 187.068 146.481 187.618C146.481 188.098 146.731 188.268 147.631 188.478C147.751 188.558 147.571 189.048 147.481 189.088C146.371 189.068 145.271 189.068 144.871 189.068C144.541 189.068 144.241 189.088 144.161 189.068C144.061 189.068 144.041 189.048 144.031 188.988C143.971 188.888 143.861 188.488 143.931 188.458C144.871 188.208 145.101 187.528 145.541 186.608C146.001 185.638 148.271 180.438 149.311 177.958C149.481 177.498 149.641 177.078 149.731 176.838C149.771 176.728 149.831 176.648 149.881 176.608C150.071 176.508 150.421 176.418 150.671 176.418H150.691L150.671 176.398ZM148.251 183.908C148.441 183.908 148.791 183.928 149.441 183.928C150.151 183.928 150.541 183.928 151.031 183.908C151.201 183.908 151.321 183.738 151.301 183.658C150.591 181.598 150.191 180.518 149.781 179.488C149.721 179.378 149.611 179.378 149.571 179.468C148.841 181.088 148.591 181.718 147.821 183.678C147.781 183.778 147.951 183.908 148.221 183.908H148.241H148.251Z" fill="white"/>
<path d="M173.44 177.308C173.23 177.388 173.02 177.418 172.81 177.458C172.64 177.498 172.54 177.588 172.46 177.918C172.36 178.298 172.29 179.518 172.17 182.858C172.11 184.958 171.88 186.138 171.11 187.218C170.13 188.568 168.5 189.388 166.79 189.388C164.68 189.388 163.41 188.628 162.85 188.068C161.76 187.018 161.51 185.858 161.49 184.388C161.47 183.288 161.47 182.238 161.53 180.638C161.61 178.178 161.59 177.928 161.43 177.698C161.26 177.488 160.99 177.408 160.33 177.278L160.35 176.878C160.37 176.688 160.45 176.668 160.7 176.668C161.12 176.668 162.35 176.748 162.76 176.728C163.68 176.708 164.57 176.648 165.51 176.648C165.61 176.648 165.64 176.648 165.64 176.708C165.64 176.818 165.66 177.188 165.58 177.298C164.58 177.468 164.04 177.508 163.93 178.058C163.87 178.358 163.81 178.938 163.8 179.828C163.78 180.898 163.72 182.778 163.72 184.178C163.72 185.578 164.09 186.578 164.99 187.288C165.62 187.818 166.62 188.068 167.66 188.068C169.1 188.068 169.85 187.478 170.25 186.948C171 185.958 171.23 184.548 171.23 182.778C171.23 180.818 171.23 179.008 171.11 178.148C171.03 177.478 170.78 177.428 169.25 177.428C169.19 177.428 169.1 177.318 169.12 177.158C169.2 177.058 169.31 176.928 169.39 176.818C169.43 176.758 169.54 176.738 169.7 176.738H171.43C172.14 176.738 173.16 176.698 173.58 176.698C173.68 176.698 173.68 176.718 173.62 176.908L173.45 177.308H173.44Z" fill="white"/>
<path d="M186.759 176.708C187.069 176.708 188.719 176.748 189.119 176.748C189.579 176.748 190.229 176.708 190.729 176.708C190.999 176.708 191.039 176.818 191.149 177.218C191.149 177.298 191.169 177.388 191.049 177.408C190.009 177.518 189.709 177.638 188.859 178.528C187.049 180.448 186.039 181.788 185.749 182.148C185.649 182.248 185.669 182.338 185.749 182.448C187.539 185.018 188.959 186.848 189.419 187.388C190.109 188.148 190.399 188.288 191.359 188.438V188.968C191.359 189.068 191.339 189.098 191.209 189.098C191.019 189.098 189.869 189.038 188.459 189.038C187.129 189.038 186.459 189.098 186.229 189.098C186.059 189.098 186.019 189.098 185.979 189.018C185.879 188.868 185.859 188.618 185.859 188.508C185.859 188.428 185.879 188.408 185.989 188.408C186.109 188.388 186.409 188.348 186.759 188.258C187.069 188.198 187.159 188.108 186.819 187.608C186.399 187.038 184.609 184.428 184.149 183.838C183.289 184.948 182.379 186.028 181.899 186.718C181.399 187.438 181.189 187.838 181.189 188.068C181.209 188.338 181.819 188.378 182.279 188.378C182.379 188.398 182.429 188.418 182.429 188.478C182.449 188.628 182.449 189.028 182.369 189.148C181.009 189.048 179.659 189.048 179.369 189.048C179.019 189.048 178.489 189.068 178.279 189.088C178.179 189.108 178.129 189.108 178.109 188.988C178.069 188.778 178.089 188.488 178.109 188.418C178.919 188.358 179.239 188.128 179.719 187.618C180.559 186.738 182.759 184.208 183.559 183.268C183.679 183.168 183.619 183.018 183.539 182.928C183.019 182.168 180.829 179.178 179.989 178.088C179.549 177.588 179.339 177.478 178.569 177.438C178.489 177.438 178.449 177.458 178.449 177.338C178.449 177.148 178.489 176.708 178.679 176.708C179.639 176.708 180.659 176.728 181.309 176.728C181.979 176.708 182.649 176.648 183.249 176.648C183.419 176.648 183.459 176.648 183.479 176.728L183.579 177.208C183.619 177.378 183.559 177.418 183.369 177.418H182.659C182.369 177.418 182.329 177.548 182.539 177.898C182.829 178.358 183.159 178.928 185.149 181.598C185.859 180.758 186.839 179.468 187.379 178.738C187.689 178.298 187.859 177.978 187.859 177.808C187.819 177.638 187.649 177.558 187.019 177.488C186.829 177.468 186.769 177.448 186.769 177.338L186.729 176.708H186.759Z" fill="white"/>
<path d="M35.8691 163.77C35.8691 163.47 35.8391 163.42 35.5791 163.13H37.1191C36.8591 163.44 36.8291 163.47 36.8291 163.76V165.06C36.8391 165.39 36.8491 165.43 36.9391 165.56C35.3491 166.49 33.2191 166.87 31.5591 165.94C30.2191 165.17 29.5691 164.02 29.5391 162.75C29.4991 161.55 30.0591 160.2 31.4491 159.31C33.0291 158.32 34.8091 158.55 36.3591 159.29L36.4891 160.85C35.7591 159.59 35.1991 159.19 33.9491 159.08C33.1091 159.01 32.1891 159.16 31.4291 160.11C30.6191 161.06 30.5491 162.76 30.7991 163.72C31.1191 164.86 31.6791 165.51 32.8291 165.91C33.5391 166.16 34.9891 166.03 35.6591 165.58C35.8191 165.46 35.8191 165.44 35.8691 165.35V163.76V163.77Z" fill="#DEA46E"/>
<path d="M41.2395 159.451C41.2395 159.141 41.2095 159.101 40.9495 158.801H42.4595C43.3295 158.801 44.6995 158.771 45.3495 159.841C45.6495 160.321 45.6495 160.941 45.3595 161.481C45.0595 162.051 44.5695 162.341 43.9995 162.521C44.4195 162.811 44.5195 162.981 44.9595 163.591L46.2195 165.511C46.5995 166.081 46.6195 166.071 47.1195 166.361H46.8195C45.5595 166.361 45.6995 166.491 44.9295 165.261L44.0395 163.831C43.2995 162.651 43.4695 162.781 42.1895 162.801V165.711C42.1895 166.011 42.2195 166.041 42.4795 166.351H40.9395C41.1995 166.051 41.2295 166.011 41.2295 165.701V159.451H41.2395ZM42.1995 162.381C42.5495 162.411 42.6795 162.431 43.0095 162.401C43.6095 162.331 44.1095 162.121 44.4295 161.481C44.6595 161.021 44.6495 160.321 44.3595 159.861C43.8795 159.091 42.5095 159.201 42.2095 159.201V162.381H42.1995Z" fill="#DEA46E"/>
<path d="M53.5591 158.648L56.5391 165.648C56.6991 166.018 56.8091 166.088 57.1191 166.348H55.2791C55.5691 166.098 55.6291 165.988 55.5191 165.628C55.4791 165.488 55.2391 164.918 55.2091 164.858L54.8191 163.988H51.8091L51.3391 165.058L51.0591 165.718C50.9391 166.048 50.9991 166.098 51.2491 166.358H50.0391C50.2191 166.178 50.3791 165.968 50.4891 165.718L53.5491 158.658L53.5591 158.648ZM51.9991 163.498H54.6091L53.3091 160.328L51.9991 163.498Z" fill="#DEA46E"/>
<path d="M61.8205 158.801L66.3605 164.371V159.551C66.3605 159.231 66.3605 159.141 66.0505 158.801H67.1705C66.8805 159.121 66.8505 159.221 66.8505 159.561V166.491L61.3605 159.841V165.601C61.3605 165.941 61.3905 166.031 61.6805 166.351H60.5605C60.8705 166.011 60.8705 165.931 60.8705 165.611V159.551C60.8705 159.231 60.8705 159.141 60.5605 158.801H61.8105H61.8205Z" fill="#DEA46E"/>
<path d="M71.1992 166.351C71.4592 166.051 71.4892 166.011 71.4892 165.701V159.451C71.4892 159.141 71.4592 159.101 71.1992 158.801H73.8392C75.1792 158.801 76.8392 158.961 77.7992 160.631C78.4792 161.781 78.4692 163.101 77.7992 164.261C76.6392 166.291 75.0992 166.351 73.4192 166.351H71.2092H71.1992ZM72.4492 165.761C73.2992 166.011 74.4192 165.971 74.9792 165.821C75.8692 165.601 76.6092 164.961 76.9392 164.091C77.2692 163.181 77.3192 161.401 76.5992 160.391C75.6992 159.121 74.0092 159.211 73.1492 159.221H72.4392V165.761H72.4492Z" fill="#DEA46E"/>
<path d="M92.9502 159.368L93.0202 161.038C92.6302 159.898 92.2602 159.448 91.0702 159.138C90.2902 158.928 89.0502 159.068 88.3102 159.708C87.2002 160.668 87.0602 162.048 87.1702 163.048C87.3002 164.048 87.6502 165.068 88.8902 165.698C89.6702 166.108 91.0402 166.078 91.7502 165.678C92.4502 165.298 92.8302 164.728 93.1102 164.018L93.0402 165.648C91.4102 166.538 89.5602 166.828 87.9802 165.888C86.6202 165.088 86.0002 163.868 86.0002 162.708C85.9902 161.508 86.4402 160.158 87.9402 159.248C89.4602 158.318 91.2902 158.548 92.9302 159.358L92.9502 159.368Z" fill="#DEA46E"/>
<path d="M97.3898 159.451C97.3898 159.141 97.3598 159.101 97.0998 158.801H98.6098C99.4798 158.801 100.85 158.771 101.5 159.841C101.8 160.321 101.8 160.941 101.51 161.481C101.21 162.051 100.72 162.341 100.15 162.521C100.57 162.811 100.67 162.981 101.11 163.591L102.37 165.511C102.75 166.081 102.77 166.071 103.27 166.361H102.97C101.71 166.361 101.85 166.491 101.08 165.261L100.19 163.831C99.4498 162.651 99.6198 162.781 98.3398 162.801V165.711C98.3398 166.011 98.3698 166.041 98.6298 166.351H97.0898C97.3498 166.051 97.3798 166.011 97.3798 165.701V159.451H97.3898ZM98.3498 162.381C98.6998 162.411 98.8299 162.431 99.1599 162.401C99.7599 162.331 100.26 162.121 100.58 161.481C100.81 161.021 100.8 160.321 100.51 159.861C100.03 159.091 98.6598 159.201 98.3598 159.201V162.381H98.3498Z" fill="#DEA46E"/>
<path d="M112.88 158.801C112.63 159.111 112.6 159.141 112.6 159.441V163.581C112.6 164.371 112.57 165.491 111.56 166.091C110.62 166.631 109.04 166.601 108.15 166.101C107.01 165.441 107.05 164.481 107.05 163.621V159.451C107.05 159.141 107.02 159.101 106.77 158.801H108.3C108.05 159.111 108.02 159.141 108.02 159.441V163.621C108.02 164.421 107.94 165.211 108.89 165.781C109.46 166.131 110.72 166.071 111.27 165.761C112.16 165.271 112.1 164.251 112.1 163.671V159.451C112.1 159.141 112.07 159.101 111.81 158.801H112.87H112.88Z" fill="#DEA46E"/>
<path d="M127.671 159.368L127.741 161.038C127.351 159.898 126.981 159.448 125.791 159.138C125.011 158.928 123.771 159.068 123.031 159.708C121.921 160.668 121.781 162.048 121.891 163.048C122.021 164.048 122.371 165.068 123.611 165.698C124.391 166.108 125.761 166.078 126.471 165.678C127.171 165.298 127.551 164.728 127.831 164.018L127.761 165.648C126.131 166.538 124.281 166.828 122.711 165.888C121.351 165.088 120.731 163.868 120.731 162.708C120.721 161.508 121.171 160.158 122.671 159.248C124.191 158.318 126.021 158.548 127.661 159.358L127.671 159.368Z" fill="#DEA46E"/>
<path d="M131.83 166.351C132.09 166.051 132.12 166.011 132.12 165.701V159.451C132.12 159.141 132.09 159.101 131.83 158.801H133.37C133.12 159.111 133.08 159.141 133.08 159.441V165.891H134.65C135.28 165.891 135.95 165.961 136.42 165.211L136.22 166.351H131.82H131.83Z" fill="#DEA46E"/>
<path d="M143.18 158.648L146.16 165.648C146.32 166.018 146.43 166.088 146.74 166.348H144.91C145.2 166.098 145.26 165.988 145.15 165.628C145.11 165.488 144.87 164.918 144.84 164.858L144.45 163.988H141.44L140.97 165.058L140.69 165.718C140.57 166.048 140.63 166.098 140.88 166.358H139.67C139.85 166.178 140.01 165.968 140.12 165.718L143.17 158.658L143.18 158.648ZM141.62 163.498H144.24L142.94 160.328L141.63 163.498H141.62Z" fill="#DEA46E"/>
<path d="M154.09 159.23L154.04 160.5C153.73 159.73 153.47 159.3 152.66 159.12C152.27 159.03 151.72 159.05 151.34 159.39C151.02 159.68 150.92 160.14 150.95 160.45C151.03 161.09 151.61 161.44 152.29 161.82L152.85 162.15C153.99 162.78 154.5 163.14 154.5 164.25C154.51 164.99 154.21 165.69 153.34 166.18C152.56 166.63 151.39 166.59 150.5 166.07C150.38 166.01 150.27 165.95 149.93 165.64L149.99 164.26C150.26 165.12 150.72 165.76 151.59 165.99C152.02 166.12 152.67 166.06 153.1 165.69C153.53 165.33 153.63 164.9 153.59 164.44C153.52 163.7 153 163.44 152.26 163.01L151.74 162.71C150.63 162.09 150.13 161.75 150.11 160.63C150.11 160 150.31 159.43 151.06 158.98C151.91 158.48 153.19 158.59 154.1 159.24L154.09 159.23Z" fill="#DEA46E"/>
<path d="M162.301 159.23L162.251 160.5C161.941 159.73 161.681 159.3 160.871 159.12C160.481 159.03 159.931 159.05 159.551 159.39C159.231 159.68 159.131 160.14 159.161 160.45C159.241 161.09 159.821 161.44 160.501 161.82L161.061 162.15C162.201 162.78 162.711 163.14 162.711 164.25C162.711 164.99 162.421 165.69 161.551 166.18C160.771 166.63 159.601 166.59 158.711 166.07C158.591 166.01 158.491 165.95 158.141 165.64L158.201 164.26C158.471 165.12 158.931 165.76 159.801 165.99C160.231 166.12 160.881 166.06 161.311 165.69C161.741 165.33 161.841 164.9 161.801 164.44C161.731 163.7 161.211 163.44 160.471 163.01L159.951 162.71C158.841 162.09 158.341 161.75 158.321 160.63C158.321 160 158.511 159.43 159.271 158.98C160.121 158.48 161.401 158.59 162.311 159.24L162.301 159.23Z" fill="#DEA46E"/>
<path d="M166.561 166.349C166.811 166.049 166.841 166.009 166.841 165.699V159.449C166.841 159.139 166.811 159.099 166.561 158.799H170.781V159.589C170.531 159.349 169.841 159.179 169.191 159.179C168.541 159.179 167.901 159.199 167.811 159.199V161.959H169.471C169.781 161.959 170.091 161.789 170.171 161.649V162.629C169.911 162.379 169.761 162.339 169.471 162.339H167.811V165.819C168.391 165.959 169.841 165.939 170.041 165.919C170.641 165.869 170.881 165.839 171.261 165.209L171.091 166.339H166.571L166.561 166.349ZM168.211 156.959C168.821 156.329 169.081 156.039 169.341 156.129C169.481 156.169 169.601 156.309 169.611 156.449C169.651 156.759 169.291 156.919 168.641 157.299L167.561 157.929H167.261L168.211 156.969V156.959Z" fill="#DEA46E"/>
<path d="M179.289 166.351C179.549 166.051 179.579 166.011 179.579 165.701V159.451C179.579 159.141 179.549 159.101 179.289 158.801H183.509V159.591C183.269 159.351 182.579 159.181 181.919 159.181C181.299 159.181 180.639 159.201 180.539 159.201V161.961H182.209C182.509 161.961 182.819 161.791 182.909 161.651V162.631C182.639 162.381 182.489 162.341 182.209 162.341H180.539V165.821C181.139 165.961 182.579 165.941 182.779 165.921C183.369 165.871 183.619 165.841 183.999 165.211L183.829 166.341H179.299L179.289 166.351Z" fill="#DEA46E"/>
<path d="M189.01 158.801L193.55 164.371V159.551C193.55 159.231 193.55 159.141 193.24 158.801H194.36C194.07 159.121 194.04 159.221 194.04 159.561V166.491L188.55 159.841V165.601C188.55 165.941 188.58 166.031 188.87 166.351H187.75C188.06 166.011 188.06 165.931 188.06 165.611V159.551C188.06 159.231 188.06 159.141 187.75 158.801H189H189.01Z" fill="#DEA46E"/>
<path d="M205.33 158.672V165.592C205.33 166.002 205.33 166.032 205.67 166.352H204C204.36 166.012 204.36 165.992 204.36 165.592V160.712C204.36 160.442 204.39 159.972 204.19 159.842C204.08 159.772 203.77 159.792 203.59 159.792L205.34 158.672H205.33Z" fill="#DEA46E"/>
<path d="M214.65 161.918C215.58 162.478 216.19 162.998 216.26 164.038C216.29 164.618 216.1 165.418 215.4 165.968C214.78 166.458 213.96 166.608 213.22 166.378C212.51 166.158 211.97 165.688 211.72 164.928C211.56 164.418 211.57 163.678 212.01 163.128C212.34 162.708 212.71 162.498 213.18 162.298C212.27 161.738 211.95 161.178 212 160.378C212.03 159.828 212.3 159.228 213 158.868C213.6 158.568 214.56 158.568 215.15 158.948C215.74 159.348 215.94 159.798 215.91 160.338C215.87 161.108 215.54 161.408 214.66 161.908L214.65 161.918ZM212.39 164.708C212.5 165.298 212.78 165.748 213.41 165.968C213.78 166.118 214.39 166.028 214.75 165.748C215.32 165.288 215.39 164.678 215.33 164.228C215.2 163.268 214.3 162.858 213.41 162.478C212.41 163.228 212.24 163.858 212.38 164.708H212.39ZM215.18 160.088C215.12 159.658 214.92 159.328 214.51 159.148C214.19 158.998 213.66 159.038 213.38 159.218C212.97 159.488 212.86 159.888 212.87 160.238C212.89 160.988 213.66 161.428 214.33 161.808C215.08 161.148 215.24 160.688 215.18 160.098V160.088Z" fill="#DEA46E"/>
<path d="M225.05 158.639L224.92 159.599H222.3L221.95 161.599C222.75 161.339 223.7 161.379 224.42 162.049C225.19 162.749 225.35 163.669 225.2 164.399C225.02 165.329 224.46 166.009 223.45 166.369C222.91 166.549 222 166.589 221.38 166.049C221.27 165.969 221.15 165.859 221.09 165.759C221.03 165.679 221 165.619 220.98 165.579C220.94 165.479 220.98 165.469 221 165.489C221.69 166.009 222.32 166.109 222.96 165.879C223.53 165.689 223.97 165.219 224.12 164.629C224.27 164.089 224.24 163.329 223.77 162.769C223.32 162.259 222.53 162.099 222.01 162.149C221.8 162.169 221.72 162.199 221.39 162.309L222.04 158.789H224.51C224.73 158.789 224.81 158.769 225.06 158.629L225.05 158.639Z" fill="#DEA46E"/>
<path d="M234.15 158.639L234.02 159.599H231.41L231.06 161.599C231.86 161.339 232.81 161.379 233.53 162.049C234.3 162.749 234.46 163.669 234.31 164.399C234.13 165.329 233.57 166.009 232.56 166.369C232.02 166.549 231.11 166.589 230.49 166.049C230.38 165.969 230.27 165.859 230.2 165.759C230.14 165.679 230.11 165.619 230.09 165.579C230.05 165.479 230.08 165.469 230.11 165.489C230.8 166.009 231.43 166.109 232.07 165.879C232.64 165.689 233.07 165.219 233.23 164.629C233.38 164.089 233.35 163.329 232.88 162.769C232.43 162.259 231.64 162.099 231.12 162.149C230.91 162.169 230.83 162.199 230.49 162.309L231.14 158.789H233.61C233.84 158.789 233.91 158.769 234.16 158.629L234.15 158.639Z" fill="#DEA46E"/>
<path d="M35.8691 163.77C35.8691 163.47 35.8391 163.42 35.5791 163.13H37.1191C36.8591 163.44 36.8291 163.47 36.8291 163.76V165.06C36.8391 165.39 36.8491 165.43 36.9391 165.56C35.3491 166.49 33.2191 166.87 31.5591 165.94C30.2191 165.17 29.5691 164.02 29.5391 162.75C29.4991 161.55 30.0591 160.2 31.4491 159.31C33.0291 158.32 34.8091 158.55 36.3591 159.29L36.4891 160.85C35.7591 159.59 35.1991 159.19 33.9491 159.08C33.1091 159.01 32.1891 159.16 31.4291 160.11C30.6191 161.06 30.5491 162.76 30.7991 163.72C31.1191 164.86 31.6791 165.51 32.8291 165.91C33.5391 166.16 34.9891 166.03 35.6591 165.58C35.8191 165.46 35.8191 165.44 35.8691 165.35V163.76V163.77Z" fill="#DEA46E"/>
<path d="M41.2395 159.451C41.2395 159.141 41.2095 159.101 40.9495 158.801H42.4595C43.3295 158.801 44.6995 158.771 45.3495 159.841C45.6495 160.321 45.6495 160.941 45.3595 161.481C45.0595 162.051 44.5695 162.341 43.9995 162.521C44.4195 162.811 44.5195 162.981 44.9595 163.591L46.2195 165.511C46.5995 166.081 46.6195 166.071 47.1195 166.361H46.8195C45.5595 166.361 45.6995 166.491 44.9295 165.261L44.0395 163.831C43.2995 162.651 43.4695 162.781 42.1895 162.801V165.711C42.1895 166.011 42.2195 166.041 42.4795 166.351H40.9395C41.1995 166.051 41.2295 166.011 41.2295 165.701V159.451H41.2395ZM42.1995 162.381C42.5495 162.411 42.6795 162.431 43.0095 162.401C43.6095 162.331 44.1095 162.121 44.4295 161.481C44.6595 161.021 44.6495 160.321 44.3595 159.861C43.8795 159.091 42.5095 159.201 42.2095 159.201V162.381H42.1995Z" fill="#DEA46E"/>
<path d="M53.5591 158.648L56.5391 165.648C56.6991 166.018 56.8091 166.088 57.1191 166.348H55.2791C55.5691 166.098 55.6291 165.988 55.5191 165.628C55.4791 165.488 55.2391 164.918 55.2091 164.858L54.8191 163.988H51.8091L51.3391 165.058L51.0591 165.718C50.9391 166.048 50.9991 166.098 51.2491 166.358H50.0391C50.2191 166.178 50.3791 165.968 50.4891 165.718L53.5491 158.658L53.5591 158.648ZM51.9991 163.498H54.6091L53.3091 160.328L51.9991 163.498Z" fill="#DEA46E"/>
<path d="M61.8205 158.801L66.3605 164.371V159.551C66.3605 159.231 66.3605 159.141 66.0505 158.801H67.1705C66.8805 159.121 66.8505 159.221 66.8505 159.561V166.491L61.3605 159.841V165.601C61.3605 165.941 61.3905 166.031 61.6805 166.351H60.5605C60.8705 166.011 60.8705 165.931 60.8705 165.611V159.551C60.8705 159.231 60.8705 159.141 60.5605 158.801H61.8105H61.8205Z" fill="#DEA46E"/>
<path d="M71.1992 166.351C71.4592 166.051 71.4892 166.011 71.4892 165.701V159.451C71.4892 159.141 71.4592 159.101 71.1992 158.801H73.8392C75.1792 158.801 76.8392 158.961 77.7992 160.631C78.4792 161.781 78.4692 163.101 77.7992 164.261C76.6392 166.291 75.0992 166.351 73.4192 166.351H71.2092H71.1992ZM72.4492 165.761C73.2992 166.011 74.4192 165.971 74.9792 165.821C75.8692 165.601 76.6092 164.961 76.9392 164.091C77.2692 163.181 77.3192 161.401 76.5992 160.391C75.6992 159.121 74.0092 159.211 73.1492 159.221H72.4392V165.761H72.4492Z" fill="#DEA46E"/>
<path d="M92.9502 159.368L93.0202 161.038C92.6302 159.898 92.2602 159.448 91.0702 159.138C90.2902 158.928 89.0502 159.068 88.3102 159.708C87.2002 160.668 87.0602 162.048 87.1702 163.048C87.3002 164.048 87.6502 165.068 88.8902 165.698C89.6702 166.108 91.0402 166.078 91.7502 165.678C92.4502 165.298 92.8302 164.728 93.1102 164.018L93.0402 165.648C91.4102 166.538 89.5602 166.828 87.9802 165.888C86.6202 165.088 86.0002 163.868 86.0002 162.708C85.9902 161.508 86.4402 160.158 87.9402 159.248C89.4602 158.318 91.2902 158.548 92.9302 159.358L92.9502 159.368Z" fill="#DEA46E"/>
<path d="M97.3898 159.451C97.3898 159.141 97.3598 159.101 97.0998 158.801H98.6098C99.4798 158.801 100.85 158.771 101.5 159.841C101.8 160.321 101.8 160.941 101.51 161.481C101.21 162.051 100.72 162.341 100.15 162.521C100.57 162.811 100.67 162.981 101.11 163.591L102.37 165.511C102.75 166.081 102.77 166.071 103.27 166.361H102.97C101.71 166.361 101.85 166.491 101.08 165.261L100.19 163.831C99.4498 162.651 99.6198 162.781 98.3398 162.801V165.711C98.3398 166.011 98.3698 166.041 98.6298 166.351H97.0898C97.3498 166.051 97.3798 166.011 97.3798 165.701V159.451H97.3898ZM98.3498 162.381C98.6998 162.411 98.8299 162.431 99.1599 162.401C99.7599 162.331 100.26 162.121 100.58 161.481C100.81 161.021 100.8 160.321 100.51 159.861C100.03 159.091 98.6598 159.201 98.3598 159.201V162.381H98.3498Z" fill="#DEA46E"/>
<path d="M112.88 158.801C112.63 159.111 112.6 159.141 112.6 159.441V163.581C112.6 164.371 112.57 165.491 111.56 166.091C110.62 166.631 109.04 166.601 108.15 166.101C107.01 165.441 107.05 164.481 107.05 163.621V159.451C107.05 159.141 107.02 159.101 106.77 158.801H108.3C108.05 159.111 108.02 159.141 108.02 159.441V163.621C108.02 164.421 107.94 165.211 108.89 165.781C109.46 166.131 110.72 166.071 111.27 165.761C112.16 165.271 112.1 164.251 112.1 163.671V159.451C112.1 159.141 112.07 159.101 111.81 158.801H112.87H112.88Z" fill="#DEA46E"/>
<path d="M127.671 159.368L127.741 161.038C127.351 159.898 126.981 159.448 125.791 159.138C125.011 158.928 123.771 159.068 123.031 159.708C121.921 160.668 121.781 162.048 121.891 163.048C122.021 164.048 122.371 165.068 123.611 165.698C124.391 166.108 125.761 166.078 126.471 165.678C127.171 165.298 127.551 164.728 127.831 164.018L127.761 165.648C126.131 166.538 124.281 166.828 122.711 165.888C121.351 165.088 120.731 163.868 120.731 162.708C120.721 161.508 121.171 160.158 122.671 159.248C124.191 158.318 126.021 158.548 127.661 159.358L127.671 159.368Z" fill="#DEA46E"/>
<path d="M131.83 166.351C132.09 166.051 132.12 166.011 132.12 165.701V159.451C132.12 159.141 132.09 159.101 131.83 158.801H133.37C133.12 159.111 133.08 159.141 133.08 159.441V165.891H134.65C135.28 165.891 135.95 165.961 136.42 165.211L136.22 166.351H131.82H131.83Z" fill="#DEA46E"/>
<path d="M143.18 158.648L146.16 165.648C146.32 166.018 146.43 166.088 146.74 166.348H144.91C145.2 166.098 145.26 165.988 145.15 165.628C145.11 165.488 144.87 164.918 144.84 164.858L144.45 163.988H141.44L140.97 165.058L140.69 165.718C140.57 166.048 140.63 166.098 140.88 166.358H139.67C139.85 166.178 140.01 165.968 140.12 165.718L143.17 158.658L143.18 158.648ZM141.62 163.498H144.24L142.94 160.328L141.63 163.498H141.62Z" fill="#DEA46E"/>
<path d="M154.09 159.23L154.04 160.5C153.73 159.73 153.47 159.3 152.66 159.12C152.27 159.03 151.72 159.05 151.34 159.39C151.02 159.68 150.92 160.14 150.95 160.45C151.03 161.09 151.61 161.44 152.29 161.82L152.85 162.15C153.99 162.78 154.5 163.14 154.5 164.25C154.51 164.99 154.21 165.69 153.34 166.18C152.56 166.63 151.39 166.59 150.5 166.07C150.38 166.01 150.27 165.95 149.93 165.64L149.99 164.26C150.26 165.12 150.72 165.76 151.59 165.99C152.02 166.12 152.67 166.06 153.1 165.69C153.53 165.33 153.63 164.9 153.59 164.44C153.52 163.7 153 163.44 152.26 163.01L151.74 162.71C150.63 162.09 150.13 161.75 150.11 160.63C150.11 160 150.31 159.43 151.06 158.98C151.91 158.48 153.19 158.59 154.1 159.24L154.09 159.23Z" fill="#DEA46E"/>
<path d="M162.301 159.23L162.251 160.5C161.941 159.73 161.681 159.3 160.871 159.12C160.481 159.03 159.931 159.05 159.551 159.39C159.231 159.68 159.131 160.14 159.161 160.45C159.241 161.09 159.821 161.44 160.501 161.82L161.061 162.15C162.201 162.78 162.711 163.14 162.711 164.25C162.711 164.99 162.421 165.69 161.551 166.18C160.771 166.63 159.601 166.59 158.711 166.07C158.591 166.01 158.491 165.95 158.141 165.64L158.201 164.26C158.471 165.12 158.931 165.76 159.801 165.99C160.231 166.12 160.881 166.06 161.311 165.69C161.741 165.33 161.841 164.9 161.801 164.44C161.731 163.7 161.211 163.44 160.471 163.01L159.951 162.71C158.841 162.09 158.341 161.75 158.321 160.63C158.321 160 158.511 159.43 159.271 158.98C160.121 158.48 161.401 158.59 162.311 159.24L162.301 159.23Z" fill="#DEA46E"/>
<path d="M166.561 166.349C166.811 166.049 166.841 166.009 166.841 165.699V159.449C166.841 159.139 166.811 159.099 166.561 158.799H170.781V159.589C170.531 159.349 169.841 159.179 169.191 159.179C168.541 159.179 167.901 159.199 167.811 159.199V161.959H169.471C169.781 161.959 170.091 161.789 170.171 161.649V162.629C169.911 162.379 169.761 162.339 169.471 162.339H167.811V165.819C168.391 165.959 169.841 165.939 170.041 165.919C170.641 165.869 170.881 165.839 171.261 165.209L171.091 166.339H166.571L166.561 166.349ZM168.211 156.959C168.821 156.329 169.081 156.039 169.341 156.129C169.481 156.169 169.601 156.309 169.611 156.449C169.651 156.759 169.291 156.919 168.641 157.299L167.561 157.929H167.261L168.211 156.969V156.959Z" fill="#DEA46E"/>
<path d="M179.289 166.351C179.549 166.051 179.579 166.011 179.579 165.701V159.451C179.579 159.141 179.549 159.101 179.289 158.801H183.509V159.591C183.269 159.351 182.579 159.181 181.919 159.181C181.299 159.181 180.639 159.201 180.539 159.201V161.961H182.209C182.509 161.961 182.819 161.791 182.909 161.651V162.631C182.639 162.381 182.489 162.341 182.209 162.341H180.539V165.821C181.139 165.961 182.579 165.941 182.779 165.921C183.369 165.871 183.619 165.841 183.999 165.211L183.829 166.341H179.299L179.289 166.351Z" fill="#DEA46E"/>
<path d="M189.01 158.801L193.55 164.371V159.551C193.55 159.231 193.55 159.141 193.24 158.801H194.36C194.07 159.121 194.04 159.221 194.04 159.561V166.491L188.55 159.841V165.601C188.55 165.941 188.58 166.031 188.87 166.351H187.75C188.06 166.011 188.06 165.931 188.06 165.611V159.551C188.06 159.231 188.06 159.141 187.75 158.801H189H189.01Z" fill="#DEA46E"/>
<path d="M205.33 158.672V165.592C205.33 166.002 205.33 166.032 205.67 166.352H204C204.36 166.012 204.36 165.992 204.36 165.592V160.712C204.36 160.442 204.39 159.972 204.19 159.842C204.08 159.772 203.77 159.792 203.59 159.792L205.34 158.672H205.33Z" fill="#DEA46E"/>
<path d="M214.65 161.918C215.58 162.478 216.19 162.998 216.26 164.038C216.29 164.618 216.1 165.418 215.4 165.968C214.78 166.458 213.96 166.608 213.22 166.378C212.51 166.158 211.97 165.688 211.72 164.928C211.56 164.418 211.57 163.678 212.01 163.128C212.34 162.708 212.71 162.498 213.18 162.298C212.27 161.738 211.95 161.178 212 160.378C212.03 159.828 212.3 159.228 213 158.868C213.6 158.568 214.56 158.568 215.15 158.948C215.74 159.348 215.94 159.798 215.91 160.338C215.87 161.108 215.54 161.408 214.66 161.908L214.65 161.918ZM212.39 164.708C212.5 165.298 212.78 165.748 213.41 165.968C213.78 166.118 214.39 166.028 214.75 165.748C215.32 165.288 215.39 164.678 215.33 164.228C215.2 163.268 214.3 162.858 213.41 162.478C212.41 163.228 212.24 163.858 212.38 164.708H212.39ZM215.18 160.088C215.12 159.658 214.92 159.328 214.51 159.148C214.19 158.998 213.66 159.038 213.38 159.218C212.97 159.488 212.86 159.888 212.87 160.238C212.89 160.988 213.66 161.428 214.33 161.808C215.08 161.148 215.24 160.688 215.18 160.098V160.088Z" fill="#DEA46E"/>
<path d="M225.05 158.639L224.92 159.599H222.3L221.95 161.599C222.75 161.339 223.7 161.379 224.42 162.049C225.19 162.749 225.35 163.669 225.2 164.399C225.02 165.329 224.46 166.009 223.45 166.369C222.91 166.549 222 166.589 221.38 166.049C221.27 165.969 221.15 165.859 221.09 165.759C221.03 165.679 221 165.619 220.98 165.579C220.94 165.479 220.98 165.469 221 165.489C221.69 166.009 222.32 166.109 222.96 165.879C223.53 165.689 223.97 165.219 224.12 164.629C224.27 164.089 224.24 163.329 223.77 162.769C223.32 162.259 222.53 162.099 222.01 162.149C221.8 162.169 221.72 162.199 221.39 162.309L222.04 158.789H224.51C224.73 158.789 224.81 158.769 225.06 158.629L225.05 158.639Z" fill="#DEA46E"/>
<path d="M234.15 158.639L234.02 159.599H231.41L231.06 161.599C231.86 161.339 232.81 161.379 233.53 162.049C234.3 162.749 234.46 163.669 234.31 164.399C234.13 165.329 233.57 166.009 232.56 166.369C232.02 166.549 231.11 166.589 230.49 166.049C230.38 165.969 230.27 165.859 230.2 165.759C230.14 165.679 230.11 165.619 230.09 165.579C230.05 165.479 230.08 165.469 230.11 165.489C230.8 166.009 231.43 166.109 232.07 165.879C232.64 165.689 233.07 165.219 233.23 164.629C233.38 164.089 233.35 163.329 232.88 162.769C232.43 162.259 231.64 162.099 231.12 162.149C230.91 162.169 230.83 162.199 230.49 162.309L231.14 158.789H233.61C233.84 158.789 233.91 158.769 234.16 158.629L234.15 158.639Z" fill="#DEA46E"/>
</g>
<defs>
<clipPath id="clip0_18_1312">
<rect width="244.12" height="189.47" fill="white"/>
</clipPath>
</defs>
</svg>
